<svg xmlns="http://www.w3.org/2000/svg" xmlns:xlink="http://www.w3.org/1999/xlink" fill="none" version="1.1" width="24" height="24" viewBox="0 0 24 24"><g><g><g><g></g><g><path d="M11.40303220703125,1.997789828125Q4.20001220703125,7.357688828125,4.20001220703125,14.300048828125Q4.20001220703125,17.568048828125,6.47943220703125,19.881048828125Q8.76485220703125,22.200048828125,12.00001220703125,22.200048828125Q15.23521220703125,22.200048828125,17.52061220703125,19.881048828125Q19.80001220703125,17.568048828125,19.80001220703125,14.300048828125Q19.80001220703125,7.357688828125,12.59698220703125,1.997788828125Q12.53269220703125,1.9499498281249998,12.46161220703125,1.9129588281249998Q12.39052220703125,1.8759678281249998,12.31445220703125,1.850769828125Q12.23837220703125,1.8255728281249999,12.15926220703125,1.812810828125Q12.08015220703125,1.800048828125,12.00001220703125,1.800048828125Q11.91987220703125,1.800048828125,11.84076220703125,1.812810828125Q11.76165220703125,1.8255728281249999,11.68557220703125,1.850769828125Q11.60950220703125,1.8759678281249998,11.53841220703125,1.9129588281249998Q11.46733220703125,1.9499498281249998,11.40303220703125,1.997789828125ZM7.90393220703125,18.477148828125Q6.20001220703125,16.748148828125,6.20001220703125,14.300048828125Q6.20001220703125,8.646248828125,12.00001220703125,4.060098828125Q17.80001220703125,8.646248828125,17.80001220703125,14.300048828125Q17.80001220703125,16.748148828125,16.09611220703125,18.477148828125Q14.39818220703125,20.200048828125,12.00001220703125,20.200048828125Q9.60184220703125,20.200048828125,7.90393220703125,18.477148828125Z" fill-rule="evenodd" fill="#FFFFFF" fill-opacity="1"/></g><g><path d="M18.47921220703125,13.3437315859375Q14.79778220703125,14.5905675859375,12.45294220703125,13.3993365859375Q9.35778220703125,11.8269355859375,4.87922920703125,13.3437315859375Q4.80542520703125,13.3687275859375,4.73638420703125,13.4048545859375Q4.66734320703125,13.4409815859375,4.60473120703125,13.4873675859375Q4.54211920703125,13.5337530859375,4.48744820703125,13.5892775859375Q4.43277720703125,13.6448020859375,4.38736720703125,13.7081255859375Q4.34195820703125,13.7714485859375,4.30690520703125,13.8410405859375Q4.27185220703125,13.9106335859375,4.24800220703125,13.9848165859375Q4.22415320703125,14.0589995859375,4.21208220703125,14.1359805859375Q4.20001220703125,14.2129625859375,4.20001220703125,14.2908845859375Q4.20001220703125,17.5622955859375,6.47897220703125,19.8778155859375Q8.76447220703125,22.1999755859375,12.00001220703125,22.1999755859375Q15.23551220703125,22.1999755859375,17.521012207031248,19.8778155859375Q19.80001220703125,17.5622955859375,19.80001220703125,14.2908845859375Q19.80001220703125,14.1923935859375,19.78081220703125,14.095794585937501Q19.76161220703125,13.9991955859375,19.723912207031248,13.9082015859375Q19.68621220703125,13.8172075859375,19.63151220703125,13.7353145859375Q19.57671220703125,13.6534219859375,19.50711220703125,13.5837779859375Q19.43751220703125,13.5141340859375,19.35561220703125,13.4594155859375Q19.273712207031252,13.4046965859375,19.18271220703125,13.3670055859375Q19.09171220703125,13.3293145859375,18.995112207031248,13.3100995859375Q18.89851220703125,13.2908845859375,18.80001220703125,13.2908845859375Q18.635312207031248,13.2908845859375,18.47921220703125,13.3437315859375ZM6.2388022070312505,15.0144355859375Q9.43510220703125,14.1095005859375,11.54708220703125,15.1824355859375Q14.12221220703125,16.4906555859375,17.654912207031252,15.6605255859375Q17.30271220703125,17.2484255859375,16.09561220703125,18.4748955859375Q14.39779220703125,20.1999755859375,12.00001220703125,20.1999755859375Q9.60223220703125,20.1999755859375,7.9043922070312505,18.4748955859375Q6.45715220703125,17.0044455859375,6.2388022070312505,15.0144355859375Z" fill-rule="evenodd" fill="#FFFFFF" fill-opacity="1"/></g></g></g></g></svg>