<svg xmlns="http://www.w3.org/2000/svg" xmlns:xlink="http://www.w3.org/1999/xlink" fill="none" version="1.1" width="24" height="24" viewBox="0 0 24 24"><defs><clipPath id="master_svg0_84_00060"><rect x="0" y="0" width="24" height="24" rx="0"/></clipPath></defs><g clip-path="url(#master_svg0_84_00060)"><g><path d="M22.9949,20.3172Q22.4484,14.9273,18.8665,11.2976Q15.5945,7.98175,11.0591,7.62586L11.0591,3.5Q11.0591,3.297687,10.98046,3.111285Q10.90182,2.924883,10.7569,2.783709Q10.68635,2.714981,10.60375,2.6613379999999998Q10.52115,2.607694,10.42967,2.571196Q10.33819,2.534698,10.24135,2.5167479999999998Q10.14451,2.4988,10.04602,2.500086Q9.94754,2.501373,9.8512,2.521849Q9.75486,2.542325,9.66437,2.581203Q9.57387,2.620081,9.4927,2.675865Q9.411539999999999,2.73165,9.34281,2.802199L1.2837079999999998,11.07485Q1.217308,11.14301,1.164955,11.222470000000001Q1.112601,11.301929999999999,1.076174,11.38984Q1.039747,11.47774,1.020554,11.57094Q1.00136,11.66415,1.000089,11.75929Q0.99882,11.85444,1.0155159999999999,11.94812Q1.032213,12.0418,1.066279,12.13065Q1.100345,12.2195,1.150558,12.30033Q1.20077,12.38116,1.265326,12.45107L9.32443,21.1784Q9.4664,21.3322,9.65811,21.4161Q9.84983,21.5,10.0591,21.5Q10.15759,21.5,10.25419,21.4808Q10.35079,21.4616,10.44178,21.4239Q10.53278,21.3862,10.61467,21.3315Q10.69656,21.2767,10.76621,21.2071Q10.83585,21.1375,10.89057,21.0556Q10.94529,20.9737,10.98298,20.8827Q11.02067,20.7917,11.03988,20.6951Q11.0591,20.5985,11.0591,20.5L11.0591,16.0313Q13.0732,15.8452,15.2746,16.3123Q17.7791,16.8437,21.2264,21.0518Q21.3049,21.1475,21.4044,21.2213Q21.5038,21.295,21.6182,21.3423Q21.7327,21.3896,21.8552,21.4075Q21.9777,21.4254,22.1009,21.4129Q22.1989,21.403,22.293,21.3741Q22.3872,21.3453,22.4739,21.2986Q22.5607,21.2519,22.6366,21.1892Q22.7126,21.1265,22.7748,21.0502Q22.8371,20.9739,22.8833,20.8869Q22.9294,20.7999,22.9578,20.7056Q22.9861,20.6112,22.9955,20.5132Q23.0048,20.4152,22.9949,20.3172ZM10.05119,9.58347Q14.3991,9.61785,17.442999999999998,12.70239Q19.2984,14.5826,20.2103,17.026699999999998Q17.7972,14.803,15.6898,14.3559Q12.6581,13.7126,9.89751,14.1646Q9.810410000000001,14.1789,9.72716,14.2082Q9.6439,14.2375,9.567070000000001,14.2809Q9.49023,14.3243,9.42219,14.3806Q9.35415,14.4368,9.297,14.504Q9.23986,14.5713,9.19538,14.6475Q9.1509,14.7238,9.12046,14.8066Q9.090019999999999,14.8895,9.07456,14.9763Q9.0591,15.0632,9.0591,15.1515L9.0591,17.9431L3.3781499999999998,11.79106L9.0591,5.959569999999999L9.0591,8.5835Q9.0591,8.68149,9.07812,8.777619999999999Q9.09715,8.873750000000001,9.13447,8.96436Q9.17179,9.054960000000001,9.22599,9.1366Q9.280190000000001,9.21824,9.3492,9.28781Q9.41822,9.35737,9.49943,9.41221Q9.580639999999999,9.46706,9.67094,9.50509Q9.76125,9.54313,9.857230000000001,9.562909999999999Q9.953199999999999,9.58269,10.05119,9.58347Z" fill-rule="evenodd" fill="#000000" fill-opacity="1"/></g></g></svg>