<svg xmlns="http://www.w3.org/2000/svg" xmlns:xlink="http://www.w3.org/1999/xlink" fill="none" version="1.1" width="24" height="24" viewBox="0 0 24 24"><defs><clipPath id="master_svg0_34_17715/34_0658"><rect x="0" y="0" width="24" height="24" rx="0"/></clipPath></defs><g clip-path="url(#master_svg0_34_17715/34_0658)"><g><rect x="0" y="0" width="24" height="24" rx="0" fill="#FFFFFF" fill-opacity="0.009999999776482582"/></g><g><path d="M6.70551,5.2065755468749995Q4.5,7.358115546875,4.5,10.406085546875001Q4.5,15.858285546875,11.45293,20.402285546875Q11.51361,20.441885546875,11.57937,20.472385546875Q11.64512,20.502885546875,11.714590000000001,20.523585546875Q11.78406,20.544285546875,11.855789999999999,20.554685546875Q11.927520000000001,20.565185546875,12,20.565185546875Q12.072479999999999,20.565185546875,12.144210000000001,20.554685546875Q12.21594,20.544285546875,12.285409999999999,20.523585546875Q12.35487,20.502885546875,12.42063,20.472385546875Q12.48639,20.441885546875,12.54707,20.402285546875Q19.5,15.858285546875,19.5,10.406085546875001Q19.5,7.358115546875,17.2945,5.2065755468749995Q15.09936,3.065185546875,12,3.065185546875Q8.90064,3.065185546875,6.70551,5.2065755468749995ZM12,18.361185546875Q6.5,14.573785546875,6.5,10.406085546875001Q6.5,8.201095546874999,8.1021,6.638205546875Q9.714590000000001,5.065185546875,12,5.065184546875Q14.28541,5.065184546875,15.8979,6.638205546875Q17.5,8.201085546875,17.5,10.406085546875001Q17.5,14.573785546875,12,18.361185546875Z" fill-rule="evenodd" fill="#4DC591" fill-opacity="1"/></g><g><path d="M9.5251307,8.090316246875Q8.5,9.115445546875,8.5,10.565185546875Q8.5,12.014925546875,9.5251307,13.040055546875Q10.55026,14.065185546875,12,14.065185546875Q13.44974,14.065185546875,14.47487,13.040055546875Q15.5,12.014925546875,15.5,10.565185546875Q15.5,9.115445546875,14.47487,8.090316246875Q13.44974,7.065185546875,12,7.065185546875Q10.55026,7.065185546875,9.5251307,8.090316246875ZM10.93934,11.625845546875Q10.5,11.186495546875,10.5,10.565185546875Q10.5,9.943875546875,10.93934,9.504525546875Q11.37869,9.065185546875,12,9.065185546875Q12.62131,9.065185546875,13.06066,9.504525546875Q13.5,9.943875546875,13.5,10.565185546875Q13.5,11.186495546875,13.06066,11.625845546875Q12.62131,12.065185546875,12,12.065185546875Q11.37869,12.065185546875,10.93934,11.625845546875Z" fill-rule="evenodd" fill="#4DC591" fill-opacity="1"/></g></g></svg>