<svg xmlns="http://www.w3.org/2000/svg" xmlns:xlink="http://www.w3.org/1999/xlink" fill="none" version="1.1" width="111" height="38" viewBox="0 0 111 38"><g><g><path d="M51.0234044140625,13.383261874999999L51.0234044140625,11.792861875L51.7939044140625,11.792861875C51.562754414062496,12.031421875,51.3307544140625,12.191341874999999,51.1766544140625,12.350381875C51.4196444140625,12.548921875,51.6514544140625,12.761611875,51.8709544140625,12.987421874999999C51.9488644140625,13.147351875,52.0259144140625,13.226871875,52.1029644140625,13.385911875L51.0234044140625,13.383261874999999ZM47.2411044140625,14.578711875L53.4907244140625,14.578711875L53.4907244140625,13.303741875L52.6414644140625,13.383261874999999C52.8734644140625,13.144701874999999,53.027564414062496,12.905251875000001,53.1816644140625,12.746211875L52.8734644140625,12.506771875L52.4873544140625,12.109171875000001C52.4873544140625,12.028771875,52.4103144140625,11.949251875,52.2553544140625,11.790211875L53.111464414062496,11.790211875L53.111464414062496,10.515241875000001L52.4171544140625,10.594761875L51.0234044140625,10.594761875L51.0234044140625,9.400191875L52.4899244140625,9.400191875L53.4162444140625,9.479711875L53.4162444140625,8.125221875L52.4128844140625,8.205631875L48.3215244140625,8.205631875L47.3952144140625,8.125221875L47.3952144140625,9.479711875L48.3215244140625,9.400191875L49.7109944140625,9.400191875L49.7109944140625,10.594761875L48.6305844140625,10.594761875L47.7042644140625,10.515241875000001L47.7042644140625,11.790211875L49.7109944140625,11.790211875L49.7109944140625,13.380611875L48.2444744140625,13.380611875L47.2411144140625,13.301091875000001L47.2411044140625,14.578711875ZM45.7737324140625,7.488181875L45.7737324140625,16.649771875L47.0861544140625,16.649771875L47.0861544140625,16.490671875L53.6473844140625,16.490671875L53.6473844140625,16.729271875000002L55.0368644140625,16.729271875000002L54.9598144140625,15.374791875L54.9598144140625,7.488181875L55.0368644140625,6.213214875L45.7737324140625,6.213214875L45.7737324140625,7.488181875ZM47.0861544140625,7.488181875L53.6473844140625,7.488181875L53.6473844140625,15.215751875L47.0861544140625,15.215751875L47.0861544140625,7.488181875ZM59.3610744140625,14.180221875C60.1315744140625,13.702221875,60.7505744140625,13.303741875,61.2136744140625,12.905251875000001C61.2136744140625,12.825731874999999,61.1366744140625,12.746211875,61.1366744140625,12.666691875Q60.2094744140625,13.260441875,59.5142744140625,13.622701875C59.0511744140625,13.940781875,58.3559744140625,14.180221875,57.429674414062504,14.499181875L57.1985744140625,14.021181875C57.121474414062504,13.940781875,56.9665744140625,13.622701875,56.7353744140625,13.303741875C57.1985744140625,13.224221875,57.5846744140625,13.144701874999999,57.892874414062504,12.984771875C58.294174414062496,12.868021875,58.6824744140625,12.707801875000001,59.0511744140625,12.506771875C59.5301744140625,12.272371875000001,59.9942744140625,12.006761874999999,60.4406744140625,11.711571875L60.2856744140625,11.632051875C59.7454744140625,11.870611875,59.3593744140625,11.950131875,59.0511744140625,12.110051875C58.8191744140625,12.189571875,58.3559744140625,12.269091875,57.6616744140625,12.507651875C57.6616744140625,12.348611875,57.5846744140625,12.189571875,57.5067744140625,12.029651874999999C57.4288744140625,11.869731875,57.275574414062504,11.632051875,57.0435744140625,11.234451875000001C57.5020744140625,11.128171875,57.9659744140625,11.048231874999999,58.4330744140625,10.995011875C59.0511744140625,10.915491875,59.8225744140625,10.596531875,60.7488744140625,10.118521874999999L58.2018744140625,10.118521874999999L58.2018744140625,8.842671875L64.6860744140625,8.842671875L64.6860744140625,10.116761875L62.061274414062495,10.116761875C62.215374414062495,10.197161874999999,62.3702744140625,10.356201875,62.5243744140625,10.435721874999999L61.3669744140625,11.153161875C61.7521744140625,11.391721875,61.907174414062496,11.550771874999999,61.9841744140625,11.710691875L62.215374414062495,12.028771875C63.0645744140625,11.391721875,63.5277744140625,10.993241874999999,63.6827744140625,10.834201875L64.22297441406249,10.276681875000001C64.2999744140625,10.435721874999999,64.4540744140625,10.515241875000001,64.5311744140625,10.675161875C64.6090744140625,10.754681875,64.9172744140625,10.993241874999999,65.3016744140625,11.312201875C64.8384744140625,11.631171875,64.37537441406249,11.949251875,63.989174414062504,12.268211875C64.0662744140625,12.506771875,64.2211744140625,12.825731874999999,64.37537441406249,13.303741875C64.52947441406249,13.781741875,64.8384744140625,14.180221875,65.3016744140625,14.658231875C65.7419744140625,15.049941875,66.2362744140625,15.372101875,66.7681744140625,15.614271875C66.6140744140625,15.852771875,66.4590744140625,16.012671875000002,66.3820744140625,16.171771874999997C66.2279744140625,16.330771875,66.0738744140625,16.570271875,65.8418744140625,16.888271875C65.28767441406251,16.518571875,64.7713744140625,16.091671875,64.30087441406249,15.614271875C63.991774414062505,15.295271875,63.7606744140625,14.896781875,63.5303744140625,14.499181875C63.3762744140625,14.021181875,63.1442744140625,13.543181875,62.9901744140625,12.908791875L62.604074414062495,13.148231875L62.604074414062495,13.702221875C62.6810744140625,13.861261875,62.6810744140625,14.180221875,62.6810744140625,14.658231875C62.6810744140625,15.136231875,62.604074414062495,15.534711875,62.604074414062495,15.852771875C62.5264744140625,16.158071874999997,62.3657744140625,16.434071875,62.140874414062495,16.647971875C61.9097744140625,16.886571875,61.370374414062496,16.966971875,60.5202744140625,17.046471875Q60.4046744140625,16.209771875,60.2882744140625,16.090471875L60.0570744140625,15.532951875C60.6743744140625,15.612471875,60.983374414062496,15.612471875,61.1374744140625,15.532951875C61.2915744140625,15.453431875,61.3694744140625,15.213981875,61.3694744140625,15.054941875C61.4233744140625,14.874431875,61.449374414062504,14.686281875,61.446574414062496,14.497421875L61.446574414062496,14.337501875C61.0604744140625,14.576941875,60.5202744140625,14.895021875,59.9800744140625,15.213981875C59.3619744140625,15.612471875,58.8987744140625,15.851071875,58.4390744140625,16.009171875L57.0495744140625,16.566671875C56.9374744140625,16.293571874999998,56.8087744140625,16.027971875,56.664274414062504,15.771471875L56.3492744140625,15.292621875C57.4019744140625,15.081241875,58.4174744140625,14.706171875,59.3610744140625,14.180221875ZM56.5821744140625,9.559231875L56.5821744140625,6.771621875L57.8174744140625,6.851141875L60.6734744140625,6.851141875C60.5964744140625,6.691221875,60.3644744140625,6.452657875,60.1332744140625,6.293617875C60.2715744140625,6.231589875,60.4013744140625,6.151087875,60.5193744140625,6.054174875C60.6734744140625,5.974654875,60.905474414062496,5.815614875,61.289874414062496,5.576171875C61.753074414062496,6.054174875,62.139174414062495,6.371370875,62.3711744140625,6.611701875C62.254774414062496,6.671251875,62.1499744140625,6.752421875,62.0620744140625,6.851141875L65.1500744140625,6.851141875L66.3075744140625,6.771621875L66.3075744140625,9.637871875L64.9172744140625,9.637871875L64.9942744140625,8.921311875L64.9942744140625,8.126111875L57.9741744140625,8.126111875L57.9741744140625,9.560121875L56.5821744140625,9.559231875ZM69.39467441406251,8.603231875L71.4784744140625,8.603231875L71.4784744140625,9.957721875L69.39467441406251,9.957721875L69.39467441406251,8.603231875ZM68.0822744140625,8.285151875L68.0822744140625,14.100701875L69.39467441406251,14.100701875L69.39467441406251,13.861261875L71.4784744140625,13.861261875L71.4784744140625,15.614271875C71.4784744140625,15.852771875,71.4784744140625,16.092271875,71.5555744140625,16.251271875C71.6354744140625,16.446571875,71.7698744140625,16.612971875,71.9416744140625,16.729271875000002C72.2398744140625,16.834171875,72.5528744140625,16.887871875000002,72.8679744140625,16.888271875C73.4095744140625,16.878571875,73.9511744140625,16.905471875,74.4894744140625,16.968771875L76.0304744140625,16.968771875C76.4165744140625,16.888271875,76.6476744140625,16.888271875,76.8009744140625,16.808771874999998C76.9738744140625,16.700771875,77.1299744140625,16.566371875,77.26407441406249,16.410271875C77.4190744140625,16.251271875,77.57317441406249,15.773271875,77.80517441406249,14.977191875C77.4190744140625,14.817271875,77.0346744140625,14.578711875,76.4927744140625,14.259741875L76.4156744140625,14.737751875C76.4156744140625,15.056711875,76.3377744140625,15.215751875,76.1836744140625,15.374791875C76.0100744140625,15.469381875,75.8294744140625,15.549451875,75.6434744140625,15.614271875L74.5664744140625,15.614271875L73.3310744140625,15.534711875C73.0999744140625,15.534711875,72.9449744140625,15.534711875,72.8679744140625,15.455191875C72.8679744140625,15.374791875,72.7908744140625,15.215751875,72.7908744140625,15.136231875L72.7908744140625,13.861261875L75.1880744140625,13.861261875L75.1880744140625,14.100701875L76.5004744140625,14.100701875L76.5004744140625,7.252271875L72.7908744140625,7.252271875L72.7908744140625,5.661876375L71.4784744140625,5.661876375L71.4784744140625,7.252271875L68.0822744140625,7.252271875L68.0822744140625,8.285151875ZM69.39467441406251,11.232691875L71.4784744140625,11.232691875L71.4784744140625,12.587171875L69.39467441406251,12.587171875L69.39467441406251,11.232691875ZM72.7908744140625,8.603231875L75.1879744140625,8.603231875L75.1879744140625,9.957721875L72.7908744140625,9.957721875L72.7908744140625,8.603231875ZM72.7908744140625,11.232681875L75.1879744140625,11.232681875L75.1879744140625,12.587171875L72.7908744140625,12.587171875L72.7908744140625,11.232681875ZM80.5874744140625,9.637871875L80.8956744140625,10.036351875000001C80.9727744140625,10.196271875,81.2047744140625,10.593871875,81.66617441406251,11.311321875C81.5112744140625,11.789321874999999,81.3571744140625,12.187811875000001,81.2030744140625,12.426371875000001C81.0489744140625,12.745331875,80.8169744140625,12.983891875000001,80.5857744140625,13.302851875L80.5874744140625,9.637871875ZM80.6645744140625,16.489871875L80.5874744140625,14.976301875L80.5874744140625,13.462771875C80.8956744140625,13.781741875,81.0506744140625,14.021181875,81.2047744140625,14.100701875C81.2644744140625,14.243451875,81.3421744140625,14.377431875,81.43587441406251,14.499181875C81.82197441406251,13.940781875,82.05397441406251,13.543181875,82.20637441406251,13.383261874999999C82.2692744140625,13.191491875,82.3465744140625,13.005091875,82.43757441406251,12.825731874999999L82.59247441406251,13.144701874999999C82.59247441406251,13.224221875,82.66957441406251,13.383261874999999,82.66957441406251,13.622701875L82.9785744140625,13.383251875C83.1326744140625,13.224211875,83.36387441406251,13.065181875,83.82707441406251,12.825731874999999C83.51887441406251,12.188691875,83.20977441406251,11.710691875,82.9785744140625,11.153161875L83.05567441406251,10.754681875Q83.17127441406251,10.515241875000001,83.2867744140625,9.798671875C83.67297441406251,10.276681875000001,83.8269744140625,10.593871875,83.9819744140625,10.675161875C84.05907441406251,10.834201875,84.2130744140625,11.153161875,84.3680744140625,11.550761875L84.21317441406251,12.109171875000001C84.1360744140625,12.427251875,83.9819744140625,12.746211875,83.7499744140625,13.144691875C83.51887441406251,13.462771875,83.2867744140625,13.861261875,82.90067441406251,14.180221875C83.2867744140625,14.418781875,83.5187744140625,14.578701875,83.59587441406251,14.737741875C83.7424744140625,14.818741875,83.87327441406251,14.926861875,83.9819744140625,15.056711875C84.16697441406251,14.869721875,84.32317441406249,14.654581875,84.4451744140625,14.418781875C84.5992744140625,14.180221875,84.8312744140625,13.781741875,85.2156744140625,13.065181875L85.5246744140625,13.702221875C85.5246744140625,13.781741875,85.6017744140625,13.940781875,85.7566744140625,14.259741875C86.0510744140625,13.899041875,86.38817441406249,13.577861875,86.7600744140625,13.303731875L86.5280744140625,12.905251875000001C86.5280744140625,12.825731874999999,86.2968744140625,12.347731875000001,85.7575744140625,11.391721875L85.9116744140625,10.675161875C86.00607441406251,10.310881875,86.0577744140625,9.936231875,86.0657744140625,9.559231875L86.2206744140625,8.842671875L86.2206744140625,8.444191875C85.8345744140625,8.444191875,85.3714744140625,8.364671874999999,84.9082744140625,8.285151875L84.9082744140625,8.603231875C84.9082744140625,8.842671875,84.8312744140625,9.241151875,84.7533744140625,9.798681875C84.5992744140625,9.559231875,84.4451744140625,9.241151875,84.2901744140625,9.081231875L84.05907441406251,9.241151875C83.90497441406251,9.400191875,83.6728744140625,9.559231875,83.28857441406251,9.719151875L83.4434744140625,9.081231875C83.4555744140625,8.972181875,83.48147441406249,8.865241875,83.52057441406251,8.763151875C83.5082744140625,8.599721875,83.5347744140625,8.435681875,83.5975744140625,8.285151875C83.1239744140625,8.297751875,82.6523744140625,8.217081875,82.20807441406251,8.047471875L82.20807441406251,8.525471875000001C82.20807441406251,8.764921875,82.20807441406251,8.923961875,82.13107441406251,9.083001875C82.1435744140625,9.298721875,82.11737441406251,9.514971875,82.05397441406251,9.720921875C81.8454744140625,9.420151875,81.66437441406251,9.100121875,81.5129744140625,8.764921875C81.2047744140625,9.083001875,81.0506744140625,9.163401875,80.8956744140625,9.242921875C80.82137441406249,9.341151875,80.7081744140625,9.399571875,80.5874744140625,9.401961875L80.5874744140625,7.811561875000001L86.7625744140625,7.811561875000001L86.7625744140625,14.821681875C86.7625744140625,14.901201875,86.7625744140625,15.061121875,86.6855744140625,15.140641875C86.6855744140625,15.220171875,86.4535744140625,15.220171875,86.2223744140625,15.220171875C85.98807441406251,15.233181875,85.7531744140625,15.206311875,85.5272744140625,15.140641875L85.6813744140625,15.539131875C85.8362744140625,15.936771875,85.9133744140625,16.176171875,85.9133744140625,16.334371875000002C85.9133744140625,16.573771875,85.9903744140625,16.732771874999997,85.9903744140625,16.812371875C86.4836744140625,16.764771875,86.97347441406251,16.685071875,87.4568744140625,16.573771875C87.7659744140625,16.413871874999998,87.9971744140625,16.254771875,87.9971744140625,16.095771875C88.06077441406251,15.862571875,88.0867744140625,15.620171875,88.0741744140625,15.378321875L88.0741744140625,7.807141875L88.1520744140625,6.373137875L86.8422744140625,6.457074875L80.5069744140625,6.457074875L79.1954744140625,6.3775548749999995L79.1954744140625,16.490671875L80.6645744140625,16.489871875ZM90.5449744140625,11.949251875C90.3156744140625,11.583161875,90.0579744140625,11.236851875,89.7744744140625,10.913721875L89.5432744140625,10.675161875C89.9285744140625,10.515241875000001,90.39167441406249,10.116761875,90.8548744140625,9.719161875000001C91.31797441406249,9.241151875,91.70417441406249,8.683631875,92.0901744140625,8.205631875C92.47637441406249,7.647221875,92.7074744140625,7.089701875,92.9394744140625,6.532178875L93.01657441406249,6.213214875C93.4648744140625,6.458807875,93.9290744140625,6.671961875,94.4059744140625,6.851141875C94.0198744140625,7.646341875,93.6354744140625,8.205631875,93.3255744140625,8.763151875C93.0935744140625,9.241151875,92.63047441406249,9.798681875,92.09027441406249,10.435721874999999C91.5500744140625,10.993241874999999,91.08687441406249,11.550771874999999,90.5492744140625,11.949251875L90.5449744140625,11.949251875ZM91.55087441406249,14.259741875C91.7733744140625,14.036861875,91.9796744140625,13.797351875,92.16817441406249,13.543181875C92.4699744140625,13.214591875,92.7535744140625,12.868561875000001,93.0173744140625,12.506771875C93.2485744140625,12.109171875000001,93.4805744140625,11.711571875,93.7116744140625,11.232691875C93.9428744140625,10.753801875,94.0207744140625,10.437491875,94.0977744140625,10.276681875000001L94.1748744140625,10.037241875C94.6379744140625,10.356201875,95.1011744140625,10.675161875,95.6422744140625,10.913721875C95.5296744140625,11.086251875,95.4002744140625,11.246421875,95.25607441406251,11.391721875L94.7158744140625,12.268211875C94.4773744140625,12.653021875,94.2202744140625,13.025171875,93.9453744140625,13.383261874999999C93.5814744140625,13.829131875,93.1947744140625,14.254721875,92.7870744140625,14.658231875C94.1765744140625,14.658231875,95.5660744140625,14.578711875,96.87847441406251,14.499181875C96.57027441406251,14.021181875,96.3382744140625,13.622701875,96.26117441406251,13.462781875000001L95.7980744140625,12.905251875000001C96.3382744140625,12.666691875,96.64727441406251,12.506771875,96.80137441406251,12.347731875000001L97.03257441406251,12.188691875Q98.5392744140625,14.340151875,99.3440744140625,15.773271875L98.4177744140625,16.490671875L98.10957441406251,16.808771874999998C98.0324744140625,16.649771875,97.9545744140625,16.490671875,97.9545744140625,16.410271875C97.87757441406251,16.251271875,97.72347441406251,16.012671875000002,97.56937441406251,15.693771875C96.87417441406251,15.693771875,95.87077441406251,15.773271875,94.6354744140625,15.932271875Q92.7836744140625,16.052471875000002,92.32397441406249,16.171771874999997C92.01577441406249,16.171771874999997,91.70667441406249,16.251271875,91.32057441406249,16.330771875C91.2213744140625,15.948971875,91.0922744140625,15.576011875,90.93447441406249,15.215751875L90.70327441406249,14.817261875C91.08937441406249,14.578701875,91.39757441406249,14.418781875,91.55257441406249,14.259741875L91.55087441406249,14.259741875ZM95.3331744140625,5.974654875C95.7963744140625,6.054174875,96.25947441406251,6.054174875,96.79967441406251,6.054174875L96.79967441406251,6.532177875C96.7874744140625,6.6956018749999995,96.8139744140625,6.859631875,96.87677441406251,7.010181875C96.87677441406251,7.249621875,96.95377441406251,7.567701875,97.10877441406251,8.045711875C97.3398744140625,8.523711875,97.5718744140625,8.922191875,97.87927441406251,9.241151875C98.1865744140625,9.560121875,98.4194744140625,9.798681875,98.6497744140625,9.957721875C98.8223744140625,10.076931875,99.00287441406249,10.183511875,99.1899744140625,10.276681875000001C99.4577744140625,10.421931875,99.74347441406249,10.528931875,100.0391744140625,10.594761875C99.9611744140625,10.746311875,99.8563744140625,10.881461875,99.7301744140625,10.993241874999999C99.6530744140625,11.153161875,99.4989744140625,11.550771874999999,99.1899744140625,12.109171875000001C98.6497744140625,11.869731875,98.10957441406251,11.471241875,97.64897441406251,11.072761875000001C97.2249744140625,10.710621875000001,96.8601744140625,10.280431875,96.56857441406251,9.798681875C96.2790744140625,9.410091874999999,96.0449744140625,8.980751875,95.87337441406251,8.523711875C95.7192744140625,8.125221875,95.6422744140625,7.728511875000001,95.5643744140625,7.488181875C95.4565744140625,6.989171875,95.3793744140625,6.483667875,95.3331744140625,5.974654875ZM103.5124744140625,13.702221875L103.5124744140625,12.188691875L106.36847441406249,12.188691875L106.36847441406249,13.702221875L103.5124744140625,13.702221875ZM107.1406744140625,8.683631875L101.2745744140625,8.683631875L101.2745744140625,10.037241875L108.4530744140625,10.037241875L108.4530744140625,8.683631875L107.1406744140625,8.683631875ZM102.9722744140625,7.567701875L109.2218744140625,7.567701875L109.2218744140625,14.817271875C109.2218744140625,15.056711875,109.2218744140625,15.215751875,109.1448744140625,15.295271875C109.0677744140625,15.374791875,108.9907744140625,15.374791875,108.7586744140625,15.374791875L107.7553744140625,15.374791875L107.9873744140625,15.773271875C108.0643744140625,16.012671875000002,108.1414744140625,16.251271875,108.1414744140625,16.410271875C108.1997744140625,16.590071875,108.2258744140625,16.779271875,108.2184744140625,16.968671875C109.1448744140625,16.888271875,109.6850744140625,16.808771874999998,109.9940744140625,16.649771875C110.1614744140625,16.533871875000003,110.3166744140625,16.400371874999998,110.4572744140625,16.251271875C110.5342744140625,16.092271875,110.5342744140625,15.852771875,110.5342744140625,15.534711875L110.5342744140625,7.488181875L110.6113744140625,6.213214875L109.3768744140625,6.293617875L102.9696744140625,6.293617875L101.5801744140625,6.213214875L101.5801744140625,7.647221875L102.9722744140625,7.567701875ZM102.2017744140625,11.869731875L102.2017744140625,15.056711875L107.7587744140625,15.056711875L107.6817744140625,13.940781875L107.6817744140625,11.869731875L107.7587744140625,10.834201875L102.2008744140625,10.834201875L102.2017744140625,11.869731875ZM50.9455044140625,19.356971875L51.1004644140625,18.798571875L51.8709644140625,18.798571875L52.6414644140625,21.587071875L51.7151444140625,21.906071875C51.4158344140625,21.360171875,51.0237644140625,20.874471874999998,50.5576844140625,20.471971875C50.1284644140625,20.160071875,49.6161244140625,19.993071875,49.0911644140625,19.993971875Q48.5115744140625,19.993971875,48.1648444140625,20.232571874999998C47.9235444140625,20.385671875,47.7771644140625,20.657671875,47.7787444140625,20.949971875C47.7787444140625,21.427971875,48.5492444140625,21.826471875,49.9395644140625,22.224071875C50.1715744140625,22.224071875,50.3256744140625,22.304471875,50.4027244140625,22.304471875C51.4839944140625,22.622571875,52.1783044140625,22.941571875,52.5644044140625,23.340071875C52.9710844140625,23.826371875,53.1907144140625,24.449771875,53.1816644140625,25.092071875Q53.1816644140625,26.645371875,52.2553544140625,27.482171875C51.7151444140625,28.120071875,50.8658844140625,28.358571875,49.9438544140625,28.358571875C49.4806944140625,28.358571875,49.0954444140625,28.358571875,48.709334414062496,28.199571875C48.2902344140625,28.139971875,47.8913444140625,27.976571875,47.5467344140625,27.723371875L47.3926344140625,28.280871875L46.6221344140625,28.280871875L45.6187744140625,24.855371875L46.5450884140625,24.456871875C46.9311944140625,25.333371875,47.3943544140625,25.970371875,48.011604414062504,26.368871875C48.5518144140625,26.846871875,49.0928744140625,27.085371875,49.7101344140625,27.085371875C50.1278644140625,27.089071875,50.5350744140625,26.950271875,50.8684544140625,26.690471875C51.1264744140625,26.516471875,51.2739444140625,26.212771875,51.2545644140625,25.895271875C51.2545644140625,25.337771875,50.6373044140625,24.939271875,49.4019344140625,24.620271875C49.2811744140625,24.562571875,49.1488244140625,24.535271875,49.0158344140625,24.540771875C48.5158744140625,24.415371875,48.0249944140625,24.254171875,47.5467444140625,24.058371875C47.2385444140625,23.899271875,46.9294844140625,23.819771875,46.8524344140625,23.740271875C46.4971134140625,23.522071875,46.2251254140625,23.184571875,46.0819354140625,22.784271875C45.9242504140625,22.435071875,45.8452244140625,22.053571875,45.8507844140625,21.668371875C45.8359534140625,20.861771875000002,46.1426734140625,20.084271875,46.6991944140625,19.517771875C47.3087044140625,18.939771874999998,48.1103144140625,18.625971874999998,48.9379244140625,18.641271875C49.2779644140625,18.654971875,49.6154244140625,18.708371874999997,49.9438544140625,18.800371875C50.2529044140625,18.960271875,50.6390144140625,19.119271875000003,50.9472144140625,19.358771875000002L50.9455044140625,19.356971875ZM53.647394414062504,20.632871875L59.4372744140625,20.632871875L60.2077744140625,22.943271875L59.5134744140625,23.262271875C59.2814744140625,22.624371875,58.9732744140625,22.225871875,58.6641744140625,21.987271875C58.3551744140625,21.748771875,58.046974414062504,21.668371875,57.5837744140625,21.668371875L57.4288744140625,21.668371875L57.4288744140625,25.895271875C57.4288744140625,26.452771875,57.505874414062504,26.851271875,57.6608744140625,27.010271875C57.7378744140625,27.170271875,57.969074414062504,27.249771875,58.2780744140625,27.249771875L58.2780744140625,28.201371875L54.8057144140625,28.201371875L54.8057144140625,27.245371875C55.1139144140625,27.245371875,55.3459144140625,27.165871875,55.5000244140625,27.005871875C55.5770644140625,26.846871875,55.6549744140625,26.448371875,55.6549744140625,25.890871875L55.6549744140625,21.668371875L55.5770744140625,21.668371875C55.1139144140625,21.668371875,54.7286644140625,21.748771875,54.4196044140625,21.987271875C54.1105544140625,22.225871875,53.8023544140625,22.624371875,53.570344414062504,23.262271875L52.8760444140625,22.943271875M63.2991744140625,24.536371875L61.907174414062496,24.536371875L62.6014744140625,22.385771875L63.2991744140625,24.536371875ZM60.2086744140625,25.970371875C60.202974414062496,26.031471875,60.1755744140625,26.088171875,60.1315744140625,26.129371875C59.8995744140625,26.767371875,59.5142744140625,27.165871875,59.0511744140625,27.245371875L59.0511744140625,28.201371875L61.9841744140625,28.201371875L61.9841744140625,27.245371875C61.6751744140625,27.245371875,61.4439744140625,27.245371875,61.3669744140625,27.165871875C61.211974414062496,27.085371875,61.211974414062496,26.926371875,61.211974414062496,26.767371875L61.211974414062496,26.527871875L61.5210744140625,25.492371875L63.604774414062504,25.492371875L63.9909744140625,26.527871875C64.0340744140625,26.571471875,64.0617744140625,26.628671875,64.0696744140625,26.690471875L64.0696744140625,26.849471875C64.0672744140625,26.974271875,64.01067441406249,27.091371875,63.915574414062505,27.168471875C63.8385744140625,27.247971875,63.6065744140625,27.247971875,63.3753744140625,27.247971875L63.2991744140625,27.247971875L63.2991744140625,28.201371875L66.6953744140625,28.201371875L66.6953744140625,27.245371875C66.3092744140625,27.245371875,66.0002744140625,26.846871875,65.7690744140625,26.289371875L65.7690744140625,26.209771875L63.839374414062505,20.632771875L62.215374414062495,20.632771875L60.2086744140625,25.970371875ZM66.3066744140625,20.632871875L72.0186744140625,20.632871875L72.8679744140625,22.943271875L72.1736744140625,23.262271875C71.9416744140625,22.624371875,71.6334744140625,22.225871875,71.3243744140625,21.987271875C71.0153744140625,21.748771875,70.62927441406251,21.668371875,70.1660744140625,21.668371875L70.0889744140625,21.668371875L70.0889744140625,25.895271875C70.0889744140625,26.452771875,70.1660744140625,26.851271875,70.2439744140625,27.010271875C70.3980744140625,27.170271875,70.5521744140625,27.249771875,70.9382744140625,27.249771875L70.9382744140625,28.201371875L67.4650744140625,28.201371875L67.4650744140625,27.245371875C67.7732744140625,27.245371875,68.0052744140625,27.165871875,68.0822744140625,27.005871875C68.2363744140625,26.846871875,68.3134744140625,26.448371875,68.3134744140625,25.890871875L68.3134744140625,21.668371875L68.1593744140625,21.668371875C67.6961744140625,21.668371875,67.3100744140625,21.748771875,67.0018744140625,21.987271875C66.6539744140625,22.362271875,66.3671744140625,22.792771875,66.1525744140625,23.262271875L65.5353744140625,22.943271875" fill="#FFFFFF" fill-opacity="1"/></g><g><path d="M72.63677978515625,20.6327653515625L78.42580978515625,20.6327653515625L79.35211978515625,22.943265351562502L78.73486978515625,23.2622253515625C78.40415978515625,22.7610753515625,77.98507978515624,22.3285753515625,77.49949978515625,21.9872553515625C77.03634978515625,21.6682953515625,76.57318978515625,21.5887753515625,76.03297978515624,21.5887753515625C75.72391978515626,21.5887753515625,75.56982978515624,21.5887753515625,75.41486978515626,21.7486953515625C75.33781978515626,21.8282153515625,75.26076978515626,22.1462953515625,75.26076978515626,22.5438953515625L75.26076978515626,23.5803053515625L75.56982978515624,23.5803053515625C75.95593978515625,23.5803053515625,76.18708978515625,23.5007853515625,76.34033978515625,23.3417453515625C76.41823978515625,23.2622253515625,76.49528978515625,22.943265351562502,76.57233978515625,22.4652653515625L77.26663978515624,22.4652653515625L77.26663978515624,25.8112853515625L76.57233978515625,25.8112853515625C76.49528978515625,25.4127953515625,76.41823978515625,25.0938353515625,76.26327978515624,24.8552753515625C76.08287978515625,24.6568353515625,75.83257978515626,24.5418453515625,75.56897978515624,24.5363153515625L75.25991978515626,24.5363153515625L75.25991978515626,26.289285351562498C75.25991978515626,26.7672853515625,75.33696978515626,27.0058453515625,75.41401978515626,27.0844853515625C75.56896978515626,27.2444053515625,75.72307978515624,27.2444053515625,76.03212978515624,27.2444053515625C76.60368978515625,27.235105351562503,77.16273978515625,27.0702153515625,77.65273978515626,26.7664053515625C78.18479978515624,26.3278253515625,78.63032978515625,25.7879253515625,78.96516978515625,25.1760053515625L79.58241978515625,25.5736053515625L78.57990978515625,28.2012953515625L72.63678710571625,28.2012953515625L72.63678710571625,27.2452953515625C72.94498978515625,27.2452953515625,73.17699278515624,27.165775351562502,73.33109078515625,27.0058453515625C73.40813978515625,26.8468053515625,73.48518878515625,26.4483253515625,73.48518878515625,25.8908053515625L73.48518878515625,22.943265351562502C73.48518878515625,22.3857453515625,73.40813978515625,21.9872553515625,73.33109078515625,21.8282153515625C73.17699278515624,21.6682953515625,72.94498278515626,21.5887753515625,72.63678710571625,21.5887753515625M89.61857978515624,19.1987613515625L89.84977978515624,18.8002783515625L90.62027978515624,18.8002783515625L91.46947978515625,21.9077353515625L90.46617978515624,22.3857453515625C90.00297978515624,21.5092553515625,89.61687978515624,20.8722153515625,89.23077978515624,20.5532553515625C88.76767978515625,20.1547653515625,88.30447978515625,19.9162053515625,87.76427978515625,19.9162053515625C87.14697978515625,19.9162053515625,86.60597978515625,20.2342853515625,86.29777978515625,20.8722153515625C85.91167978515625,21.5092553515625,85.75757978515625,22.3857453515625,85.75757978515625,23.5007853515625C85.75757978515625,24.6158353515625,85.91167978515625,25.4923153515625,86.22067978515625,26.129355351562502C86.60597978515625,26.6877653515625,87.06907978515625,27.0058453515625,87.76167978515625,27.0058453515625C88.30187978515625,27.0058453515625,88.68797978515624,26.8468053515625,88.99617978515624,26.5278453515625C89.30527978515624,26.289285351562498,89.45937978515624,25.8908053515625,89.45937978515624,25.4127953515625Q89.45937978515624,24.9339053515625,89.22827978515625,24.6962353515625C89.07417978515625,24.5363153515625,88.84207978515624,24.4567853515625,88.45777978515625,24.4567853515625L88.45777978515625,23.3417453515625L92.39587978515625,23.3417453515625L92.39587978515625,24.4567853515625C92.10557978515625,24.5053253515625,91.83677978515625,24.644375351562502,91.62537978515626,24.8552753515625C91.54827978515625,25.0143153515625,91.47127978515624,25.3332753515625,91.47127978515624,25.8112753515625L91.47127978515624,28.280815351562502L90.15877978515624,28.280815351562502L89.84977978515624,27.5633653515625C89.46367978515624,27.8823253515625,89.07927978515625,28.0413753515625,88.61527978515625,28.2012953515625C88.19587978515625,28.3641153515625,87.75087978515626,28.4450053515625,87.30277978515625,28.4398553515625C86.14447978515625,28.4398553515625,85.21817978515625,27.961845351562502,84.44687978515626,27.0853653515625C83.75167978515626,26.129355351562502,83.44347978515626,24.9347953515625,83.44347978515626,23.4212653515625C83.44347978515626,22.066775351562498,83.82867978515625,20.8722053515625,84.60097978515626,19.9957253515625C85.45017978515625,19.1192373515625,86.45357978515625,18.6412334627625,87.76857978515625,18.6412353515625C88.08237978515625,18.6554316515625,88.39347978515625,18.7088337515625,88.69487978515625,18.8002743515625C89.00307978515625,18.8806773515625,89.31207978515624,18.9601973515625,89.62117978515624,19.1987573515625L89.61857978515624,19.1987613515625Z" fill="#FFFFFF" fill-opacity="1"/></g><g><path d="M94.86736319335938,22.544858046875C94.86736319335938,22.146378046875,94.94441319335938,21.907818046875,95.09850319335938,21.749658046875C95.17641319335938,21.669258046875,95.40756319335938,21.589733046875,95.71661319335938,21.589733046875C96.17977319335938,21.589733046875,96.56588319335937,21.669258046875,96.79703319335937,21.908698046875C97.08612319335937,22.060458046875,97.26594319335938,22.369198046875,97.26018319335938,22.703898046875C97.26018319335938,23.102378046875,97.10608319335938,23.421338046875,96.71998319335937,23.659898046875C96.41092319335938,23.819828046875,95.94947319335938,23.899348046875,95.25346319335938,23.899348046875L94.86735319335938,23.899348046875L94.86736319335938,22.544858046875ZM92.24252319335938,21.588851046875C92.55158219335938,21.588851046875,92.78272919335937,21.668368046875,92.93768319335938,21.828298046875C93.01473219335938,21.987338046875,93.09178119335938,22.385818046875,93.09178119335938,22.943338046875L93.09178119335938,25.895298046875C93.09178119335938,26.452818046875,93.01473219335938,26.851298046875,92.93768319335938,27.010348046875002C92.78272919335937,27.170268046875,92.55157519335937,27.249788046875,92.24252319335938,27.249788046875L92.24252319335938,28.201378046875L95.71662319335937,28.201378046875L95.71662319335937,27.245368046875C95.40756319335938,27.245368046875,95.17642319335937,27.165848046875,95.09851319335938,27.005928046875C94.94441319335938,26.846888046875,94.86736319335938,26.448398046875,94.86736319335938,25.890878046875L94.86736319335938,24.934878046875L95.56167319335937,24.934878046875L97.80040319335937,28.204028046875L100.03912319335937,28.204028046875L100.03912319335937,27.245368046875C99.82439319335937,27.240238046875,99.61349319335937,27.185598046875,99.42187319335937,27.085448046875C99.18987319335938,27.005928046875,99.03576319335937,26.846888046875,98.88081319335937,26.607438046875L97.49134319335937,24.696318046875C97.95707319335938,24.573388046875,98.38318319335937,24.325928046875,98.72670319335937,23.978868046875C98.98018319335938,23.605368046875,99.11508319335937,23.159888046875,99.11281319335937,22.703898046875C99.11281319335937,21.987338046875,98.88081319335937,21.509334046875,98.34231319335937,21.113501046875Q97.64800319335937,20.636382006875,96.25853319335937,20.635498046875L92.24422888335937,20.635498046875L92.24252319335938,21.588851046875Z" fill="#FFFFFF" fill-opacity="1"/></g><g><path d="M99.730126171875,20.6328125L103.27962617187501,20.6328125L103.27962617187501,21.5888175C102.97052617187501,21.5888175,102.739326171875,21.6683425,102.58442617187501,21.8282625C102.50732617187501,21.9873025,102.43032617187501,22.3857825,102.43032617187501,22.9433025L102.43032617187501,25.8952625C102.43032617187501,26.452782499999998,102.50732617187501,26.8512725,102.58442617187501,27.0103125C102.739326171875,27.1702325,102.97052617187501,27.2497525,103.27962617187501,27.2497525L103.27962617187501,28.2013425L99.728426171875,28.2013425L99.728426171875,27.2453325Q100.307126171875,27.2453325,100.423626171875,27.0058925C100.577726171875,26.8468525,100.577726171875,26.448372499999998,100.577726171875,25.890842499999998L100.577726171875,22.9433125C100.577726171875,22.3857825,100.577726171875,21.9873025,100.423626171875,21.8282625Q100.308026171875,21.5879355,99.728426171875,21.5888195M106.214326171875,22.5448225C106.214326171875,22.0668225,106.214326171875,21.8282625,106.368426171875,21.7496225C106.445426171875,21.5897015,106.677526171875,21.5897015,106.986526171875,21.5897015C107.57932617187501,21.5736635,108.146826171875,21.8378625,108.527526171875,22.3071425C108.913626171875,22.8646725,109.144826171875,23.5017125,109.144826171875,24.3782025C109.144826171875,25.3342025,108.913626171875,25.9685925,108.527526171875,26.5287725C108.146826171875,26.9980525,107.57932617187501,27.2622525,106.986526171875,27.2462125C106.677426171875,27.2462125,106.445426171875,27.2462125,106.368426171875,27.0862925C106.214326171875,27.0067725,106.214326171875,26.7682125,106.214326171875,26.2910925L106.214326171875,22.5448225ZM103.58952617187501,21.5888175C103.898526171875,21.5888175,104.130526171875,21.6683425,104.207626171875,21.8282625C104.361726171875,21.9873025,104.361726171875,22.3062625,104.361726171875,22.9433025L104.361726171875,25.8952625C104.361726171875,26.452782499999998,104.361726171875,26.8512725,104.207626171875,27.0103125C104.130526171875,27.1702325,103.898526171875,27.2497525,103.58952617187501,27.2497525L103.58952617187501,28.2013425L106.986526171875,28.2013425Q108.955626171875,28.2013425,109.996626171875,27.2453325C110.691826171875,26.6074125,111.000026171875,25.6549425,111.000026171875,24.3773225C111.000026171875,23.1818725,110.691826171875,22.2258625,109.996626171875,21.5888215C109.301426171875,20.9517785,108.298126171875,20.63281627761,106.986526171875,20.63281627761L103.58952617187501,20.63281627761L103.58952617187501,21.5888175ZM48.552636171875,30.6709125L48.707596171875,30.351912499999997L48.861696171874996,30.351912499999997L49.093706171875,31.6269125L48.938746171875,31.6269125C48.818386171875,31.3019125,48.602566171875,31.0238125,48.321496171875,30.831712500000002C48.121946171875,30.6146825,47.840496171875,30.498492499999998,47.550996171875,30.513602499999998C47.202756171875,30.5110225,46.868446171875,30.6545125,46.624676171875,30.911212499999998C46.316481171875,31.2301125,46.238572171875,31.5491125,46.238572171875,32.0271125C46.238572171875,32.505112499999996,46.316477171875,32.9027125,46.624676171875,33.1422125C46.856686171875,33.4611125,47.164886171875,33.5406125,47.550996171875,33.5406125C47.860046171875,33.5406125,48.169106171875,33.5406125,48.400256171875,33.3807125C48.631406171875,33.2208125,48.863416171875,33.0626125,49.017506171875,32.8232125L49.249516171875,32.9027125C49.017506171875,33.2217125,48.786356171875,33.4611125,48.479016171875,33.6202125C48.179116171875,33.7182125,47.867216171875,33.771812499999996,47.552706171875,33.7792125C47.318606171875,33.7921125,47.084056171875,33.7653125,46.858396171875,33.699712500000004C46.637936171875,33.6262125,46.429536171875,33.5186125,46.240285171875,33.3807125C46.086183171875,33.2217125,45.855033171875,33.0626125,45.777128171875,32.8232125C45.623026741875,32.5846125,45.623026741875,32.3452125,45.623026741875,32.0280125C45.604289771875,31.5626125,45.805729171875,31.1168125,46.163232171875,30.8326125C46.472288171875,30.5144925,46.933736171875,30.3545625,47.475646171875,30.3545625C47.707656171875,30.3545625,47.861756171875,30.3545625,48.015856171875,30.434082500000002C48.221216171875,30.428372500000002,48.418676171875,30.5158925,48.556066171875,30.6735125L48.552636171875,30.6709125ZM52.412846171875,30.9898125C52.643996171875,31.228412499999997,52.721046171875,31.6269125,52.721046171875,32.0253125C52.721046171875,32.503412499999996,52.643996171875,32.900912500000004,52.412846171875,33.1404125C52.103796171875,33.4594125,51.794736171875,33.5389125,51.408626171875,33.5389125C51.022526171875,33.5389125,50.638126171875,33.4594125,50.405266171875,33.1404125C50.174116171875,32.900912500000004,50.097066171875,32.503412499999996,50.097066171875,32.0253125C50.097066171875,31.6269125,50.174116171875,31.2301125,50.405266171875,30.9898125C50.637276171875,30.6709125,51.023376171875,30.5913525,51.408626171875,30.5913525C51.793886171875,30.5913525,52.103796171875,30.6709125,52.412846171875,30.9898125ZM50.015736171875,30.8299125C49.629626171875,31.1489125,49.474676171875004,31.5473125,49.474676171875004,32.1049125C49.456136171875,32.5702125,49.657936171875,33.0157125,50.015736171875,33.2994125C50.323936171875,33.6184125,50.864146171875,33.7774125,51.404356171875,33.7774125C51.907436171875,33.7908125,52.399126171875,33.6216125,52.793826171875,33.2994125C53.151626171875,33.0157125,53.353426171875,32.5702125,53.334886171875,32.1049125C53.334886171875,31.5473125,53.179926171874996,31.1489125,52.793826171875,30.8299125C51.971086171875,30.1915425,50.838476171875,30.1915425,50.015736171875,30.8299125Z" fill="#FFFFFF" fill-opacity="1"/></g><g><path d="M54.342562880859376,31.9449062890625L55.50003288085937,31.9449062890625C55.57708288085937,31.9449062890625,55.65498288085938,31.8653862890625,55.73203288085938,31.8653862890625C55.84799288085937,31.8058962890625,55.95243288085938,31.7250562890625,56.04023288085938,31.6268262890625C56.04023288085938,31.5473062890625,56.118142880859374,31.3873862890625,56.118142880859374,31.3078642890625C56.123562880859375,31.0959402890625,56.03878288085937,30.8922012890625,55.88613288085938,30.750342289062502C55.61477288085938,30.6444672890625,55.32697288085937,30.5905722890625,55.03687288085938,30.5913032890625C54.72867288085938,30.5913032890625,54.573712880859375,30.5913032890625,54.496662880859375,30.6708232890625C54.38589288085937,30.7701232890625,54.32848488085938,30.9185762890625,54.342562880859376,31.0693062890625L54.342562880859376,31.9449062890625ZM53.339202880859375,30.3545073590625L55.11392288085938,30.3545073590625C55.65498288085938,30.3545073590625,56.04023288085938,30.4340278890625,56.27224288085937,30.5939512890625C56.504252880859376,30.7538742890625,56.658352880859375,30.9120312890625,56.658352880859375,31.2309932890625C56.663882880859376,31.4429362890625,56.579082880859374,31.6467262890625,56.42634288085937,31.7885162890625C56.27224288085937,31.9475562890625,56.04023288085938,32.0279562890625,55.73203288085938,32.1074762890625L56.42634288085937,33.0634862890625C56.510072880859376,33.2110962890625,56.614182880859374,33.3453362890625,56.735402880859375,33.4619662890625C56.854002880859376,33.5262762890625,56.98807288085938,33.5538862890625,57.121502880859374,33.5414862890625L57.121502880859374,33.7005262890625L56.27224288085937,33.7005262890625L55.11392288085938,32.1869962890625L54.34342288085937,32.1869962890625L54.34342288085937,33.0634862890625C54.34342288085937,33.2225262890625,54.34342288085937,33.3815662890625,54.42047288085938,33.4619662890625C54.49752288085938,33.5423762890625,54.65162288085938,33.5414862890625,54.806582880859374,33.5414862890625L54.806582880859374,33.7005262890625L53.339206541139376,33.7005262890625L53.339206541139376,33.5414862890625C53.493307880859376,33.5414862890625,53.647405880859374,33.5414862890625,53.724457880859376,33.4619662890625C53.724457880859376,33.3815662890625,53.802363880859374,33.2225262890625,53.802363880859374,33.0634862890625L53.802363880859374,31.0693022890625C53.802363880859374,30.9093792890625,53.724457880859376,30.7503402890625,53.724457880859376,30.6708192890625C53.64740888085937,30.5912992890625,53.493307880859376,30.5912992890625,53.339206541139376,30.5117802890625L53.339202880859375,30.3545073590625ZM58.356012880859375,31.0693022890625C58.356012880859375,30.8298592890625,58.356012880859375,30.7503402890625,58.433062880859374,30.6708192890625C58.510112880859374,30.5912992890625,58.66507288085938,30.5912992890625,58.896222880859376,30.5912992890625C59.16002288085937,30.5980162890625,59.42071288085938,30.6518242890625,59.666722880859375,30.7503382890625C59.819142880859374,30.8922862890625,59.90362288085937,31.0960542890625,59.897872880859374,31.3078602890625C59.897872880859374,31.6268262890625,59.820822880859374,31.7858662890625,59.666722880859375,31.9449062890625C59.395542880859374,32.0515662890625,59.107652880859376,32.1057762890625,58.817462880859374,32.1048262890625L58.35430288085938,32.1048262890625L58.356012880859375,31.0693022890625ZM57.275602880859374,30.5117802890625C57.50675288085937,30.5913012890625,57.661712880859376,30.5913012890625,57.738762880859376,30.6708192890625C57.738762880859376,30.7503402890625,57.815812880859376,30.9093792890625,57.815812880859376,31.0693022890625L57.815812880859376,33.0608362890625C57.81277288085938,33.2085162890625,57.758032880859375,33.3500662890625,57.661712880859376,33.4593162890625C57.661712880859376,33.5388362890625,57.50675288085937,33.5388362890625,57.275602880859374,33.5388362890625L57.275602880859374,33.6978762890625L58.81660288085938,33.6978762890625L58.81660288085938,33.5388362890625C58.66250288085938,33.5388362890625,58.50840288085938,33.5388362890625,58.430492880859376,33.4593162890625C58.35258288085937,33.3797962890625,58.353442880859376,33.2198762890625,58.353442880859376,33.0608362890625L58.353442880859376,32.3451562890625L58.73955288085938,32.3451562890625C59.27976288085937,32.3451562890625,59.74291288085938,32.2656362890625,59.974922880859374,32.1065962890625Q60.43722288085937,31.8671462890625,60.438082880859376,31.3891462890625C60.43919288085937,31.0971642890625,60.29289288085938,30.8256562890625,60.051972880859374,30.6725852890625C59.81996288085938,30.4331420890625,59.434722880859375,30.3536233990625,58.97156288085937,30.3536233990625L57.275602880859374,30.3536233990625L57.275602880859374,30.5117802890625ZM63.527802880859376,30.9897822890625C63.77910288085938,31.2719282890625,63.917102880859375,31.6420862890625,63.913902880859375,32.0253062890625C63.913902880859375,32.5033062890625,63.759802880859375,32.9009062890625,63.527802880859376,33.1403562890625C63.29664288085937,33.4593162890625,62.98758288085938,33.5388362890625,62.601472880859376,33.5388362890625C62.138312880859374,33.5388362890625,61.83097288085938,33.4593162890625,61.598112880859375,33.1403562890625C61.366962880859376,32.9009062890625,61.21200288085937,32.5033062890625,61.21200288085937,32.0253062890625C61.20922288085937,31.6421662890625,61.34718288085938,31.2721622890625,61.598112880859375,30.9897822890625C61.830112880859375,30.6708192890625,62.138312880859374,30.5912992890625,62.601472880859376,30.5912992890625C62.98758288085938,30.5912992890625,63.29663288085938,30.6708192890625,63.527802880859376,30.9897822890625ZM61.13495288085937,30.8298592890625C60.825902880859374,31.1488212890625,60.594752880859374,31.5473062890625,60.594752880859374,32.1048262890625C60.594752880859374,32.5828262890625,60.825902880859374,32.9813062890625,61.13495288085937,33.2993962890625C61.521062880859375,33.6183562890625,61.98422288085938,33.7773962890625,62.601472880859376,33.7773962890625C63.104512880859374,33.7904562890625,63.59610288085938,33.6213362890625,63.99090288085937,33.2993962890625C64.34850288085937,33.0155762890625,64.55000288085938,32.5699862890625,64.53110288085938,32.1048262890625C64.53110288085938,31.5473062890625,64.37710288085938,31.1488212890625,63.99090288085937,30.8298572890625C63.59590288085938,30.5083112890625,63.104442880859374,30.3392438890625,62.601472880859376,30.3518535930625C61.98422288085938,30.3518535930625,61.521062880859375,30.5117762890625,61.13495288085937,30.8298592890625Z" fill="#FFFFFF" fill-opacity="1"/></g><g><path d="M65.53544948242188,31.069257640625C65.52136848242188,30.918530640625,65.57877948242188,30.770078640625,65.68953948242188,30.670774640625C65.76658948242188,30.591253640625,65.92068948242188,30.591253640625,66.22974948242188,30.591253640625C66.51984948242188,30.590600640625,66.80762948242187,30.644491640625,67.07901948242187,30.750293640625C67.23143948242188,30.892244640625,67.31591948242188,31.096010640625,67.31015948242188,31.307815640625C67.31015948242188,31.387336640625,67.31015948242188,31.547256640625,67.23310948242188,31.626776640625C67.14514948242187,31.725196640625,67.04037948242187,31.806056640625002,66.92404948242188,31.865336640625C66.84699948242188,31.865336640625,66.76995948242188,31.944856640625,66.69290948242187,31.944856640625L65.53544948242188,31.944856640625L65.53544948242188,31.069257640625ZM64.53122680298188,30.511735640624998C64.68618148242187,30.591255640625,64.84028648242187,30.591255640625,64.91733448242188,30.670774640625C64.99438348242188,30.750293640625,64.99438348242188,30.909334640625,64.99438348242188,31.069257640625L64.99438348242188,33.060786640625C64.99438348242188,33.219826640625,64.91733448242188,33.378866640625,64.91733448242188,33.459276640625C64.84028648242187,33.538796640625,64.68618848242187,33.538796640625,64.53122680298188,33.538796640625L64.53122680298188,33.697836640625L65.99774948242188,33.697836640625L65.99774948242188,33.538796640625C65.84364948242188,33.538796640625,65.68953948242188,33.538796640625,65.61249948242188,33.459276640625C65.53544948242188,33.379756640625,65.53544948242188,33.219826640625,65.53544948242188,33.060786640625L65.53544948242188,32.184306640625L66.30594948242188,32.184306640625L67.46426948242187,33.697836640625L68.31267948242187,33.697836640625L68.31267948242187,33.538796640625C68.17951948242188,33.551116640625,68.04574948242187,33.523506640625,67.92741948242187,33.459276640625C67.80595948242187,33.342866640625,67.70181948242187,33.208586640625,67.61835948242188,33.060786640625L66.92319948242188,32.104776640625C67.23225948242188,32.025266640625,67.46426948242187,31.944856640625,67.61835948242188,31.785816640625C67.77088948242188,31.643936640625,67.85538948242187,31.440126640625,67.84950948242188,31.228296640625C67.84950948242188,30.909334640625,67.77245948242188,30.750293640625,67.46425948242188,30.591253640625Q67.11667948242187,30.350926457625,66.30593948242188,30.351810418235L64.53121948242188,30.351810418235L64.53122680298188,30.511735640624998Z" fill="#FFFFFF" fill-opacity="1"/></g><g><path d="M70.31921920898438,32.2638280078125L69.16260920898438,32.2638280078125L69.70281920898438,30.8298220078125L70.31921920898438,32.2638280078125ZM68.39125120898437,33.2198380078125C68.31334620898437,33.2993580078125,68.23629720898437,33.3788780078125,68.15924820898438,33.4592780078125C68.08219920898438,33.5396880078125,67.92810190898437,33.5387980078125,67.85018920898438,33.5387980078125L67.85018920898438,33.6978380078125L69.23965920898438,33.6978380078125L69.23965920898438,33.6183180078125C69.08555920898438,33.5388080078125,68.93145920898438,33.5388080078125,68.85440920898438,33.4592780078125C68.77650320898438,33.4592780078125,68.77650320898438,33.3788780078125,68.77650320898438,33.2993580078125L68.77650320898438,33.0607980078125L69.00850920898438,32.5032780078125L70.39797920898438,32.5032780078125L70.70703920898437,33.1403180078125L70.70703920898437,33.3788780078125C70.70703920898437,33.4592780078125,70.70703920898437,33.4592780078125,70.62912920898438,33.5387980078125L70.31921920898438,33.5387980078125L70.31921920898438,33.6978380078125L71.78573920898438,33.6978380078125L71.78573920898438,33.5387980078125C71.63163920898438,33.5387980078125,71.55372920898438,33.5387980078125,71.47667920898438,33.4592780078125C71.39961920898438,33.3797580078125,71.32257920898438,33.2993580078125,71.32257920898438,33.2198380078125L70.08720920898438,30.3518205178125L69.62576920898438,30.3518205178125L68.39125120898437,33.2198380078125ZM71.32428920898437,31.2283050078125L71.55543920898438,31.3078250078125C71.71038920898438,31.0692660078125,71.78743920898438,30.9093430078125,72.01859920898437,30.7503030078125C72.18676920898437,30.6611180078125,72.37034920898438,30.6070720078125,72.55879920898437,30.5912640078125L72.71631920898437,30.5912640078125L72.71631920898437,33.0652180078125C72.71631920898437,33.2242580078125,72.71631920898437,33.3832980078125,72.63927920898438,33.463698007812496C72.56222920898438,33.5441080078125,72.40726920898437,33.5432180078125,72.25316920898437,33.5432180078125L72.25316920898437,33.7022580078125L73.71968920898438,33.7022580078125L73.71968920898438,33.5432180078125C73.56558920898438,33.5432180078125,73.41062920898437,33.5432180078125,73.41062920898437,33.463698007812496C73.31430920898437,33.3544480078125,73.25956920898437,33.2128980078125,73.25652920898438,33.0652180078125L73.25652920898438,30.7547210078125C73.25652920898438,30.6752010078125,73.25652920898438,30.6752010078125,73.33357920898437,30.5956820078125L73.41062920898437,30.5956820078125C73.64262920898437,30.5956820078125,73.79673920898438,30.6752030078125,74.02873920898438,30.7547210078125C74.18283920898438,30.9137600078125,74.33693920898438,31.0736840078125,74.41398920898438,31.3122430078125L74.64598920898437,31.2327230078125L74.41398920898438,30.3562365378125L71.63333920898438,30.3562365378125M74.72047920898437,30.5117440078125C74.87457920898437,30.5912640078125,75.02953920898437,30.5912640078125,75.10658920898437,30.6707830078125C75.18363920898437,30.7503010078125,75.18363920898437,30.9093430078125,75.18363920898437,31.0692660078125L75.18363920898437,33.0607980078125C75.18363920898437,33.2198380078125,75.18363920898437,33.3788780078125,75.10658920898437,33.4592780078125C75.02953920898437,33.5396880078125,74.87457920898437,33.5387980078125,74.72047920898437,33.5387980078125L74.72047920898437,33.6978380078125L76.26147920898437,33.6978380078125L76.26147920898437,33.5387980078125C76.03032920898437,33.5387980078125,75.95327920898437,33.5387980078125,75.87536920898438,33.4592780078125C75.77904920898438,33.3500280078125,75.72430920898438,33.2084780078125,75.72126920898438,33.0607980078125L75.72126920898438,31.0692640078125C75.72399920898438,30.9215220078125,75.77877920898437,30.7798630078125,75.87536920898438,30.6707810078125C75.95327920898437,30.5912600078125,76.03031920898438,30.5912600078125,76.26147920898437,30.5117420078125L76.26147920898437,30.3518186278125L74.72047920898437,30.3518186278125M79.27498920898438,30.9897450078125C79.52588920898438,31.2721250078125,79.66388920898437,31.6421280078125,79.66108920898438,32.0252680078125C79.66108920898438,32.5032780078125,79.50618920898438,32.9008680078125,79.27498920898438,33.1403180078125C79.04298920898438,33.4592780078125,78.73478920898438,33.5387980078125,78.27158920898438,33.5387980078125C77.88548920898438,33.5387980078125,77.57647920898438,33.4592780078125,77.34531920898438,33.1403180078125C77.11331920898438,32.9008680078125,76.95921920898438,32.5032780078125,76.95921920898438,32.0252680078125C76.95600920898437,31.642048007812498,77.09402920898438,31.2718930078125,77.34531920898438,30.9897450078125C77.57646920898438,30.6707830078125,77.88548920898438,30.5912620078125,78.27158920898438,30.5912620078125C78.73478920898438,30.5912620078125,79.04218920898438,30.6707830078125,79.27498920898438,30.9897450078125ZM76.87787920898438,30.8298220078125C76.49177920898438,31.148784007812502,76.33681920898438,31.5472680078125,76.33681920898438,32.1047880078125C76.31827920898438,32.5700780078125,76.52008920898437,33.0156280078125,76.87787920898438,33.2993580078125C77.27258920898437,33.6215680078125,77.76426920898437,33.7907180078125,78.26738920898437,33.7773580078125C78.88458920898438,33.7773580078125,79.34778920898438,33.6183180078125,79.73388920898438,33.2993580078125C80.04208920898438,32.9812780078125,80.27408920898438,32.582788007812496,80.27408920898438,32.1047880078125C80.27408920898438,31.5472680078125,80.04208920898438,31.148784007812502,79.73388920898438,30.8298200078125C79.34778920898438,30.5117400078125,78.88458920898438,30.3518167378125,78.26738920898437,30.3518167378125C77.76433920898438,30.3389068078125,77.27278920898438,30.5080080078125,76.87787920898438,30.8298220078125ZM80.35538920898438,30.3518186278125L81.51288920898438,30.3518186278125L83.36548920898437,33.0607980078125L83.36548920898437,31.0692640078125C83.36548920898437,30.9093410078125,83.36548920898437,30.7503010078125,83.28848920898437,30.6707810078125C83.21138920898437,30.5912600078125,83.05728920898437,30.5912600078125,82.90238920898437,30.5117420078125L82.90238920898437,30.3518186278125L84.21478920898437,30.3518186278125L84.21478920898437,30.5117420078125C83.98358920898437,30.5912620078125,83.82868920898437,30.5912620078125,83.75158920898437,30.6707810078125C83.75158920898437,30.7503010078125,83.67458920898437,30.9093410078125,83.67458920898437,31.0692640078125L83.67458920898437,33.6978380078125L83.21138920898437,33.6978380078125L81.20468920898438,30.8298200078125L81.20468920898438,33.0607980078125C81.20468920898438,33.2198380078125,81.20468920898438,33.3788780078125,81.28168920898437,33.4592780078125C81.35878920898438,33.5396880078125,81.43578920898437,33.5387980078125,81.66778920898437,33.5387980078125L81.66778920898437,33.6978380078125L80.35538920898438,33.6978380078125L80.35538920898438,33.5387980078125C80.50948920898438,33.5387980078125,80.66448920898438,33.5387980078125,80.74148920898438,33.4592780078125C80.81858920898438,33.3797580078125,80.81858920898438,33.2198380078125,80.81858920898438,33.0607980078125L80.81858920898438,31.0692640078125C80.81858920898438,30.9093410078125,80.81858920898438,30.7503010078125,80.74148920898438,30.6707810078125C80.66448920898438,30.5912600078125,80.58738920898438,30.5912600078125,80.35538920898438,30.5117420078125M88.69218920898437,30.9897450078125C88.92338920898437,31.2283050078125,89.00038920898437,31.6267880078125,89.00038920898437,32.0252680078125C89.00038920898437,32.5032780078125,88.92338920898437,32.9008680078125,88.69218920898437,33.1403180078125C88.38318920898438,33.4592780078125,88.07408920898438,33.5387980078125,87.68888920898438,33.5387980078125C87.30358920898438,33.5387980078125,86.91838920898438,33.4592780078125,86.68548920898438,33.1403180078125C86.45348920898438,32.9008680078125,86.37638920898438,32.5032780078125,86.37638920898438,32.0252680078125C86.37638920898438,31.6267880078125,86.45348920898438,31.2300710078125,86.68548920898438,30.9897450078125C86.91668920898438,30.6707830078125,87.30278920898438,30.5912620078125,87.68888920898438,30.5912620078125C88.07498920898438,30.5912620078125,88.38318920898438,30.6707830078125,88.69218920898437,30.9897450078125ZM86.29938920898438,30.8298220078125C85.91328920898437,31.148784007812502,85.75918920898437,31.5472680078125,85.75918920898437,32.1047880078125C85.74028920898438,32.5699480078125,85.94178920898437,33.0155280078125,86.29938920898438,33.2993580078125C86.60758920898438,33.6183180078125,87.14868920898438,33.7773580078125,87.68888920898438,33.7773580078125C88.19188920898438,33.7904180078125,88.68348920898438,33.6212980078125,89.07828920898437,33.2993580078125C89.43558920898437,33.0152480078125,89.63698920898437,32.5698580078125,89.61848920898437,32.1047880078125C89.61848920898437,31.5472680078125,89.46358920898437,31.148784007812502,89.07828920898437,30.8298200078125C88.25538920898438,30.1910040078125,87.12228920898437,30.1910040078125,86.29938920898438,30.8298220078125ZM89.77258920898437,30.3518186278125L92.70568920898438,30.3518186278125L93.09178920898438,31.2283050078125L92.86068920898438,31.3078250078125C92.70568920898438,31.0692660078125,92.39748920898438,30.9093430078125,92.16548920898438,30.7503030078125C91.89218920898438,30.6519230078125,91.60558920898438,30.5982620078125,91.31618920898438,30.5912640078125C91.08508920898437,30.5912640078125,91.00798920898438,30.6707850078125,90.93008920898437,30.6707850078125C90.83348920898437,30.7798670078125,90.77878920898438,30.9215250078125,90.77598920898437,31.0692680078125L90.77598920898437,31.8644680078125L91.08508920898437,31.8644680078125C91.27538920898438,31.8599980078125,91.46138920898437,31.8052380078125,91.62528920898437,31.7054280078125C91.73468920898438,31.5726780078125,91.78988920898438,31.4013280078125,91.77938920898438,31.2274210078125L91.93428920898438,31.2274210078125L91.93428920898438,32.6614280078125L91.77938920898438,32.6614280078125C91.78988920898438,32.4875180078125,91.73468920898438,32.3161780078125,91.62528920898437,32.1834280078125C91.47118920898437,32.1039080078125,91.31618920898438,32.1039080078125,91.08508920898437,32.1039080078125L90.78028920898437,32.1039080078125L90.78028920898437,33.0607980078125C90.78028920898437,33.2198380078125,90.78028920898437,33.3788780078125,90.85738920898437,33.4592880078125C90.93438920898437,33.5396880078125,91.08938920898437,33.5388080078125,91.24348920898437,33.5388080078125L91.24348920898437,33.6978480078125L89.77688920898437,33.6978480078125L89.77688920898437,33.5388080078125C89.93098920898437,33.5388080078125,90.08598920898437,33.5388080078125,90.16308920898437,33.4592880078125C90.16308920898437,33.3788780078125,90.24008920898437,33.2198380078125,90.24008920898437,33.0607980078125L90.24008920898437,31.0692680078125C90.24008920898437,30.9093440078125,90.16308920898437,30.7503050078125,90.16308920898437,30.6707850078125C90.08598920898437,30.5912640078125,89.93098920898437,30.5912640078125,89.77688920898437,30.5117460078125M96.87408920898437,30.6707830078125L97.02818920898437,30.3518205178125L97.18318920898437,30.3518205178125L97.49128920898437,31.6267880078125L97.33728920898437,31.6267880078125C97.10608920898437,31.2283070078125,96.95108920898437,30.9897470078125,96.64288920898437,30.8315900078125C96.44338920898437,30.6145850078125,96.16198920898438,30.4983950078125,95.87238920898437,30.5135100078125C95.52418920898438,30.5109330078125,95.18988920898437,30.6544300078125,94.94608920898438,30.9111090078125C94.71498920898438,31.2300710078125,94.55998920898438,31.5490380078125,94.55998920898438,32.0270380078125C94.55998920898438,32.5050380078125,94.71498920898438,32.9026380078125,94.94608920898438,33.1420780078125C95.17808920898437,33.4610480078125,95.48628920898437,33.5405680078125,95.87238920898437,33.5405680078125C96.18148920898437,33.5405680078125,96.48968920898437,33.5405680078125,96.72168920898437,33.3806380078125C96.95368920898437,33.2207180078125,97.18488920898437,33.0625680078125,97.33898920898437,32.823118007812496L97.57098920898437,32.9026380078125C97.33898920898437,33.2215980078125,97.10778920898437,33.4610480078125,96.80048920898437,33.6200880078125C96.50218920898438,33.7250280078125,96.18928920898438,33.7787580078125,95.87418920898438,33.7791280078125C95.64008920898438,33.7920380078125,95.40548920898438,33.7651780078125,95.17978920898437,33.6996080078125C94.97618920898438,33.6424980078125,94.78988920898438,33.5327180078125,94.63878920898438,33.380648007812496C94.42218920898438,33.2366980078125,94.23798920898437,33.0466080078125,94.09858920898438,32.8231280078125C94.00308920898438,32.5692280078125,93.95098920898437,32.3001880078125,93.94448920898438,32.0279280078125C93.92578920898438,31.5625480078125,94.12718920898438,31.1167710078125,94.48468920898438,30.8324780078125Q94.94778920898437,30.3553582478125,95.87418920898438,30.3544742878125C96.05738920898438,30.3468661778125,96.24048920898437,30.3738137078125,96.41438920898437,30.4339948078125C96.56928920898437,30.4339948078125,96.72338920898437,30.5143970078125,96.87748920898437,30.6734390078125L96.87408920898437,30.6707830078125Z" fill="#FFFFFF" fill-opacity="1"/></g><g><path d="M97.5693,30.3519L99.1103,30.3519L99.1103,30.5118C98.8783,30.5913,98.8013,30.5913,98.7242,30.6708C98.6472,30.7503,98.6472,30.9094,98.6472,31.0693L98.6472,31.7859L100.577,31.7859L100.577,31.0693C100.574,30.9216,100.519,30.7799,100.423,30.6708C100.423,30.5913,100.268,30.5913,100.037,30.5118L100.037,30.3519L101.578,30.3519L101.578,30.5118C101.424,30.5913,101.269,30.5913,101.192,30.6708C101.114,30.7503,101.114,30.9094,101.114,31.0693L101.114,33.0608C101.114,33.2199,101.114,33.3789,101.192,33.4593C101.269,33.5397,101.424,33.5388,101.578,33.5388L101.578,33.6979L100.037,33.6979L100.037,33.5388C100.268,33.5388,100.423,33.5388,100.423,33.4593C100.519,33.3501,100.574,33.2085,100.577,33.0608L100.577,32.0253L98.6472,32.0253L98.6472,33.0608C98.6472,33.2199,98.6472,33.3789,98.7242,33.4593C98.8013,33.5397,98.8783,33.5388,99.1103,33.5388L99.1103,33.6979L97.5693,33.6979L97.5693,33.5388C97.8005,33.5388,97.8775,33.5388,97.9546,33.4593C98.0316,33.3798,98.0325,33.2199,98.0325,33.0608L98.0325,31.0693C98.0325,30.9094,98.0325,30.7503,97.9546,30.6708C97.8767,30.5913,97.7234,30.5913,97.5693,30.5118M101.815,30.3519L103.356,30.3519L103.356,30.5118C103.124,30.5913,102.97,30.5913,102.97,30.6708C102.873,30.7799,102.818,30.9216,102.816,31.0693L102.816,33.0608C102.819,33.2085,102.873,33.3501,102.97,33.4593C102.97,33.5388,103.124,33.5388,103.356,33.5388L103.356,33.6979L101.815,33.6979L101.815,33.5388C101.969,33.5388,102.123,33.5388,102.201,33.4593C102.279,33.3798,102.278,33.2199,102.278,33.0608L102.278,31.0693C102.278,30.9094,102.278,30.7503,102.201,30.6708C102.124,30.5913,101.969,30.5913,101.815,30.5118M103.512,30.5118C103.744,30.5913,103.822,30.5913,103.899,30.6708C103.976,30.7503,103.976,30.9094,103.976,31.0693L103.976,33.0608C103.976,33.2199,103.976,33.3789,103.899,33.4593C103.822,33.5397,103.744,33.5388,103.512,33.5388L103.512,33.6979L104.825,33.6979L104.825,33.5388C104.594,33.5388,104.516,33.5388,104.439,33.4593C104.362,33.3798,104.362,33.2199,104.362,33.0608L104.362,30.8299L106.368,33.6979L106.832,33.6979L106.832,31.0693C106.834,30.9214,106.889,30.7796,106.987,30.6708C106.987,30.5913,107.141,30.5913,107.372,30.5118L107.372,30.3519L106.06,30.3519L106.06,30.5118C106.214,30.5913,106.368,30.5913,106.445,30.6708C106.523,30.7503,106.523,30.9094,106.523,31.0693L106.523,33.0608L104.748,30.3519L103.512,30.3519M109.533,32.2639L108.376,32.2639L108.993,30.8299L109.533,32.2639ZM107.604,33.2199L107.372,33.4593C107.295,33.5388,107.218,33.5388,107.064,33.5388L107.064,33.6979L108.453,33.6979L108.453,33.6184C108.298,33.5388,108.144,33.5388,108.067,33.4593C107.99,33.4593,107.99,33.3789,107.99,33.2994L107.99,33.2199C107.99,33.1404,107.99,33.1404,108.067,33.0608L108.298,32.5033L109.688,32.5033L109.92,33.1404L109.92,33.2994C109.963,33.2984,109.998,33.3346,109.997,33.3789C109.997,33.4593,109.92,33.4593,109.843,33.5388L109.533,33.5388L109.533,33.6979L111,33.6979L111,33.5388C110.846,33.5388,110.769,33.5388,110.692,33.4593C110.615,33.3798,110.537,33.2994,110.537,33.2199L109.379,30.3519L108.839,30.3519L107.604,33.2199ZM32.9603,12.6666L32.7291,12.1886L34.3498,10.7546C34.5047,10.5947,34.5818,10.5152,34.5818,10.3561L34.89,10.1971L35.2761,11.3166L34.967,11.4756L34.967,11.3961C34.967,11.3166,34.89,11.3166,34.89,11.237L34.7359,11.237C34.7369,11.2814,34.7018,11.3176,34.6588,11.3166L34.3498,11.5551L34.5818,12.2726L34.967,12.2726L35.0449,12.193C35.122,12.193,35.199,12.193,35.199,12.1135C35.199,12.034,35.199,12.0331,35.122,11.8741L35.4302,11.7946L35.818,12.7462L35.5098,12.8257C35.4319,12.6666,35.2778,12.5871,34.9687,12.6666L32.9603,12.6666ZM33.4235,12.2682L34.277,12.2682L34.0458,11.7901L33.4235,12.2682ZM34.194,15.6937L34.194,15.4551C34.271,15.3747,34.4251,15.3747,34.5801,15.2952L35.5834,14.9771C35.8146,14.9771,35.8916,14.8967,35.9695,14.9771C36.0521,14.9831,36.1179,15.0509,36.1236,15.1362L36.4327,15.0567L36.2007,14.1802L35.8916,14.2597L35.8916,14.4974C35.7957,14.6115,35.6522,14.6708,35.5064,14.6564L34.277,14.9771L35.9755,13.3867L35.8976,12.9087L34.1229,13.3867C33.9741,13.4407,33.8174,13.4676,33.6597,13.4663C33.6179,13.4234,33.5908,13.3675,33.5827,13.3072L33.1966,13.3867L33.5048,14.2632L33.7368,14.1837C33.7368,14.0247,33.7368,13.9443,33.8138,13.9443C33.8138,13.8647,33.9679,13.7852,34.1999,13.7852L34.8943,13.5467L33.5827,14.8207L33.8909,15.7767L34.194,15.6937ZM2.31578,20.0752C2.39283,20.1548,2.31578,20.2343,2.31578,20.3147C2.23873,20.3147,2.08463,20.3942,1.92968,20.3942L0.849263,20.4737C0.695163,20.5532,0.540206,20.5532,0.463156,20.4737C0.386106,20.4737,0.386106,20.3942,0.386106,20.3147L0.07705,20.3147L0.309056,22.3857L1.23537,22.6261L1.31242,22.3875C1.08041,22.308,0.926313,22.1481,0.772213,21.989C0.641862,21.8492,0.536378,21.6868,0.460588,21.5093C0.460588,21.3502,0.460588,21.2707,0.537638,21.2707C0.537638,21.1903,0.692594,21.1903,0.769644,21.1903L1.3869,21.1108L1.46395,21.1903C1.46395,21.2707,1.3869,21.3502,1.3869,21.4297C1.28121,21.5294,1.14395,21.586,1.00079,21.5888L1.07784,21.8282L2.23616,21.6683L2.23616,21.4297L1.85263,21.4297C1.85263,21.3502,1.77558,21.2707,1.77558,21.1903L1.77558,21.0357L2.16168,21.0357C2.23873,20.9561,2.39283,20.9561,2.39283,21.0357C2.46988,21.0357,2.46988,21.1152,2.46988,21.2751C2.54779,21.4341,2.46988,21.5932,2.39283,21.7531C2.28789,21.9311,2.15775,22.0919,2.00673,22.2302L2.16168,22.4697L2.93218,21.9917L2.70103,20.0001L2.31578,20.0752ZM1.92968,17.3663L1.85263,17.6057C2.00673,17.6852,2.16168,17.7647,2.23873,17.9247C2.31578,18.0042,2.31578,18.1632,2.31578,18.3223L0.849263,18.2427C0.617256,18.2427,0.540206,18.2427,0.463156,18.1632C0.386106,18.1632,0.386106,18.0837,0.386106,18.0042L0.0770501,17.9247L4.28939e-8,19.1987L0.309056,19.1987C0.305042,19.1121,0.33252,19.027,0.386106,18.9602C0.463156,18.9602,0.617256,18.8807,0.849263,18.8807L2.31578,18.9602L2.31578,19.0397C2.31578,19.1987,2.23873,19.2783,2.16168,19.4382C2.08463,19.5177,1.92968,19.5972,1.69853,19.6768L1.77558,19.9162L2.62484,19.6768L2.70189,17.6852L1.92968,17.3663ZM2.93304,16.3307L2.85599,16.8883L0.772213,17.2072C0.540206,17.2072,0.386106,17.2867,0.386106,17.4467L0,17.3663L0.232006,16.1761L0.540206,16.2556L0.540206,16.4951C0.617256,16.4951,0.617256,16.5746,0.695163,16.5746L0.772213,16.5746L1.15832,16.4951L1.31242,15.7776L1.00336,15.6186L0.926313,15.6186C0.884226,15.5735,0.814299,15.5735,0.772213,15.6186C0.695163,15.6186,0.695163,15.6981,0.695163,15.7776L0.309056,15.7776L0.540206,14.7421L0.849263,14.8216C0.849263,14.9815,0.926313,15.1406,1.15832,15.2996L1.23537,15.2996L2.93304,16.3307ZM2.31578,16.4103L1.62148,15.9323L1.54357,16.4907L2.31578,16.4103ZM3.01094,13.1411L2.8577,13.3037C2.98697,13.4432,3.09157,13.6049,3.16676,13.7817C3.172,13.9189,3.14559,14.0555,3.08971,14.1802L1.69853,13.7022C1.54357,13.6226,1.38947,13.6226,1.38947,13.5431C1.33036,13.4792,1.30208,13.3914,1.31242,13.3037L1.00336,13.1446L0.617257,14.3392L0.926313,14.4187L1.08041,14.2597C1.2381,14.2582,1.39483,14.2851,1.54357,14.3392L2.93304,14.8172C2.85599,14.9771,2.77894,15.1362,2.62484,15.2157C2.54779,15.2157,2.39283,15.2952,2.16168,15.2952L2.16168,15.6142L3.01094,15.6142L3.70525,13.7022L3.01094,13.1411ZM3.78145,12.7426L4.2446,12.2646C4.3127,12.0581,4.3127,11.8341,4.2446,11.6276C4.18226,11.4218,4.04342,11.2499,3.8585,11.1496C3.73794,11.0921,3.60599,11.0645,3.47325,11.0692L3.16505,11.0692C3.16505,11.1496,3.06916,11.1681,3.01094,11.2291C2.95273,11.2901,2.85599,11.4677,2.70189,11.5472C2.70338,11.5919,2.66814,11.6286,2.62484,11.6276C2.39283,11.9457,2.23873,12.0252,2.08463,11.9457C2.0017,11.9401,1.9355,11.8722,1.92968,11.7866C1.85263,11.6276,1.92968,11.5472,1.92968,11.3881C2.00673,11.2291,2.16168,11.1496,2.31578,11.0692C2.5379,10.9786,2.77254,10.9249,3.01094,10.9101L3.01094,10.6716L2.00673,10.433L1.92968,10.6725L2.08463,10.752C1.9683,10.8113,1.86354,10.8921,1.77558,10.9905C1.68036,11.0675,1.62377,11.1847,1.62148,11.3095C1.49236,11.5241,1.46375,11.7873,1.54357,12.0261C1.60264,12.2469,1.77558,12.4245,2.00673,12.5845C2.18091,12.6447,2.36425,12.6716,2.54779,12.664C2.70189,12.5845,2.85599,12.4245,3.08799,12.186C3.13095,12.187,3.16603,12.1508,3.16505,12.1065C3.4741,11.7875,3.6282,11.6285,3.7823,11.708C3.85935,11.708,3.85935,11.7875,3.85935,11.867C3.9364,11.9465,3.85935,12.0261,3.85935,12.186C3.7823,12.2655,3.68813,12.444,3.55115,12.5041C3.37813,12.568,3.19442,12.5953,3.01094,12.5845L3.01094,12.823L3.78145,13.0625L3.93554,12.823L3.78144,12.7435L3.78145,12.7426ZM30.0264,5.97106L30.2576,6.29002L31.0281,7.08522L31.3371,7.40419L31.0281,7.64275L30.5649,8.12075L30.3337,8.36019L30.0273,8.04741L29.2568,7.17093L29.0256,6.93237L29.2568,6.69293L29.797,6.21492L30.0264,5.97106ZM30.5666,5.09458L30.9527,4.7765L31.2618,5.1741L32.7283,6.76449L33.0365,7.08257L32.7283,7.40154L30.8757,9.15451L30.7207,9.31355L30.4896,9.31355C30.4125,9.23403,30.2576,9.15451,30.0264,8.91506C30.0264,8.83554,30.1035,8.83554,30.1035,8.75602C30.1805,8.75602,30.1805,8.6765,30.2576,8.5961L30.2576,8.43706L30.4896,8.6765C30.5666,8.75602,30.5666,8.75602,30.6437,8.75602C30.6866,8.75704,30.7217,8.72084,30.7207,8.6765L32.4192,7.08611L30.9527,5.49571L30.5666,5.09458ZM31.9561,7.08611L31.647,7.40507L31.3388,7.08611L30.2576,5.89154L29.9494,5.57258L30.2576,5.2545L30.5666,5.57258L31.647,6.76803L31.9561,7.08611ZM30.3389,7.72757L30.7241,7.32908L30.0298,6.61164L29.6437,7.01012L30.3389,7.72757ZM27.3254,2.23009C27.2483,2.46954,27.2483,2.54906,27.1713,2.7081L27.1713,3.02706C27.0943,3.17648,27.0943,3.35564,27.1713,3.50506C27.1713,3.6641,27.2483,3.82402,27.3254,4.06258C27.4024,4.22162,27.4803,4.46107,27.6344,4.62011C27.7256,4.52543,27.8297,4.44506,27.9435,4.38155C28.0205,4.38155,28.0205,4.38155,28.0976,4.30203L27.8656,4.06258C27.8237,4.01973,27.7966,3.96385,27.7885,3.90354C27.7115,3.82402,27.6935,3.72683,27.6344,3.58458C27.5788,3.43196,27.5526,3.26957,27.5574,3.10658C27.6112,3.0097,27.6379,2.89926,27.6344,2.78762C27.6784,2.74634,27.7059,2.68964,27.7115,2.62858C27.7115,2.54906,27.7885,2.54906,27.7885,2.46954L27.3254,2.23009ZM24.9325,3.98306L24.6243,3.98306L24.6243,4.1421C24.6235,4.27887,24.5971,4.41419,24.5464,4.54059C24.7014,4.54059,24.7784,4.62011,24.9325,4.62011C25.0096,4.69963,25.2416,4.78003,25.6277,4.93907C25.9457,5.04779,26.2553,5.18099,26.554,5.33755C26.554,5.49659,26.6311,5.57611,26.554,5.65563L26.554,5.81556L26.7081,5.73604C26.8399,5.72896,26.97,5.70187,27.0942,5.65563C27.0942,5.33755,27.0172,4.86043,26.9393,4.30203L26.4761,4.30203L26.4761,4.54059C26.554,4.62011,26.554,4.69963,26.554,4.93907C26.1679,4.69963,25.7047,4.54059,25.3186,4.30203C25.4727,4.22162,25.6277,4.1421,25.7818,4.1421L26.5523,3.74362C26.6115,3.73782,26.6664,3.70947,26.7064,3.6641C26.5786,3.52478,26.4752,3.36365,26.4008,3.18787L26.3237,3.26739C26.2548,3.33221,26.1769,3.38611,26.0926,3.42731L25.6294,3.66587C25.5236,3.76553,25.3865,3.82233,25.2433,3.82579C25.1663,3.90531,25.0113,3.90531,24.9342,3.98483L24.9325,3.98306ZM25.0096,3.10658C25.2416,3.10658,25.4916,3.0085,25.7048,2.94754C25.9168,2.88608,26.1233,2.80597,26.322,2.7081C26.4761,2.54906,26.7081,2.46954,26.9393,2.30961C26.7852,2.23009,26.7081,2.07105,26.6311,1.91201L26.554,1.99153C26.3991,2.07105,26.245,2.23009,26.013,2.30961C25.8124,2.40306,25.6062,2.48304,25.3957,2.54906C25.2416,2.62858,25.0096,2.62858,24.8555,2.62858L24.9325,2.7081C24.9325,2.78762,25.0096,2.94754,25.0096,3.10658ZM19.3747,3.26562L19.4517,2.78762L19.8378,0.478004L19.9149,0.00000129855L20.378,0.0795212L22.4627,0.478004L22.9258,0.557524L22.8488,0.956007L22.4627,3.42554C22.4627,3.50506,22.4627,3.58458,22.3856,3.58458C22.3856,3.6641,22.3086,3.74362,22.1536,3.74362L21.6922,3.74362L21.6922,3.58458C21.7026,3.49714,21.6743,3.4095,21.6151,3.34602L21.6151,3.18787C21.6922,3.18787,21.7692,3.26739,21.8471,3.26739L22.0012,3.26739C22.0012,3.18787,22.0012,3.18787,22.0783,3.10835L22.3873,0.877371L20.3027,0.559291L20.2256,1.03729L20.3027,1.03729C20.3797,1.03729,20.4576,0.957774,20.5347,0.957774C20.6299,1.03443,20.6865,1.15128,20.6888,1.27585C20.748,1.21237,20.7763,1.12473,20.7658,1.03729C20.7715,0.975991,20.7989,0.919021,20.8429,0.877371L20.8429,0.713912C20.9979,0.793432,21.0749,0.872952,21.3061,0.872952C21.3061,0.953355,21.229,0.953355,21.229,1.03288L21.229,1.11239L21.152,1.35095C21.229,1.27143,21.384,1.27143,21.384,1.19191L21.461,1.19191C21.5381,1.27143,21.6151,1.35095,21.6151,1.43136C21.6709,1.30668,21.6973,1.17012,21.6922,1.03287L21.7692,0.953355C21.9242,1.03287,22.0783,1.03287,22.2324,1.11239C22.1894,1.11138,22.1543,1.14758,22.1553,1.19191L22.0783,1.43136C22.0783,1.5904,22.0012,1.66992,22.0012,1.74944L21.8471,1.98888C21.9357,2.16939,22.0129,2.35562,22.0783,2.5464L22.0783,2.62592C22.0012,2.70544,21.8471,2.78496,21.6922,2.94489L21.6922,2.70544L21.6151,2.46688C21.5237,2.60889,21.4203,2.74225,21.3061,2.86537C21.229,2.94489,21.152,3.02441,21.0749,3.02441L20.9979,2.94489C20.9208,2.86537,20.8429,2.86537,20.7658,2.70544C20.8822,2.64616,20.9869,2.5653,21.0749,2.46688C21.1323,2.34683,21.2107,2.23871,21.3061,2.14792L21.384,1.98888C21.384,1.82896,21.3061,1.74944,21.3061,1.66992C21.3061,1.5904,21.229,1.51088,21.152,1.35095C21.0749,1.51088,20.9979,1.5904,20.9979,1.66992L20.9208,1.74944C20.9979,1.90936,21.0749,2.14792,21.152,2.30696L20.6888,2.5464L20.6888,2.22744C20.6117,2.30696,20.6117,2.38736,20.5347,2.38736C20.5347,2.46688,20.3797,2.5464,20.2256,2.70544C20.2266,2.66111,20.1915,2.6249,20.1486,2.62592C20.1486,2.5464,20.0715,2.46688,19.9945,2.38736L19.9166,2.86537L19.8395,3.34337L19.3747,3.26562ZM19.9928,2.30961Q20.2239,2.19033,20.2239,2.07105C20.3193,1.9801,20.3979,1.87203,20.4559,1.75209C20.378,1.51353,20.301,1.35361,20.301,1.27409L20.2239,1.11505L19.9928,2.30961ZM15.8244,2.23009L16.5949,2.07105L16.5178,1.67257L15.7473,1.83161L15.8244,2.23009ZM15.6694,1.43489L16.5187,1.27497L16.4416,0.796968L15.5924,0.956891L15.6694,1.43489ZM14.6661,2.47042L15.3612,2.3105L15.2842,1.9129L14.589,1.99242L14.6661,2.47042ZM13.8956,0.796967L14.2808,0.717448L15.0513,0.637928L15.0513,0.398483L14.9743,0.0804035L15.4374,0.000883591L15.5145,0.318963L15.5145,0.558406L16.5178,0.398483L16.8269,0.318963L16.8269,0.637926L17.058,2.15145L17.1359,2.54994L16.6728,2.62946L16.6728,2.54994L15.9023,2.62946L15.9793,3.02794L15.9793,3.10746C15.9793,3.18698,16.0564,3.18698,16.1334,3.18698L16.5966,3.10746C16.7037,3.10266,16.8088,3.07561,16.9056,3.02794C16.9827,3.02794,17.0597,2.94842,17.1376,2.94842L17.1376,2.54994C17.3688,2.62946,17.5229,2.70898,17.6779,2.70898C17.6008,2.94842,17.6008,3.18698,17.5229,3.18698C17.5155,3.27159,17.4507,3.33876,17.3688,3.3469C17.3688,3.42642,17.2917,3.42642,17.1376,3.42642C17.0597,3.50594,16.8286,3.50594,16.5966,3.50594C16.4227,3.56618,16.2396,3.59313,16.0564,3.58546C15.9023,3.66498,15.8252,3.66498,15.7482,3.58546C15.6895,3.57724,15.635,3.5493,15.5932,3.50594C15.5932,3.42642,15.5162,3.3469,15.5162,3.2665L15.4391,2.70898L14.744,2.8689L14.2808,2.94842L14.2037,2.62946L13.9726,1.11593L13.8956,0.796967ZM14.5128,1.59217L15.2071,1.51265L15.1301,1.03464L14.4358,1.19368L14.5128,1.59217ZM9.10732,3.74362L9.02941,3.50506L8.95236,3.26562L11.037,2.15057L11.1911,2.39002L11.2681,2.54906L11.7313,2.30961L11.5772,2.15057L11.4222,1.75209L11.2681,1.51353L10.9591,1.75209L9.95572,2.23009C9.99868,2.23111,10.0338,2.1949,10.0328,2.15057C9.95572,2.07105,9.80162,2.07105,9.57047,1.99153C9.49257,2.15057,9.41552,2.23009,9.41552,2.30961L9.33847,2.39002C9.41552,2.39002,9.49257,2.46954,9.57047,2.46954L8.72121,2.94754L8.3351,3.10658L8.41215,3.34602L8.64416,3.74362L8.72121,3.90354L9.10732,3.74362ZM10.2665,4.77826C10.1124,5.09634,9.80334,5.33579,9.49599,5.65387L9.65095,5.73427C9.728,5.73427,9.80505,5.81379,9.8821,5.89331L10.2682,5.49483C10.3453,5.33579,10.4994,5.17586,10.5773,5.01682C10.6926,4.83868,10.7955,4.65238,10.8855,4.4593L10.9625,4.53882L10.9625,4.69786C11.0404,4.77826,11.0404,4.85778,10.9625,4.85778C10.9625,4.9373,10.8855,5.01682,10.6543,5.09634L10.8084,5.17586C10.8855,5.17586,10.9625,5.25627,11.0404,5.41531C11.2716,5.25627,11.4257,5.17586,11.5036,5.01682L11.5036,4.69786C11.4257,4.61834,11.4257,4.53882,11.3486,4.37978C11.2877,4.30699,11.2359,4.22654,11.1945,4.14034C11.1945,4.06082,11.1175,4.06082,11.1175,3.9813L11.1945,3.82226C11.3486,3.9813,11.4257,4.14034,11.5806,4.21986C11.7356,4.29938,11.8118,4.37978,11.9667,4.37978C12.1208,4.4593,12.352,4.4593,12.661,4.53882L12.661,4.22162C12.7202,4.15814,12.7485,4.0705,12.7381,3.98306L12.1208,3.98306L11.6577,3.74362L11.4257,3.50506L11.6577,3.02706C11.5611,2.97862,11.4559,2.95154,11.3486,2.94754C11.2902,2.9392,11.236,2.91126,11.1945,2.86802L11.1175,3.10658C11.0404,3.1861,10.9625,3.42554,10.8084,3.74362L10.7314,3.6641C10.6543,3.6641,10.5773,3.58458,10.4223,3.58458C10.5167,3.46316,10.5947,3.32911,10.6543,3.1861L10.4994,3.1861L10.9625,2.94754L11.2716,2.78762L11.1175,2.39002L10.8084,2.54906L9.41894,3.34425L9.11074,3.42377L9.34189,3.82226L9.5739,3.66233L10.0362,3.42377C9.8759,3.65315,9.69503,3.86644,9.49599,4.06082C9.34189,4.14034,9.18779,4.30026,9.11074,4.30026C9.1949,4.34134,9.27278,4.39493,9.34189,4.4593L9.49599,4.61834L10.1912,3.90178L9.95915,4.37978L9.65095,4.69786C9.59188,4.75882,9.41894,4.85778,9.34189,4.9373C9.42622,4.97855,9.50436,5.03212,9.5739,5.09634L9.728,5.25627C9.91304,5.06928,10.0692,4.85414,10.1912,4.61834C10.3453,4.4593,10.4223,4.30026,10.5773,4.06082L10.6543,4.14034C10.5362,4.35963,10.4074,4.57255,10.2682,4.77826L10.2665,4.77826ZM6.25219,8.76309L7.79319,7.08964L6.02532,5.33755L4.48432,7.01012L6.25219,8.76309ZM3.85935,7.08964L4.09136,6.77156L5.78903,5.01859L6.02531,4.69963L6.33437,5.01859L8.10909,6.77156L8.41815,7.01012L8.10909,7.4086L8.10909,7.32908L6.48419,9.00165L6.56124,9.08117L6.25218,9.40014L5.94398,9.08117L4.09136,7.32908L3.85935,7.08964ZM5.78903,8.28509L6.09808,8.04741L6.40714,7.64893L6.02531,7.32908L5.79331,7.56764L5.56216,7.80709L5.2531,7.56764L5.48511,7.32908L5.79331,7.01012L5.48511,6.77156L5.1692,7.08964L4.93805,7.4086L4.629,7.08964L4.86015,6.85108L5.86436,5.81555L6.09551,5.57611L6.40457,5.81555L6.17256,6.05411L5.78903,6.45702L6.09808,6.69557L6.40714,6.3775L6.56124,6.13805L6.8703,6.45702L6.63829,6.61606L7.10145,6.61606L7.10145,6.93502L7.33345,6.69558L7.5646,6.93502L7.33345,7.17358L6.33009,8.28951L6.09808,8.52807L5.78903,8.28509ZM6.94735,7.01012L6.48419,7.01012C6.54338,6.94664,6.57168,6.859,6.56124,6.77156L6.33009,6.9306L6.71534,7.32908L6.94735,7.01012ZM34.4285,17.0482C34.3515,16.9687,34.4285,16.8883,34.4285,16.8087C34.5064,16.8087,34.6605,16.7292,34.8146,16.7292L35.818,16.4907L36.2041,16.4907C36.2812,16.5702,36.3582,16.5702,36.3582,16.7292L36.6673,16.6497L36.5132,15.4551L36.1271,15.5346C36.2041,15.6142,36.1271,15.6937,36.1271,15.7732C36.05,15.7732,35.8951,15.8527,35.7409,15.8527L34.7376,16.0922L34.3515,16.0922C34.2744,16.0127,34.1974,16.0127,34.1974,15.8527L33.8883,15.9323L34.1203,17.1277L34.4285,17.0482ZM34.5835,20.0752C34.5835,19.9162,34.5835,19.8367,34.6605,19.8367C34.7376,19.7563,34.8146,19.7563,35.0466,19.7563L36.05,19.6768L36.5132,19.6768C36.5132,19.7563,36.5902,19.8367,36.5902,19.9162L36.8993,19.9162L36.8214,18.7208L36.5132,18.7208C36.5236,18.8085,36.4953,18.8964,36.4361,18.9602C36.3582,18.9602,36.2812,19.0397,36.05,19.0397L35.5869,19.0397L35.5098,18.1632L35.973,18.0837C36.2041,18.0837,36.3582,18.0837,36.3582,18.1632C36.4411,18.1688,36.5073,18.2367,36.5132,18.3223L36.8214,18.3223L36.7443,17.1277L36.3582,17.1277Q36.4361,17.2867,36.3582,17.3663C36.2812,17.4467,36.1271,17.4467,35.8951,17.4467L34.8917,17.5262L34.5064,17.5262C34.4285,17.4467,34.4285,17.4467,34.4285,17.2867L34.0433,17.2867L34.1203,18.5617L34.4285,18.4822C34.4285,18.4027,34.5064,18.3223,34.5835,18.2427C34.7676,18.1482,34.9987,18.1632,35.2007,18.1632L35.2778,19.1192L34.9687,19.1192C34.8146,19.1192,34.6605,19.1192,34.5835,19.0397C34.5064,19.0397,34.5064,18.9602,34.5064,18.8807L34.1974,18.8807L34.2744,20.0752L34.5835,20.0752ZM34.277,20.5532C34.277,20.6328,34.1999,20.7123,34.1229,20.7927L34.1229,21.1108C34.0458,21.5092,34.1229,21.7487,34.354,22.0668C34.6631,22.3062,34.9713,22.4653,35.3574,22.4653C35.7435,22.5448,36.1279,22.4653,36.3608,22.2258C36.6698,21.9872,36.8239,21.7487,36.8239,21.3502C36.8859,21.1095,36.8584,20.8536,36.7469,20.6328C36.5985,20.3886,36.3838,20.1947,36.1296,20.0752L35.9755,20.3147C36.1296,20.4737,36.3026,20.6522,36.3608,20.7927C36.419,20.9332,36.5157,21.0312,36.5157,21.1903C36.4387,21.4297,36.3608,21.5888,36.1296,21.7487C35.9755,21.8282,35.7435,21.8282,35.4345,21.8282C35.1254,21.8282,34.8172,21.7487,34.664,21.5888C34.5112,21.447,34.4264,21.2432,34.432,21.0312C34.432,20.8722,34.5099,20.7918,34.664,20.6328C34.8149,20.4811,35.0008,20.3716,35.2042,20.3147L35.2042,20.0752L34.2008,20.3147L34.1238,20.4737L34.2779,20.5532L34.277,20.5532ZM33.2736,25.5718C33.3507,25.4923,33.3507,25.4128,33.4277,25.4128C33.5048,25.3333,33.6597,25.4128,33.8138,25.4923L34.8172,25.8113L35.1263,25.9703C35.2033,26.0498,35.2033,26.1294,35.2033,26.2893L35.5124,26.3688L35.8976,25.1742L35.5894,25.0938L35.4345,25.2538C35.3018,25.2591,35.1697,25.2319,35.0492,25.1742L34.5818,25.0117L34.6588,24.9321C34.6646,24.8469,34.7303,24.7791,34.8129,24.7731C34.89,24.6936,35.0449,24.6936,35.199,24.7731L35.2761,24.5337L34.0416,24.1352L33.9637,24.2951C34.1186,24.3746,34.2727,24.4541,34.2727,24.5337C34.3498,24.6132,34.3498,24.6936,34.2727,24.8526L34.2727,24.9321L33.8866,24.7731C33.7325,24.7731,33.6555,24.6936,33.6555,24.6132L33.6555,24.3746C33.7325,24.2156,33.8096,24.0557,33.9637,23.9761C34.1015,23.8188,34.2992,23.7316,34.5047,23.7376L34.4268,23.4981L33.6563,23.5776L32.9612,25.4897L33.2736,25.5718ZM32.2703,27.7233C32.1014,27.3914,32.1313,26.9891,32.3473,26.6878C32.495,26.3756,32.7393,26.1231,33.0416,25.9703C33.408,25.8698,33.7983,25.9272,34.1229,26.1294C34.4604,26.2559,34.7368,26.5133,34.8934,26.8468C34.9834,27.1909,34.9562,27.5564,34.8163,27.8823C34.6622,28.2808,34.4302,28.5194,34.0458,28.5998C33.7119,28.6902,33.3581,28.6619,33.0416,28.5194C32.6564,28.2808,32.4244,28.0414,32.2711,27.7242L32.2703,27.7233ZM33.0408,26.5278C32.8096,26.5278,32.7326,26.6878,32.5776,26.8468C32.5006,27.0058,32.5776,27.1658,32.6555,27.4043C32.8304,27.6023,33.0398,27.7644,33.2728,27.8823C33.5161,27.9899,33.7785,28.0441,34.0433,28.0414C34.2744,28.0414,34.4285,27.9618,34.5064,27.7233C34.5835,27.5634,34.5835,27.4043,34.4285,27.1658C34.3515,27.0058,34.1203,26.8468,33.8113,26.6878C33.5724,26.5658,33.3067,26.5107,33.0408,26.5278ZM29.8732,30.6708C29.9347,30.6097,30.0196,30.5805,30.1043,30.5913C30.1814,30.5913,30.2584,30.6708,30.4134,30.8299L31.1839,31.5473C31.3388,31.7063,31.4159,31.7859,31.4159,31.8654C31.4263,31.9531,31.398,32.041,31.3388,32.1048L31.57,32.3434L32.1881,31.6268L31.9561,31.4678C31.8946,31.5289,31.8097,31.5581,31.7249,31.5473C31.647,31.5473,31.57,31.4678,31.4159,31.3079L30.4896,30.4314L32.7283,30.9898L33.0365,30.6708L31.7258,29.3959C31.5708,29.2368,31.4938,29.1573,31.4938,29.0778C31.4167,28.9974,31.4938,28.9179,31.5708,28.8383L31.3397,28.6793L30.7216,29.3163L30.9536,29.5558C31.0306,29.4754,31.1077,29.3959,31.1847,29.3959C31.2769,29.4896,31.3808,29.5701,31.4938,29.6353L32.034,30.1928L30.3389,29.7148L29.6437,30.51L29.8732,30.6708ZM28.1746,32.2612C28.1691,31.8838,28.3419,31.5271,28.6378,31.3052C28.9216,31.0765,29.289,30.9891,29.6412,31.0667C29.9502,31.0667,30.2584,31.3052,30.5675,31.6242C30.7995,31.9423,30.9536,32.2612,30.8765,32.6597C30.8627,33.0103,30.6915,33.3343,30.4134,33.5362C30.1222,33.7537,29.7693,33.8656,29.41,33.8543C29.0384,33.7605,28.7106,33.5351,28.4837,33.2172C28.2789,32.9438,28.17,32.6068,28.1746,32.2612ZM29.41,31.55C29.178,31.4704,29.0239,31.4704,28.8689,31.6295C28.7148,31.709,28.6378,31.868,28.7148,32.1075C28.7148,32.346,28.8689,32.5855,29.0239,32.824C29.255,33.0635,29.4871,33.3021,29.6412,33.3816C29.8732,33.462,30.0273,33.3816,30.1814,33.3021C30.3363,33.143,30.4134,32.984,30.3363,32.7445C30.3363,32.5855,30.2584,32.346,30.0273,32.028C29.7953,31.7885,29.6412,31.6295,29.41,31.55ZM24.7014,34.8191L24.9325,34.8191C24.9325,34.5805,24.9325,34.4215,25.0096,34.3411C25.0096,34.1821,25.1645,34.1025,25.2416,34.023L25.3186,34.023L26.013,35.2971C26.0909,35.5366,26.1679,35.6161,26.1679,35.6956C26.0909,35.7751,26.0909,35.8555,25.9359,35.935L26.0909,36.1736L27.1713,35.6143L27.0172,35.3758L26.7852,35.3758C26.6902,35.2846,26.6119,35.1766,26.554,35.0568L25.8589,33.7023C26.013,33.6228,26.1679,33.5433,26.322,33.6228C26.3991,33.6228,26.554,33.7023,26.7852,33.8613L26.9393,33.6228L26.245,33.0653L24.5464,34.0213L24.7014,34.8191ZM23.3119,34.4215L23.8521,34.2616L25.1645,35.852Q25.3957,36.0905,25.6277,36.0905L25.7048,36.4095L24.6243,36.808L24.5464,36.489C24.6051,36.4808,24.6596,36.4529,24.7014,36.4095L24.7014,36.2496C24.7014,36.1701,24.7014,36.1701,24.6243,36.1701L24.3923,35.852L23.698,36.1701L23.7751,36.489L23.7751,36.5685C23.7832,36.6288,23.8102,36.6847,23.8521,36.7276L24.0833,36.7276L24.2382,36.967L23.3119,37.3655L23.157,37.0466C23.3119,36.967,23.389,36.808,23.389,36.489L23.3119,34.4215ZM23.698,34.979L23.698,35.7742L24.1612,35.6152L23.698,34.979ZM19.9149,35.1381L21.3043,34.979C21.6134,34.8995,21.9224,34.8995,22.0748,34.979C22.2289,35.1381,22.3839,35.2971,22.3839,35.5366C22.4609,35.6956,22.3839,35.8555,22.3068,36.0146C22.2289,36.0941,22.1519,36.2531,21.9207,36.3335L22.538,36.891C22.615,36.9706,22.6921,37.0501,22.77,37.0501C22.8479,37.0501,22.9241,37.1296,23.0012,37.0501L23.0012,37.369L22.3068,37.5281L21.3026,36.4926L21.0715,36.5721L21.1485,36.891C21.1516,37.0387,21.2063,37.1803,21.3026,37.2895Q21.3805,37.369,21.5346,37.2895L21.5346,37.6871L20.3763,37.847L20.2993,37.5281C20.4542,37.5281,20.5313,37.4486,20.5313,37.369C20.6083,37.369,20.6083,37.2091,20.5313,36.9706L20.3763,35.935C20.3736,35.7873,20.3188,35.6456,20.2222,35.5366Q20.1452,35.457,19.9911,35.5366L19.9149,35.1381ZM21.0732,36.1736L21.1502,36.1736C21.3822,36.0941,21.5363,36.0941,21.6904,36.0146C21.7527,35.8921,21.7794,35.7538,21.7675,35.6161C21.7675,35.5366,21.6904,35.3775,21.6134,35.3775C21.4593,35.2971,21.3822,35.2971,21.1502,35.2971C21.0917,35.3056,21.0375,35.3339,20.9961,35.3775C20.9191,35.457,20.9191,35.5366,20.9961,35.6956L21.0732,36.1736ZM17.754,35.6143C17.9973,35.3568,18.3319,35.2129,18.6804,35.2158C19.0665,35.2158,19.3747,35.2953,19.6067,35.5348C19.8576,35.8172,19.9956,36.1872,19.9928,36.5703C19.9928,36.9688,19.9149,37.3655,19.6837,37.6058C19.4398,37.8619,19.1053,38.0042,18.7574,37.9999C18.3713,37.9999,18.0631,37.9204,17.8311,37.6809C17.522,37.4424,17.445,37.0439,17.445,36.6454C17.3802,36.2703,17.4954,35.8861,17.754,35.6143ZM19.1435,35.7733C18.9894,35.6143,18.8345,35.5348,18.6804,35.5348C18.4483,35.5348,18.2942,35.6143,18.2172,35.8538C18.1138,36.1052,18.0613,36.3758,18.0631,36.649C18.0572,36.9325,18.1381,37.2107,18.2942,37.4441C18.3713,37.6032,18.5263,37.6827,18.7574,37.6827C18.9115,37.6827,19.0665,37.6032,19.2206,37.3646C19.3308,37.1157,19.3579,36.836,19.2976,36.5694C19.291,36.2972,19.2389,36.0282,19.1435,35.7742L19.1435,35.7733ZM15.2842,34.9782L16.5957,35.1372C16.9048,35.1372,17.0589,35.2962,17.2138,35.4562C17.3688,35.6161,17.445,35.7742,17.3679,36.0932C17.3679,36.3326,17.2909,36.4917,17.0589,36.5712C16.9048,36.7302,16.6736,36.7302,16.4416,36.7302L15.9785,36.6507L15.9785,37.3682C15.9785,37.4477,16.0555,37.4477,16.2105,37.4477L16.1326,37.7667L14.9751,37.6862L15.0522,37.2886C15.1292,37.3682,15.2063,37.2886,15.2842,37.2886C15.2842,37.2082,15.3612,37.0492,15.3612,36.8902L15.5153,35.8546L15.5153,35.3766C15.4383,35.3766,15.3612,35.2962,15.2842,35.2962L15.2842,34.9782ZM16.0547,36.3326L16.1317,36.3326C16.3637,36.4122,16.5178,36.3326,16.5949,36.2522C16.6728,36.2522,16.7498,36.0932,16.7498,35.9342C16.7498,35.7751,16.731,35.6762,16.6728,35.6152C16.596,35.5197,16.4838,35.462,16.3637,35.4562L16.213,35.4562C16.1351,35.5357,16.1351,35.6152,16.1351,35.7742L16.0547,36.3326ZM12.8126,34.1812L14.125,34.5797C14.434,34.6592,14.6652,34.8182,14.7422,34.9782C14.8972,35.1372,14.8972,35.2962,14.8972,35.5357C14.8201,35.7742,14.7422,35.8546,14.5881,35.9342C14.4595,36.047,14.2935,36.104,14.125,36.0932L14.434,36.8884C14.4236,36.9758,14.4519,37.0635,14.5111,37.127C14.5881,37.127,14.6652,37.2065,14.7422,37.2065L14.5881,37.5254L13.8938,37.2869L13.5077,36.0119L13.2757,35.9324L13.1216,36.2505C13.1216,36.4104,13.0446,36.5694,13.1216,36.649C13.1216,36.7285,13.1987,36.7285,13.2757,36.8089L13.1987,37.127L12.0412,36.7285L12.1183,36.4104C12.2724,36.4899,12.3494,36.4899,12.4273,36.4104L12.5814,36.0914L12.8905,35.0559C12.8905,34.8165,12.9675,34.7369,12.8905,34.6574C12.8826,34.5729,12.8175,34.5061,12.7355,34.4984L12.8126,34.1812ZM13.3528,35.5357L13.4307,35.6152L13.5077,35.6152C13.7389,35.6947,13.8938,35.6947,13.9709,35.6152C14.125,35.6152,14.202,35.5357,14.2791,35.3766C14.2791,35.2962,14.2611,35.1186,14.202,35.0577C14.1132,34.9603,14.009,34.8794,13.8938,34.8182L13.6618,34.8182C13.5848,34.8986,13.5077,34.9782,13.5077,35.0577L13.3528,35.5357ZM10.6517,33.5441C10.9599,33.3842,11.346,33.4646,11.6551,33.6237C12.0412,33.7827,12.2724,34.0221,12.3494,34.4189C12.4472,34.7707,12.3909,35.1491,12.1953,35.4544C12.0412,35.8529,11.7322,36.0914,11.4248,36.2496C11.0913,36.3408,10.7376,36.3128,10.4214,36.1701C10.1132,35.9315,9.88124,35.6921,9.72714,35.3749C9.65009,34.9764,9.72714,34.6574,9.88124,34.2589C10.1132,33.8605,10.3444,33.6219,10.6517,33.5424L10.6517,33.5441ZM11.8092,34.3393C11.8092,34.1803,11.7322,34.0213,11.501,33.9417C11.346,33.7818,11.1919,33.8613,10.9599,33.9417C10.7682,34.1222,10.611,34.3383,10.4968,34.5788C10.3607,34.8783,10.2656,35.1363,10.2656,35.374C10.3427,35.6125,10.4197,35.6921,10.5747,35.852C10.7532,35.9452,10.9692,35.9131,11.1149,35.7716C11.3449,35.6309,11.5115,35.4018,11.5781,35.1345C11.7322,34.8156,11.8092,34.577,11.8092,34.3393ZM9.87782,32.9009C9.87782,32.7419,9.80077,32.6624,9.80077,32.5828C9.72372,32.5033,9.64667,32.4229,9.56962,32.4229Q9.1056,32.0695,8.6433,32.1843C8.2572,32.1843,8.02519,32.4229,7.71699,32.7419C7.51049,33.0447,7.40229,33.4072,7.40794,33.7774C7.40794,34.0964,7.63909,34.4153,7.87109,34.6539C8.07409,34.8036,8.31596,34.887,8.5654,34.8933C8.7974,34.9728,9.10646,34.8933,9.3359,34.7334L9.1818,34.4153C9.01775,34.5148,8.83183,34.5696,8.64159,34.5744C8.48663,34.5744,8.33253,34.4948,8.17843,34.4153C8.02546,34.2733,7.94064,34.0692,7.94643,33.8569C7.94643,33.6184,8.10053,33.3789,8.25549,33.1404C8.48664,32.9009,8.64159,32.7419,8.87274,32.6623C9.10389,32.5828,9.25885,32.5828,9.41295,32.7419C9.55722,32.8186,9.64707,32.9729,9.64495,33.1404C9.65743,33.3558,9.63131,33.5717,9.56791,33.7774L9.87611,33.8569L10.1852,32.9009L10.0302,32.7419L9.87611,32.9009L9.87782,32.9009ZM6.09808,29.1573L6.86858,30.1133C7.1272,30.3907,7.26642,30.7641,7.25469,31.1488C7.17981,31.4976,6.98823,31.8079,6.71363,32.0253C6.32838,32.3434,6.01932,32.4229,5.71026,32.4229C5.33887,32.3288,5.01114,32.1034,4.78395,31.7859L4.08964,30.8299L4.3208,30.6708C4.38264,30.7319,4.46782,30.7611,4.5528,30.7503L4.861,30.5913L5.6315,29.8739C5.86351,29.7943,5.94056,29.6353,5.94056,29.5558C5.93507,29.4944,5.90759,29.4374,5.86351,29.3959L6.09808,29.1573ZM5.1692,31.1488Q4.93805,31.2681,4.93805,31.3874C4.94354,31.4487,4.97102,31.5058,5.0151,31.5473C5.1692,31.7063,5.40121,31.8654,5.55531,31.8654C5.79993,31.7931,6.03361,31.6861,6.24962,31.5473C6.55867,31.3079,6.71277,31.0693,6.71277,30.9094C6.78387,30.6841,6.72403,30.4367,6.55867,30.2723C6.55867,30.1928,6.48162,30.1928,6.40457,30.1928C6.32276,30.2026,6.24378,30.2297,6.17256,30.2723L5.1692,31.1488ZM5.0151,28.2013C5.07429,28.2648,5.1026,28.3524,5.09215,28.4398L4.7831,28.7588L3.93383,29.3959C3.77973,29.4754,3.62563,29.5558,3.54858,29.5558L3.39363,29.3959L3.08543,29.6353L3.77973,30.5913L4.08879,30.4314C4.04755,30.3581,4.02132,30.2769,4.01174,30.1928C4.01174,30.1133,4.16584,29.9534,4.31994,29.8739L5.1692,29.2368C5.3233,29.1573,5.40121,29.0778,5.47826,29.0778C5.55531,29.0778,5.63236,29.1573,5.70941,29.2368L5.94141,28.9974L5.24625,28.0414L5.0151,28.2013ZM4.01431,25.6514Q4.03571,25.6664,4.63156,26.9263C4.77111,27.2223,4.86271,27.4838,4.86271,27.6438C4.86271,27.8823,4.70861,28.0414,4.47746,28.1218C4.32251,28.2013,4.16841,28.2808,4.01431,28.2013C3.85935,28.2013,3.7823,28.1218,3.6282,27.9618L3.24209,28.757C3.24209,28.8366,3.16505,28.9161,3.16505,28.9956C3.15446,29.0833,3.18277,29.1713,3.24209,29.235L2.93304,29.3941L2.62484,28.6775L3.24209,27.4856L3.08799,27.247L2.8577,27.4043C2.70997,27.4456,2.57629,27.5285,2.47159,27.6438C2.46099,27.7314,2.48967,27.8192,2.5495,27.8823L2.24044,28.0414L1.70024,27.0058L1.93139,26.8468C2.00844,26.9263,2.08634,27.0058,2.16339,27.0058C2.24044,27.0058,2.31749,26.9263,2.5495,26.8468L3.39791,26.3688C3.62991,26.2098,3.70696,26.1294,3.78401,26.1294C3.7874,26.018,3.76072,25.9079,3.70696,25.8113L4.01431,25.6514ZM3.39619,27.0854L3.4741,27.0854L3.4741,27.1658C3.6282,27.4043,3.70525,27.4838,3.85935,27.5634C3.94767,27.6437,4.08009,27.6437,4.16841,27.5634C4.32251,27.4838,4.32251,27.4043,4.39956,27.3248C4.41147,27.1871,4.38472,27.0488,4.32251,26.9263C4.24546,26.8468,4.16841,26.7673,4.09136,26.7673C4.00955,26.7771,3.93057,26.8041,3.85935,26.8468L3.39619,27.0854ZM3.6282,25.0117L3.6282,24.6936C3.6282,24.6132,3.55115,24.5336,3.55115,24.4541C3.39619,24.0556,3.16505,23.8966,2.85599,23.7376C2.54693,23.5785,2.23873,23.6572,1.85263,23.7376C1.46652,23.8966,1.15832,24.1352,1.00336,24.4541C0.823011,24.7093,0.793396,25.0461,0.926313,25.3306C0.928623,25.4552,0.985236,25.572,1.08041,25.6487C1.15832,25.7291,1.31242,25.8086,1.38947,25.8881L1.23537,26.0472L1.38947,26.4457L2.00673,26.1267L2.31578,26.1267C2.39283,26.1267,2.39283,26.2071,2.46988,26.2866L2.77894,26.1267L2.39283,25.0912L2.0872,25.2537C2.16406,25.3135,2.16406,25.4326,2.0872,25.4923C2.0453,25.5355,1.9909,25.5634,1.93224,25.5718C1.8151,25.6514,1.66328,25.6514,1.54614,25.5718C1.46909,25.5718,1.39204,25.4128,1.31499,25.3333C1.23794,25.0938,1.31499,24.9348,1.39204,24.7757C1.54614,24.6158,1.77814,24.5363,2.0872,24.3773C2.3954,24.2977,2.62741,24.2182,2.8577,24.2977C3.01979,24.2954,3.16926,24.3877,3.24381,24.5363L3.24381,25.0117C3.13932,25.191,3.00915,25.3531,2.8577,25.4923L3.08971,25.7318L3.78401,25.1742L3.70525,25.0117L3.6282,25.0117ZM26.8622,33.1404C26.9241,33.0792,27.0092,33.05,27.0942,33.0608L27.4024,33.3789L27.9435,34.2554C28.0205,34.4948,28.0976,34.5744,28.0976,34.6539C28.0976,34.7334,28.0205,34.8129,27.9435,34.8933L28.0976,35.1319L29.1009,34.4948L28.9468,34.1759C28.8849,34.2369,28.7998,34.2661,28.7148,34.2554C28.6378,34.2554,28.5607,34.0964,28.4837,33.9373L27.9418,33.0608C27.7868,32.9009,27.7098,32.7419,27.7098,32.6624C27.7868,32.5828,27.7868,32.5033,27.8639,32.5033L27.7098,32.1843L26.7064,32.8214L26.8622,33.1404ZM31.9655,19.1988C31.9655,25.7768,27.4375,31.254,21.455,32.6518C19.432,31.9211,17.6522,30.237,16.3372,27.93Q16.963,27.9618,17.6025,27.9618C23.6227,27.9618,28.7174,25.8908,30.6471,23.0228C27.9461,25.2537,23.6227,26.7673,18.76,26.7673C17.7177,26.7676,16.6765,26.6982,15.6429,26.5596C15.3288,25.8565,15.06,25.1328,14.8381,24.3932C16.3144,24.6037,17.8059,24.6782,19.295,24.6158C25.2493,24.3658,30.1968,22.0959,31.9655,19.1184L31.9655,19.1988ZM18.9526,32.9866Q18.7018,32.9972,18.4492,32.9972C12.9969,33.022,8.0657,29.6588,5.94998,24.4727C7.15966,25.4985,8.81624,26.3608,10.7725,26.9714C11.6791,29.0804,12.9204,30.7159,14.3553,31.6268C13.3023,30.4703,12.4145,28.9762,11.7501,27.2497C12.595,27.4652,13.4511,27.6307,14.3142,27.7454C15.4357,30.3678,17.0717,32.2718,18.9492,32.9866L18.9526,32.9866ZM5.04935,21.0039C4.97295,20.4055,4.93463,19.8025,4.93463,19.1988C4.93463,13.4177,8.39246,8.48566,13.3125,6.42786C10.8409,8.76839,9.18608,13.3629,9.18608,18.6412C9.18521,19.78,9.26561,20.9172,9.42664,22.0438C8.26258,21.5729,7.16767,20.9371,6.17342,20.1548C6.93365,21.2009,8.09539,22.1092,9.55249,22.8293C9.68465,23.5598,9.85614,24.2822,10.0662,24.9931C7.85226,23.9841,6.10236,22.6022,5.05106,21.0038L5.04935,21.0039ZM17.9501,5.41089C18.1162,5.4047,18.2814,5.40028,18.4483,5.40028C24.9908,5.40028,30.5195,10.2077,31.7181,16.5985C29.9202,20.3094,24.561,23.2119,18.1376,23.4213C16.9382,23.4817,15.7362,23.4475,14.5419,23.3188C14.1554,21.6833,13.962,20.0056,13.9657,18.3223C13.9657,13.4627,15.5068,9.08117,17.9039,6.4526C14.8938,8.36461,12.7321,13.4627,12.7321,19.4408C12.731,20.6647,12.8243,21.8867,13.0112,23.0952C12.1885,22.9444,11.3763,22.7377,10.5798,22.4767C10.4709,21.578,10.4163,20.6706,10.4163,19.7598C10.4163,12.7797,13.6361,6.93414,17.9458,5.41442L17.9501,5.41089ZM13.7492,26.2195C13.5262,25.5212,13.3413,24.8106,13.1952,24.091C12.3492,23.9,11.5175,23.6466,10.7065,23.3329C10.8215,24.0476,10.9735,24.7555,11.162,25.4534C12.006,25.7688,12.8695,26.0259,13.7466,26.223L13.7492,26.2195Z" fill="#FFFFFF" fill-opacity="1"/></g><g><path d="M33.14604031982422,19.1987828125C33.14574031982422,23.1863828125,31.59324031982422,27.0066828125,28.837240319824218,29.8014828125C23.07874031982422,35.672382812500004,13.818840319824218,35.6810828125,8.050010319824219,29.8208828125C2.318850319824219,23.9770828125,2.318850319824219,14.4267828125,8.050010319824219,8.5829028125C13.818240319824218,2.7213128125,23.07934031982422,2.7299728125,28.837240319824218,8.6023428125C31.593540319824218,11.3972028125,33.14604031982422,15.2175828125,33.14604031982422,19.2049828125L33.14604031982422,19.1987828125ZM32.775340319824224,19.1987828125C32.77564031982422,15.3146828125,31.264140319824218,11.5931528125,28.58044031982422,8.870062812499999C22.965640319824217,3.1474028125,13.938740319824218,3.1387528125,8.313690319824218,8.8506228125C2.7295003198242185,14.5460828125,2.7295003198242185,23.8523828125,8.313690319824218,29.5478828125C13.939340319824218,35.2582828125,22.96504031982422,35.2496828125,28.58044031982422,29.5284828125C31.26404031982422,26.8039828125,32.775340319824224,23.0823828125,32.775340319824224,19.1987828125Z" fill="#FFFFFF" fill-opacity="1"/></g></g></svg>