<svg xmlns="http://www.w3.org/2000/svg" xmlns:xlink="http://www.w3.org/1999/xlink" fill="none" version="1.1" width="24" height="24" viewBox="0 0 24 24"><defs><clipPath id="master_svg0_34_17715/34_51529"><rect x="0" y="0" width="24" height="24" rx="0"/></clipPath></defs><g clip-path="url(#master_svg0_34_17715/34_51529)"><g><path d="M4.63755,8.567995Q1.5086789999999999,9.78478,1.007414,13.87846Q1,13.939,1,14Q1,14.03058,1.001868,14.0611Q1.007182,14.1479,1.0273970000000001,14.23247Q1.0476109999999998,14.31704,1.0821209999999999,14.39686Q1.116631,14.47668,1.164399,14.54934Q1.2121680000000001,14.622,1.2717610000000001,14.68532Q1.3313540000000001,14.74865,1.400984,14.800740000000001Q1.470613,14.852820000000001,1.5481880000000001,14.892109999999999Q1.625763,14.9314,1.708955,14.956710000000001Q1.792147,14.98202,1.878459,14.99259Q1.9390035,15,2,15Q2.0117424,15,2.0234836,14.99972Q2.184837,14.995930000000001,2.336804,14.94158Q2.488772,14.88722,2.615922,14.78781Q2.772627,14.665289999999999,2.870519,14.49214Q2.96841,14.31898,2.992586,14.12154Q3.34846,11.21522,5.36245,10.432005Q5.43247,10.404772,5.4976400000000005,10.367382Q5.56281,10.329992,5.62167,10.283283Q5.68052,10.236574,5.731730000000001,10.181595Q5.78294,10.126617,5.82536,10.064603Q5.86778,10.00259,5.90046,9.934934Q5.93314,9.867277,5.95534,9.795498Q5.97755,9.723718,5.988770000000001,9.649426Q6,9.575135,6,9.5Q6,9.49065436,5.99983,9.4813104Q5.9965,9.303398,5.932,9.137554Q5.90477,9.067528,5.86738,9.002357Q5.8299900000000004,8.937186,5.7832799999999995,8.878334Q5.73657,8.819483,5.6815999999999995,8.768271Q5.62662,8.717059,5.5646,8.674638Q5.50259,8.632216,5.43493,8.599537Q5.36728,8.566859000000001,5.2955000000000005,8.544657Q5.22372,8.522454,5.149430000000001,8.511227Q5.07513,8.5,5,8.5Q4.9906500000000005,8.5,4.981310000000001,8.500175Q4.8034,8.5035,4.63755,8.567995Z" fill-rule="evenodd" fill="#FFFFFF" fill-opacity="1"/></g><g><path d="M21.00739,14.12132L21.00741,14.12154Q21.01845,14.21167,21.04554,14.29834Q21.07263,14.38502,21.1149,14.46539Q21.15716,14.545770000000001,21.2132,14.61721Q21.26925,14.688659999999999,21.33725,14.748840000000001Q21.40526,14.80903,21.48299,14.855979999999999Q21.56072,14.90293,21.64563,14.93511Q21.73055,14.96729,21.81987,14.983640000000001Q21.90919,15,22,15L22.00888,14.99996Q22.06542,14.99946,22.12154,14.99259Q22.211669999999998,14.98155,22.29834,14.954460000000001Q22.38502,14.92737,22.46539,14.885100000000001Q22.54577,14.842839999999999,22.61721,14.7868Q22.68866,14.73075,22.74884,14.662749999999999Q22.80903,14.594750000000001,22.85598,14.517019999999999Q22.90293,14.43929,22.93511,14.35437Q22.96729,14.269449999999999,22.98364,14.18013Q23,14.090810000000001,23,14L22.99996,13.991119999999999Q22.99946,13.93458,22.99259,13.87846L22.99257,13.87832L22.9925,13.87774Q22.49112,9.785123,19.363135,8.568263L19.362444,8.567994Q19.1876,8.5,19,8.5L18.99392957,8.500018Q18.9191774,8.500472,18.845323,8.512035000000001Q18.771469,8.523597,18.700155,8.546012Q18.628841,8.568426,18.561652,8.601194Q18.494463,8.633963,18.432893,8.676356Q18.371323,8.718749,18.316739,8.769825Q18.262156,8.820902,18.215774,8.879525Q18.169391,8.938149,18.13224,9.003017Q18.095088,9.067886,18.067994,9.137556Q18,9.3124,18,9.5L18.000018,9.50607043Q18.000472,9.5808226,18.012035,9.654677Q18.023598,9.728531,18.046012,9.799845Q18.068426,9.871159,18.101195,9.938348Q18.133963,10.005537,18.176356,10.067107Q18.218749,10.128677,18.269825,10.183261Q18.320902,10.237844,18.379525,10.284226Q18.438149,10.330609,18.503017,10.36776Q18.567886,10.404912,18.637556,10.432006L18.63804,10.432193999999999Q20.65152,11.21554,21.00739,14.12132Z" fill-rule="evenodd" fill="#FFFFFF" fill-opacity="1"/></g><g><path d="M8.763814,10.471708Q10.54817,10.90542,11.02051,13.2015Q11.03778,13.28544,11.06908,13.36522Q11.10038,13.44501,11.1448,13.5183Q11.18922,13.59159,11.245470000000001,13.65626Q11.30171,13.72093,11.36814,13.775079999999999Q11.43456,13.829229999999999,11.50924,13.87129Q11.58391,13.913350000000001,11.66465,13.94209Q11.74539,13.97083,11.82984,13.985420000000001Q11.9143,14,12,14Q12.00995,14,12.0199,13.9998Q12.11163,13.99798,12.2015,13.97949Q12.28544,13.96222,12.36522,13.93092Q12.44501,13.899619999999999,12.5183,13.8552Q12.59159,13.810780000000001,12.65626,13.754529999999999Q12.72093,13.69829,12.775079999999999,13.63186Q12.829229999999999,13.565439999999999,12.87129,13.49076Q12.91335,13.41609,12.94209,13.33535Q12.97083,13.25461,12.98542,13.17016Q13,13.0857,13,13Q13,12.99005,12.9998,12.9801Q12.99798,12.88837,12.97949,12.7985Q12.25189,9.261594,9.236718,8.528421L9.236186,8.528292Q9.119787,8.5,8.999999899844,8.5Q8.9798395,8.5,8.9596954,8.500813Q8.878833,8.504074,8.799547,8.520297Q8.720261,8.536519,8.644615,8.56528Q8.568969,8.594041,8.498933,8.634592Q8.428897,8.675142,8.366293,8.726427Q8.303688,8.777712,8.250146,8.838397Q8.196603,8.899082,8.153516,8.967586Q8.110428,9.036091,8.078917,9.110633Q8.047406,9.185175,8.028292,9.263814Q8,9.380213,8,9.5Q8,9.5201605,8.000813,9.5403046Q8.004075,9.621167,8.020297,9.700453Q8.036519,9.779739,8.06528,9.855385Q8.094041,9.931031,8.134592,10.001067Q8.175142,10.071103,8.226427,10.133707Q8.277712,10.196312,8.338397,10.249854Q8.399082,10.303397,8.467586,10.346484Q8.536091,10.389572,8.610633,10.421083Q8.685175,10.452594,8.763814,10.471708Z" fill-rule="evenodd" fill="#FFFFFF" fill-opacity="1"/></g><g><path d="M15.235990000000001,10.471756L15.23619,10.471708Q15.25578,10.466946,15.27516,10.461399Q15.45634,10.409544,15.60622,10.295299Q15.7561,10.181054,15.85411,10.020093Q15.87226,9.99029,15.88828,9.959295000000001Q16,9.743234,16,9.5Q16,9.380213,15.97171,9.263815Q15.96695,9.244225,15.9614,9.224842Q15.90954,9.043661,15.795300000000001,8.893782999999999Q15.681049999999999,8.743904,15.52009,8.64589Q15.49029,8.627742,15.45929,8.611716Q15.24323,8.5,15,8.5Q14.88021,8.5,14.76381,8.528292Q11.748344,9.261239,11.020594,12.7981L11.020510999999999,12.7985Q11,12.89821,11,13Q11,13.02046,11.000836,13.040890000000001Q11.01219,13.318290000000001,11.164916999999999,13.55012Q11.274344,13.71623,11.439008,13.82782Q11.603671,13.939409999999999,11.798504,13.97949Q11.898208,14,12,14Q12.0379517,14,12.0757962,13.997119999999999Q12.156492,13.99099,12.235151,13.97196Q12.313811,13.95293,12.388386,13.9215Q12.462961,13.89006,12.531512,13.84705Q12.600063,13.80404,12.660804,13.75056Q12.721546,13.69708,12.772898,13.63453Q12.824249,13.57198,12.864875,13.50199Q12.9055,13.431989999999999,12.934341,13.35638Q12.963182,13.28076,12.979489000000001,13.2015L12.979623,13.200849999999999Q13.45205,10.90548,15.235990000000001,10.471756Z" fill-rule="evenodd" fill="#FFFFFF" fill-opacity="1"/></g><g><path d="M6.054111,19.67551L6.054054,19.67568Q6,19.83333,6,20L6.00008,20.01268Q6.002933,20.23755,6.101783,20.43955Q6.189216,20.61822,6.338365,20.74983Q6.487515,20.88143,6.675676,20.94595Q6.833333,21,7,21L7.0126834,20.99992Q7.237554,20.99707,7.439553,20.89822Q7.618219,20.81078,7.749826,20.66163Q7.8814340000000005,20.51248,7.945946,20.32432Q8.65509,18.25598,10.17579,17.984428Q10.37161,17.949461,10.53913,17.84222Q10.70666,17.73498,10.8204,17.571793Q10.90809,17.445978,10.954039999999999,17.299669Q11,17.153359,11,17.00000186055L10.99998,16.99314072Q10.99939,16.9080132,10.98443,16.824209Q10.94946,16.628394,10.842220000000001,16.460866Q10.73498,16.293338,10.57179,16.179602Q10.44598,16.091913,10.299669999999999,16.045956Q10.15336,16,10,16L9.99314,16.000024Q9.90801,16.000607,9.8242,16.015574L9.82384,16.015639Q7.144902,16.494226,6.054111,19.67551Z" fill-rule="evenodd" fill="#FFFFFF" fill-opacity="1"/></g><g><path d="M13.824209,17.984428Q15.34491,18.25598,16.05405,20.32432Q16.11857,20.51248,16.25017,20.66163Q16.38178,20.81078,16.56045,20.89822Q16.76844,21,17,21L17.01216,20.99993Q17.17257,20.99798,17.32432,20.94595Q17.51248,20.88143,17.66163,20.74983Q17.81078,20.61822,17.89822,20.43955Q18,20.23156,18,20L17.99993,19.98784Q17.99798,19.82743,17.94595,19.67568Q16.85516,16.494226,14.176139,16.015635L14.17589,16.01559L14.175791,16.015572Q14.088585,16,14,16Q13.99113484,16,13.9822711,16.000157Q13.83347,16.002796,13.691886,16.048651Q13.550302,16.094505,13.428207,16.179602Q13.26502,16.293338,13.15778,16.460867Q13.050539,16.628395,13.015572,16.824209Q13,16.911415,13,17Q13,17.00886516,13.000157,17.0177289Q13.002796,17.16653,13.048651,17.308114Q13.094505,17.449697,13.179602,17.571793Q13.293339,17.73498,13.460867,17.84222Q13.628395,17.949461,13.824209,17.984428Z" fill-rule="evenodd" fill="#FFFFFF" fill-opacity="1"/></g><g><ellipse cx="12" cy="15.5" rx="2.5" ry="2.5" fill-opacity="0" stroke-opacity="1" stroke="#FFFFFF" fill="none" stroke-width="2" stroke-linecap="ROUND" stroke-linejoin="round"/></g><g><ellipse cx="17" cy="7" rx="3" ry="3" fill-opacity="0" stroke-opacity="1" stroke="#FFFFFF" fill="none" stroke-width="2" stroke-linecap="ROUND" stroke-linejoin="round"/></g><g><ellipse cx="7" cy="7" rx="3" ry="3" fill-opacity="0" stroke-opacity="1" stroke="#FFFFFF" fill="none" stroke-width="2" stroke-linecap="ROUND" stroke-linejoin="round"/></g></g></svg>