<svg xmlns="http://www.w3.org/2000/svg" xmlns:xlink="http://www.w3.org/1999/xlink" fill="none" version="1.1" width="24" height="24" viewBox="0 0 24 24"><g><g><g><g></g><g><g><path d="M6.654056,14.2735Q6,15.5538,6,17Q6,19.4853,7.757359,21.2426Q9.51472,23,12,23Q14.48528,23,16.24264,21.2426Q18,19.4853,18,17Q18,15.5538,17.3459,14.2735Q16.83206,13.2676,16,12.5267L16,5Q16,3.34314,14.82843,2.171573Q13.65685,1,12,1Q10.34315,1,9.17157,2.171573Q8,3.34315,8,5L8,12.5267Q7.167943,13.2676,6.654056,14.2735ZM9.17157,19.8284Q8,18.6569,8,17Q8,15.0014,9.60058,13.7992Q9.6936,13.7293,9.7681,13.64Q9.842600000000001,13.5506,9.89459,13.4465Q9.94658,13.3424,9.97329,13.2292Q10,13.116,10,12.9996L10,5Q10,4.17157,10.58579,3.5857900000000003Q11.17157,3,12,3Q12.82843,3,13.41421,3.5857900000000003Q14,4.17157,14,5L14,12.9996Q14,13.116,14.02671,13.2292Q14.05342,13.3424,14.10541,13.4465Q14.157399999999999,13.5506,14.2319,13.64Q14.3064,13.7293,14.39942,13.7992Q16,15.0014,16,17Q16,18.6569,14.82843,19.8284Q13.65686,21,12,21Q10.34315,21,9.17157,19.8284Z" fill-rule="evenodd" fill="#FFFFFF" fill-opacity="1"/></g><g><path d="M11,8.5L11,15Q11,15.09849,11.019214999999999,15.19509Q11.03843,15.29169,11.076121,15.38268Q11.113812,15.47368,11.16853,15.55557Q11.223249,15.63746,11.292893,15.70711Q11.362537,15.77675,11.44443,15.83147Q11.526322,15.88619,11.617317,15.92388Q11.708311,15.96157,11.80491,15.98078Q11.9015086,16,12,16Q12.0984914,16,12.19509,15.98078Q12.291689,15.96157,12.382683,15.92388Q12.473678,15.88619,12.55557,15.83147Q12.637463,15.77675,12.707107,15.70711Q12.776751,15.63746,12.83147,15.55557Q12.886188,15.47368,12.923879,15.38268Q12.96157,15.29169,12.980785000000001,15.19509Q13,15.09849,13,15L13,8.5Q13,8.4015086,12.980785000000001,8.30491Q12.96157,8.208311,12.923879,8.117317Q12.886188,8.026322,12.83147,7.94443Q12.776751,7.862537,12.707107,7.792893Q12.637463,7.723249,12.55557,7.66853Q12.473678,7.613812,12.382683,7.576121Q12.291689,7.53843,12.19509,7.519215Q12.0984914,7.5,12,7.5Q11.9015086,7.5,11.80491,7.519215Q11.708311,7.53843,11.617317,7.576121Q11.526322,7.613812,11.44443,7.66853Q11.362537,7.723249,11.292893,7.792893Q11.223249,7.862537,11.16853,7.94443Q11.113812,8.026322,11.076121,8.117317Q11.03843,8.208311,11.019214999999999,8.30491Q11,8.4015086,11,8.5Z" fill-rule="evenodd" fill="#FFFFFF" fill-opacity="1"/></g><g><ellipse cx="12" cy="17" rx="2" ry="2" fill-opacity="0" stroke-opacity="1" stroke="#FFFFFF" fill="none" stroke-width="2" stroke-linejoin="round"/></g></g></g></g></g></svg>