<svg xmlns="http://www.w3.org/2000/svg" xmlns:xlink="http://www.w3.org/1999/xlink" fill="none" version="1.1" width="24" height="24" viewBox="0 0 24 24"><defs><clipPath id="master_svg0_34_17715/34_7002"><rect x="0" y="0" width="24" height="24" rx="0"/></clipPath></defs><g clip-path="url(#master_svg0_34_17715/34_7002)"><g></g><g><path d="M1.864845,7.718Q1,9.76272,1,12Q1,14.2373,1.864845,16.282Q2.699865,18.2562,4.22182,19.7782Q5.74378,21.3001,7.718,22.1352Q9.76272,23,12,23Q14.2373,23,16.282,22.1352Q18.2562,21.3001,19.7782,19.7782Q21.3001,18.2562,22.1352,16.282Q23,14.2373,23,12Q23,9.76272,22.1352,7.718Q21.3001,5.74378,19.7782,4.22182Q18.2562,2.699866,16.282,1.864845Q14.2373,1,12,1Q9.76272,1,7.718,1.864845Q5.74378,2.699866,4.22182,4.22182Q2.6998670000000002,5.74378,1.864845,7.718ZM3.70685,15.5029Q3,13.8317,3,12Q3,10.16829,3.70685,8.4971Q4.38992,6.88216,5.6360399999999995,5.6360399999999995Q6.88216,4.38991,8.4971,3.70685Q10.16829,3,12,3Q13.8317,3,15.5029,3.70685Q17.117800000000003,4.38991,18.364,5.6360399999999995Q19.6101,6.88217,20.2931,8.4971Q21,10.16829,21,12Q21,13.8317,20.2931,15.5029Q19.6101,17.117800000000003,18.364,18.364Q17.117800000000003,19.6101,15.5029,20.2931Q13.8317,21,12,21Q10.1683,21,8.4971,20.2931Q6.88216,19.6101,5.6360399999999995,18.364Q4.38991,17.117800000000003,3.70685,15.5029Z" fill-rule="evenodd" fill="#FFFFFF" fill-opacity="1"/></g><g><path d="M7.200583,17.065948046875L7.200299,17.066348046875Q7.102791,17.196248046875,7.051395,17.350248046875002Q7,17.504348046875002,7,17.666748046875L7.0000350000000005,17.675048046875Q7.0005880000000005,17.741648046875,7.00998,17.807648046875002Q7.038013,18.004648046874998,7.139272,18.175848046875Q7.240531,18.347048046875003,7.399602,18.466448046875Q7.529477,18.563948046874998,7.683536,18.615348046875Q7.837595,18.666748046875,8,18.666748046875Q8.0189689,18.666748046875,8.037929,18.666048046874998Q8.149416,18.661748046874997,8.257228,18.633148046875Q8.365041,18.604448046875,8.463878,18.552648046875Q8.562715,18.500848046875,8.647715999999999,18.428648046875Q8.732717,18.356348046875,8.799701,18.267148046875L8.799985,18.266748046875L12.80385,12.933818046875Q12.90136,12.803938046875,12.95275,12.649878046875Q13.00415,12.495818046875,13.00415,12.333418046875L13.00415,5.666748046875Q13.00415,5.568256646875,12.98494,5.471658046875Q12.965720000000001,5.375059046875,12.92803,5.284065046875Q12.89034,5.193070046875,12.835619999999999,5.111178046875Q12.780899999999999,5.029285046875,12.71126,4.959641046875Q12.64161,4.889997046875,12.55972,4.835278046875Q12.47783,4.780560046875,12.38683,4.742869046875Q12.29584,4.705178046875,12.19924,4.685963046875Q12.102640000000001,4.666748046875,12.00415,4.666748046875Q11.905660000000001,4.666748046875,11.80906,4.685963046875Q11.71246,4.705178046875,11.62147,4.742869046875Q11.530470000000001,4.780560046875,11.44858,4.835278046875Q11.36669,4.889997046875,11.297039999999999,4.959641046875Q11.2274,5.029285046875,11.17268,5.111178046875Q11.11796,5.193070046875,11.08027,5.284065046875Q11.042580000000001,5.375059046875,11.02336,5.471658046875Q11.00415,5.568256646875,11.00415,5.666748046875L11.00415,11.999808046875L7.200583,17.065948046875Z" fill-rule="evenodd" fill="#FFFFFF" fill-opacity="1"/></g></g></svg>