<svg xmlns="http://www.w3.org/2000/svg" xmlns:xlink="http://www.w3.org/1999/xlink" fill="none" version="1.1" width="24" height="24" viewBox="0 0 24 24"><defs><clipPath id="master_svg0_84_5182"><rect x="0" y="0" width="24" height="24" rx="0"/></clipPath><clipPath id="master_svg1_84_5183"><rect x="1" y="1" width="22" height="22" rx="0"/></clipPath></defs><g clip-path="url(#master_svg0_84_5182)"><g clip-path="url(#master_svg1_84_5183)"><g><rect x="1" y="1" width="22" height="22" rx="0" fill="#FFFFFF" fill-opacity="0"/></g><g><path d="M11.40864,2.0269690234375Q4.125,7.3683040234375,4.125,14.2916740234375Q4.125,17.5536740234375,6.43153,19.8601740234375Q8.73805,22.1666740234375,12,22.1666740234375Q15.2619,22.1666740234375,17.5685,19.8601740234375Q19.875,17.5536740234375,19.875,14.2916740234375Q19.875,7.3683040234375,12.59136,2.0269690234375Q12.52745,1.9800980234374999,12.456949999999999,1.9438810234375001Q12.38645,1.9076640234375,12.311119999999999,1.8830040234375Q12.235800000000001,1.8583450234374999,12.157530000000001,1.8458600234375Q12.07926,1.8333740234375,12,1.8333740234375Q11.92074,1.8333740234375,11.842469999999999,1.8458600234375Q11.764199999999999,1.8583450234374999,11.688880000000001,1.8830040234375Q11.61355,1.9076640234375,11.543050000000001,1.9438810234375001Q11.47255,1.9800980234374999,11.40864,2.0269690234375ZM7.84574,18.4459740234375Q6.125,16.7251740234375,6.125,14.2916740234375Q6.125,8.6584940234375,12,4.0864040234375Q17.875,8.6584940234375,17.875,14.2916740234375Q17.875,16.7252740234375,16.1543,18.4459740234375Q14.43352,20.1666740234375,12,20.1666740234375Q9.56649,20.1666740234375,7.84574,18.4459740234375Z" fill-rule="evenodd" fill="#000000" fill-opacity="1"/></g><g><path d="M18.558799999999998,13.3429429765625Q14.82673,14.5869559765625,12.44721,13.3971989765625Q9.326730000000001,11.8369559765625,4.808772,13.3429429765625Q4.734562,13.3676789765625,4.665101,13.4036549765625Q4.5956399999999995,13.4396299765625,4.532618,13.4859689765625Q4.469596,13.5323072765625,4.414546,13.5878820765625Q4.359496,13.6434568765625,4.313758,13.7069159765625Q4.268019,13.7703749765625,4.232705,13.8401739765625Q4.19739,13.9099729765625,4.173359,13.9844149765625Q4.1493269999999995,14.0588559765625,4.137164,14.1361289765625Q4.125,14.2134019765625,4.125,14.2916259765625Q4.125,17.5535659765625,6.43153,19.860095976562498Q8.73806,22.1666259765625,12,22.1666259765625Q15.2619,22.1666259765625,17.5685,19.860095976562498Q19.875,17.5535659765625,19.875,14.2916279765625Q19.875,14.1931359765625,19.855800000000002,14.0965369765625Q19.8366,13.9999379765625,19.7989,13.9089439765625Q19.761200000000002,13.8179489765625,19.7065,13.7360569765625Q19.651699999999998,13.6541637765625,19.5821,13.5845197765625Q19.5125,13.5148756765625,19.4306,13.4601569765625Q19.3487,13.4054379765625,19.2577,13.3677469765625Q19.1667,13.3300559765625,19.0701,13.310840976562499Q18.9735,13.2916259765625,18.875,13.2916259765625Q18.712699999999998,13.2916259765625,18.558799999999998,13.3429429765625ZM6.16514,15.0183459765625Q9.408249999999999,14.1137869765625,11.55279,15.1860559765625Q14.15437,16.4868459765625,17.7273,15.6563759765625Q17.3709,17.2292859765625,16.1543,18.4458859765625Q14.43352,20.1666259765625,12,20.1666259765625Q9.56648,20.1666259765625,7.84574,18.4458859765625Q6.38781,16.9879559765625,6.16514,15.0183459765625Z" fill-rule="evenodd" fill="#000000" fill-opacity="1"/></g></g></g></svg>