<svg xmlns="http://www.w3.org/2000/svg" xmlns:xlink="http://www.w3.org/1999/xlink" fill="none" version="1.1" width="24" height="24" viewBox="0 0 24 24"><defs><clipPath id="master_svg0_84_5098"><rect x="0" y="0" width="24" height="24" rx="0"/></clipPath><clipPath id="master_svg1_84_5099"><rect x="2" y="2" width="20" height="20" rx="0"/></clipPath></defs><g clip-path="url(#master_svg0_84_5098)"><g clip-path="url(#master_svg1_84_5099)"><g><path d="M3.5,18.33335701171875L3.5,13.16668701171875Q3.5,11.92404601171875,4.37868,11.04536701171875Q5.257359,10.16668701171875,6.5,10.16668701171875L17.5,10.16668701171875Q18.7426,10.16668701171875,19.621299999999998,11.04536701171875Q20.5,11.92404701171875,20.5,13.16668701171875L20.5,18.33335701171875Q20.5,19.575997011718748,19.621299999999998,20.45467701171875Q18.7426,21.33338701171875,17.5,21.33338701171875L6.5,21.33338701171875Q5.25736,21.33338701171875,4.37868,20.45467701171875Q3.5,19.575997011718748,3.5,18.33335701171875ZM5.5,18.33335701171875Q5.5,18.74756701171875,5.79289,19.04045701171875Q6.08579,19.33335701171875,6.5,19.33335701171875L17.5,19.33335701171875Q17.9142,19.33335701171875,18.2071,19.04045701171875Q18.5,18.74756701171875,18.5,18.33335701171875L18.5,13.16668701171875Q18.5,12.75247701171875,18.2071,12.45957701171875Q17.9142,12.16668701171875,17.5,12.16668701171875L6.5,12.16668701171875Q6.08579,12.16668701171875,5.79289,12.45957701171875Q5.5,12.75247701171875,5.5,13.16668701171875L5.5,18.33335701171875Z" fill="#000000" fill-opacity="1"/></g><g><path d="M15.166673505859375,7.83335701171875L15.166673505859375,11.16668701171875Q15.166673505859375,11.26517701171875,15.185893505859376,11.36177701171875Q15.205103505859375,11.45837701171875,15.242793505859375,11.54936701171875Q15.280483505859376,11.64036701171875,15.335203505859376,11.72225701171875Q15.389923505859375,11.80414701171875,15.459573505859375,11.87379701171875Q15.529213505859374,11.94343701171875,15.611103505859376,11.99815701171875Q15.692993505859375,12.05287701171875,15.783993505859375,12.09056701171875Q15.874983505859374,12.12825701171875,15.971583505859375,12.14746701171875Q16.068183505859373,12.16668701171875,16.166673505859375,12.16668701171875Q16.265163505859377,12.16668701171875,16.361763505859376,12.14746701171875Q16.458363505859374,12.12825701171875,16.549363505859375,12.09056701171875Q16.640353505859373,12.05287701171875,16.722243505859375,11.99815701171875Q16.804133505859376,11.94343701171875,16.873783505859375,11.87379701171875Q16.943423505859375,11.80414701171875,16.998143505859375,11.72225701171875Q17.052863505859374,11.64036701171875,17.090553505859376,11.54936701171875Q17.128243505859373,11.45837701171875,17.147463505859378,11.36177701171875Q17.166673505859375,11.26517701171875,17.166673505859375,11.16668701171875L17.166673505859375,7.83335701171875Q17.166673505859375,5.69324701171875,15.653383505859374,4.17996701171875Q14.140103505859376,2.66668701171875,12.000013505859375,2.66668701171875Q9.859913505859375,2.66668701171875,8.346633505859375,4.17996701171875Q6.833343505859375,5.6932570117187495,6.833343505859375,7.83335701171875L6.833343505859375,11.16668701171875Q6.833343505859375,11.26517701171875,6.852558505859375,11.36177701171875Q6.871773505859375,11.45837701171875,6.909464505859375,11.54936701171875Q6.947155505859375,11.64036701171875,7.001873505859375,11.72225701171875Q7.056592505859375,11.80414701171875,7.126236505859375,11.87379701171875Q7.195880505859375,11.94343701171875,7.277773505859375,11.99815701171875Q7.359665505859375,12.05287701171875,7.450660505859375,12.09056701171875Q7.541654505859375,12.12825701171875,7.638253505859375,12.14746701171875Q7.734852105859375,12.16668701171875,7.833343505859375,12.16668701171875Q7.931834905859375,12.16668701171875,8.028433505859375,12.14746701171875Q8.125032505859375,12.12825701171875,8.216026505859375,12.09056701171875Q8.307021505859375,12.05287701171875,8.388913505859374,11.99815701171875Q8.470806505859375,11.94343701171875,8.540450505859376,11.87379701171875Q8.610094505859376,11.80414701171875,8.664813505859374,11.72225701171875Q8.719531505859376,11.64036701171875,8.757222505859374,11.54936701171875Q8.794913505859375,11.45837701171875,8.814128505859376,11.36177701171875Q8.833343505859375,11.26517701171875,8.833343505859375,11.16668701171875L8.833343505859375,7.83335701171875Q8.833343505859375,6.52167701171875,9.760843505859375,5.59418701171875Q10.688343505859375,4.66668701171875,12.000013505859375,4.66668701171875Q13.311673505859375,4.66668601171875,14.239173505859375,5.59418701171875Q15.166673505859375,6.52167701171875,15.166673505859375,7.83335701171875Z" fill-rule="evenodd" fill="#000000" fill-opacity="1"/></g><g><path d="M11.000030517578125,14.5L11.000030517578125,17Q11.000030517578125,17.098489999999998,11.019245517578124,17.19509Q11.038460517578125,17.29169,11.076151517578126,17.38268Q11.113842517578124,17.47368,11.168560517578126,17.55557Q11.223279517578124,17.63746,11.292923517578124,17.70711Q11.362567517578125,17.77675,11.444460517578126,17.83147Q11.526352517578125,17.88619,11.617347517578125,17.92388Q11.708341517578125,17.961570000000002,11.804940517578125,17.98078Q11.901539117578125,18,12.000030517578125,18Q12.098521917578125,18,12.195120517578125,17.98078Q12.291719517578125,17.961570000000002,12.382713517578125,17.92388Q12.473708517578125,17.88619,12.555600517578124,17.83147Q12.637493517578125,17.77675,12.707137517578126,17.70711Q12.776781517578126,17.63746,12.831500517578124,17.55557Q12.886218517578126,17.47368,12.923909517578124,17.38268Q12.961600517578125,17.29169,12.980815517578126,17.19509Q13.000030517578125,17.098489999999998,13.000030517578125,17L13.000030517578125,14.5Q13.000030517578125,14.4015086,12.980815517578126,14.30491Q12.961600517578125,14.208311,12.923909517578124,14.117317Q12.886218517578126,14.026322,12.831500517578124,13.94443Q12.776781517578126,13.862537,12.707137517578126,13.792893Q12.637493517578125,13.723249,12.555600517578124,13.66853Q12.473708517578125,13.613812,12.382713517578125,13.576121Q12.291719517578125,13.53843,12.195120517578125,13.519214999999999Q12.098521917578125,13.5,12.000030517578125,13.5Q11.901539117578125,13.5,11.804940517578125,13.519214999999999Q11.708341517578125,13.53843,11.617347517578125,13.576121Q11.526352517578125,13.613812,11.444460517578126,13.66853Q11.362567517578125,13.723249,11.292923517578124,13.792893Q11.223279517578124,13.862537,11.168560517578126,13.94443Q11.113842517578124,14.026322,11.076151517578126,14.117317Q11.038460517578125,14.208311,11.019245517578124,14.30491Q11.000030517578125,14.4015086,11.000030517578125,14.5Z" fill-rule="evenodd" fill="#000000" fill-opacity="1"/></g></g></g></svg>