<svg xmlns="http://www.w3.org/2000/svg" xmlns:xlink="http://www.w3.org/1999/xlink" fill="none" version="1.1" width="24" height="24" viewBox="0 0 24 24"><defs><clipPath id="master_svg0_84_9982"><rect x="0" y="0" width="24" height="24" rx="0"/></clipPath></defs><g clip-path="url(#master_svg0_84_9982)"><g><rect x="0" y="0" width="24" height="24" rx="0" fill="#FFFFFF" fill-opacity="0"/></g><g><path d="M9.596274,4.685943L9.596127,4.685965Q9.508433,4.699622,9.424514,4.728509Q9.340596,4.757396,9.263077,4.800612Q9.185557,4.843827,9.116859999999999,4.900019Q9.048164,4.9562100000000004,8.990437,5.023623Q8.93271,5.091035,8.887758,5.16756Q8.842806,5.244085,8.812033,5.327331Q8.781261,5.4105766,8.76563,5.4979407Q8.75,5.5853048,8.75,5.674056L8.750023,5.680777Q8.75052,5.754793,8.761909,5.827929Q8.775566,5.915623,8.804453,5.999542Q8.83334,6.08346,8.876556,6.16098Q8.919771,6.238499,8.975961999999999,6.307196Q9.032154,6.375893,9.099567,6.433619Q9.166979,6.491346,9.243504,6.5363Q9.320029,6.58125,9.403275,6.61202Q9.486521,6.6428,9.573885,6.65843Q9.6612487,6.67406,9.75,6.67406L9.75672136,6.67403Q9.830737,6.67354,9.903873,6.6621500000000005Q12.969,6.1848220000000005,15.9315,7.0801300000000005Q18.98475,8.00286,21.3121,10.208490000000001Q21.4515,10.34052,21.6298,10.41159Q21.8081,10.48266,22,10.48266Q22.0134,10.48266,22.0268,10.4823Q22.2257,10.47695,22.407400000000003,10.39593Q22.589,10.3149,22.7258,10.17052Q22.8579,10.0312,22.9289,9.8529Q23,9.6746,23,9.48266L23,9.47978Q23,9.46779,22.9996,9.45581Q22.994300000000003,9.256969999999999,22.9133,9.07531Q22.8322,8.89364,22.6879,8.75682Q20.0167,6.225398,16.510080000000002,5.165646Q13.11186,4.13866,9.596996,4.68583L9.596274,4.685943Z" fill-rule="evenodd" fill="#000000" fill-opacity="1"/></g><g><path d="M19.70712,12.192400429687499Q17.50126,9.9864604296875,14.476314,9.2836364296875Q14.364645,9.2576904296875,14.250000286269,9.2576904296875Q14.2247636,9.2576904296875,14.1995593,9.2589634296875Q14.118734,9.2630454296875,14.039616,9.2800714296875Q13.960499,9.2970974296875,13.885149,9.3266244296875Q13.809799,9.3561514296875,13.740178,9.3974104296875Q13.670557,9.4386694296875,13.608476,9.4905874296875Q13.546396,9.5425054296875,13.493472,9.6037294296875Q13.440547,9.6649544296875,13.398157,9.7338934296875Q13.355767,9.8028314296875,13.325014,9.8776894296875Q13.294261,9.9525474296875,13.275946,10.0313764296875Q13.25,10.1430464296875,13.25,10.2576904296875Q13.25,10.2829267296875,13.251273,10.3081311296875Q13.255355,10.3889564296875,13.272381,10.4680744296875Q13.289407,10.5471914296875,13.318934,10.6225414296875Q13.348461,10.6978914296875,13.38972,10.7675124296875Q13.430979,10.8371334296875,13.482897,10.8992144296875Q13.534815,10.9612944296875,13.596039,11.0142184296875Q13.657264,11.0671434296875,13.726203,11.1095334296875Q13.795141,11.1519234296875,13.869999,11.1826764296875Q13.944857,11.2134294296875,14.023686,11.2317444296875Q16.49148,11.8051204296875,18.29288,13.6065804296875Q18.43353,13.7472404296875,18.61731,13.8233704296875Q18.80108,13.8994904296875,19,13.8994904296875Q19.02588,13.8994904296875,19.05172,13.898150429687501Q19.23697,13.8885604296875,19.40645,13.8131604296875Q19.57593,13.737770429687501,19.70709,13.6066104296875Q19.847749999999998,13.4659604296875,19.92388,13.2821804296875Q20,13.098410429687501,20,12.8994904296875Q20,12.8736104296875,19.99866,12.8477704296875Q19.989069999999998,12.6625204296875,19.91367,12.4930404296875Q19.83828,12.3235604296875,19.70712,12.192400429687499Z" fill-rule="evenodd" fill="#000000" fill-opacity="1"/></g><g><path d="M7.66674,12.123294L7.6668199999999995,12.123251Q7.78341,12.058194,7.87885,11.964827Q7.97429,11.87146,8.04189,11.756325Q8.109490000000001,11.64119,8.14452,11.512352Q8.179549999999999,11.383514,8.179549999999999,11.2500000957494Q8.179549999999999,11.2341187,8.17905,11.2182455Q8.17132,10.975134,8.0528,10.76273Q7.9877400000000005,10.646138,7.89438,10.550699Q7.80101,10.455259,7.68588,10.387657Q7.57074,10.320056,7.4419,10.285028Q7.31306,10.25,7.17955,10.25Q7.16367,10.25,7.1478,10.250504Q6.90468,10.258228,6.69228,10.376749Q5.37196,11.113481,4.293465,12.191821000000001L4.292893,12.192393Q4.152241,12.33305,4.0761199999999995,12.51682Q4,12.70059,4,12.8995Q4,13.09841,4.076121,13.28218Q4.152241,13.46595,4.292893,13.60661Q4.433546,13.74726,4.617317,13.82338Q4.801088,13.8995,5,13.8995Q5.198912,13.8995,5.382683,13.82338Q5.566455,13.74726,5.707107,13.60661Q6.5890699999999995,12.72465,7.66674,12.123294Z" fill-rule="evenodd" fill="#000000" fill-opacity="1"/></g><g><path d="M10.763490000000001,15.6661990859375L10.76421,15.6660030859375Q10.76969,15.6645010859375,10.77516,15.6629370859375Q10.96355,15.6090170859375,11.11766,15.4879810859375Q11.27177,15.3669440859375,11.3688,15.1966940859375Q11.37891,15.1789620859375,11.38828,15.160833085937501Q11.5,14.9447720859375,11.5,14.7015380859375Q11.5,14.5670440859375,11.46447,14.4373290859375Q11.462959999999999,14.4318460859375,11.4614,14.4263800859375Q11.43913,14.3485750859375,11.40464,14.2753640859375Q11.37015,14.2021520859375,11.32434,14.1354400859375Q11.27852,14.0687270859375,11.22258,14.0102500859375Q11.16663,13.9517730859375,11.10201,13.9030530859375Q11.03739,13.8543330859375,10.96578,13.8166380859375Q10.894169999999999,13.7789430859375,10.81742,13.7532540859375Q10.74068,13.7275660859375,10.6608,13.7145520859375Q10.58093,13.7015380859375,10.5,13.7015380859375Q10.36551,13.7015380859375,10.23579,13.7370730859375Q8.54145,14.2012260859375,7.292893,15.4497820859375Q7.152241,15.5904340859375,7.0761199999999995,15.7742080859375Q7,15.9579780859375,7,16.1568880859375Q7,16.3557980859375,7.0761199999999995,16.5395680859375Q7.152241,16.7233480859375,7.292893,16.8639980859375Q7.433546,17.0046480859375,7.617317,17.0807680859375Q7.801088,17.1568880859375,8,17.1568880859375Q8.198912,17.1568880859375,8.382683,17.0807680859375Q8.566454,17.0046480859375,8.707107,16.8639980859375Q9.58069,15.9904080859375,10.763490000000001,15.6661990859375Z" fill-rule="evenodd" fill="#000000" fill-opacity="1"/></g><g><path d="M13.25,18.75Q13.25,18.81141,13.24398,18.87252Q13.237960000000001,18.93363,13.22598,18.99386Q13.214,19.05409,13.19618,19.11286Q13.17835,19.17162,13.15485,19.22835Q13.13135,19.28509,13.1024,19.33925Q13.07345,19.3934,13.03934,19.44446Q13.00522,19.49552,12.96626,19.54299Q12.92731,19.59046,12.88388,19.63388Q12.84046,19.67731,12.79299,19.71626Q12.745519999999999,19.75522,12.69446,19.78934Q12.6434,19.82345,12.58925,19.8524Q12.53509,19.88135,12.47835,19.90485Q12.42162,19.928350000000002,12.36286,19.94618Q12.30409,19.964,12.24386,19.97598Q12.18363,19.98796,12.12252,19.99398Q12.06141,20,12,20Q11.93859,20,11.87748,19.99398Q11.81637,19.98796,11.75614,19.97598Q11.695908,19.964,11.637144,19.94618Q11.57838,19.928350000000002,11.521646,19.90485Q11.464912,19.88135,11.410754,19.8524Q11.356597,19.82345,11.305537,19.78934Q11.254478,19.75522,11.207008,19.71626Q11.159539,19.67731,11.116116,19.63388Q11.072694,19.59046,11.033737,19.54299Q10.99478,19.49552,10.960663,19.44446Q10.926546,19.3934,10.897598,19.33925Q10.868651,19.28509,10.8451506,19.22835Q10.8216505,19.17162,10.8038246,19.11286Q10.7859986,19.05409,10.7740184,18.99386Q10.7620382,18.93363,10.75601909,18.87252Q10.75,18.81141,10.75,18.75Q10.75,18.68859,10.75601909,18.62748Q10.7620382,18.56637,10.7740184,18.50614Q10.7859986,18.445908,10.8038246,18.387144Q10.8216505,18.32838,10.8451506,18.271646Q10.868651,18.214911999999998,10.897598,18.160754Q10.926546,18.106597,10.960663,18.055537Q10.99478,18.004478,11.033737,17.957008Q11.072694,17.909539,11.116116,17.866116Q11.159539,17.822694,11.207008,17.783737Q11.254478,17.74478,11.305537,17.710663Q11.356597,17.676546,11.410754,17.647598Q11.464912,17.618651,11.521646,17.5951506Q11.57838,17.5716505,11.637144,17.5538246Q11.695908,17.5359986,11.75614,17.5240184Q11.81637,17.5120382,11.87748,17.50601909Q11.93859,17.5,12,17.5Q12.06141,17.5,12.12252,17.50601909Q12.18363,17.5120382,12.24386,17.5240184Q12.30409,17.5359986,12.36286,17.5538246Q12.42162,17.5716505,12.47835,17.5951506Q12.53509,17.618651,12.58925,17.647598Q12.6434,17.676546,12.69446,17.710663Q12.745519999999999,17.74478,12.79299,17.783737Q12.84046,17.822694,12.88388,17.866116Q12.92731,17.909539,12.96626,17.957008Q13.00522,18.004478,13.03934,18.055537Q13.07345,18.106597,13.1024,18.160754Q13.13135,18.214911999999998,13.15485,18.271646Q13.17835,18.32838,13.19618,18.387144Q13.214,18.445908,13.22598,18.50614Q13.237960000000001,18.56637,13.24398,18.62748Q13.25,18.68859,13.25,18.75Z" fill="#000000" fill-opacity="1"/></g><g><path d="M4.707226,3.293012L4.707107,3.292893Q4.566455,3.152241,4.382683,3.07612Q4.198912,3,4,3Q3.801088,3,3.617317,3.07612Q3.433545,3.152241,3.292893,3.292893Q3.152241,3.433545,3.07612,3.617317Q3,3.801088,3,4Q3,4.198912,3.07612,4.382683Q3.152241,4.566455,3.292893,4.707107L3.293012,4.707226L19.2929,20.7071Q19.433500000000002,20.8478,19.6173,20.9239Q19.801099999999998,21,20,21Q20.1989,21,20.3827,20.9239Q20.5665,20.8478,20.7071,20.7071Q20.8478,20.5665,20.9239,20.3827Q21,20.1989,21,20Q21,19.801099999999998,20.9239,19.6173Q20.8478,19.433500000000002,20.7071,19.2929L4.707226,3.293012Z" fill-rule="evenodd" fill="#000000" fill-opacity="1"/></g><g><path d="M3.5346900000000003,9.4694462109375Q3.9160500000000003,9.1633262109375,4.31804,8.8858612109375Q4.48175,8.7728682109375,4.58975,8.6058312109375Q4.69775,8.4387932109375,4.7336100000000005,8.2431392109375Q4.74999,8.1537474109375,4.74999,8.0628662109375L4.74991,8.0496924109375Q4.7479499999999994,7.9008812109375,4.70274,7.7590902109375Q4.6575299999999995,7.6172982109375,4.57299,7.4948172109375Q4.46,7.3311132109375,4.29296,7.2231102109375005Q4.12592,7.1151082109375,3.93027,7.0792492109375Q3.8408800000000003,7.0628662109375,3.74999,7.0628662109375L3.73682,7.0629532109375Q3.5880099999999997,7.0649132109375,3.4462200000000003,7.1101232109375Q3.30443,7.1553322109375,3.18195,7.2398712109375Q2.720455,7.5584022109374995,2.282718,7.9097832109375Q1.781449,8.3120452109375,1.312544,8.7563902109375L1.312132,8.7567812109375Q1.162682,8.8984132109375,1.081341,9.0875662109375Q1,9.2767162109375,1,9.4826162109375Q1,9.4950762109375,1.00031,9.5075262109375Q1.004931,9.6929662109375,1.075751,9.8644062109375Q1.14657,10.0358462109375,1.2741639999999999,10.1704862109375Q1.41099,10.314866210937499,1.592651,10.3958862109375Q1.7743120000000001,10.4769162109375,1.9731529,10.4822562109375Q1.986574,10.4826162109375,2,10.4826162109375Q2.0106019,10.4826162109375,2.0212029,10.4823962109375Q2.207613,10.4784362109375,2.380074,10.4075762109375Q2.552534,10.3367062109375,2.687868,10.2084562109375Q3.0972,9.8205262109375,3.5346900000000003,9.4694462109375Z" fill-rule="evenodd" fill="#000000" fill-opacity="1"/></g></g></svg>