<svg xmlns="http://www.w3.org/2000/svg" xmlns:xlink="http://www.w3.org/1999/xlink" fill="none" version="1.1" width="24" height="24" viewBox="0 0 24 24"><defs><clipPath id="master_svg0_84_4996"><rect x="0" y="0" width="24" height="24" rx="0"/></clipPath></defs><g clip-path="url(#master_svg0_84_4996)"><g><g><path d="M17.1839,7.02711Q19.4886,7.98033,21.3121,9.708490000000001Q21.4514,9.84052,21.6297,9.91158Q21.8081,9.98265,22,9.98265Q22.0134,9.98265,22.0268,9.982289999999999Q22.2257,9.97695,22.4073,9.89592Q22.589,9.81489,22.7258,9.67051Q22.8579,9.531189999999999,22.9289,9.35289Q23,9.17459,23,8.98265L23,8.97976Q23,8.96778,22.9996,8.95579Q22.9943,8.75695,22.9133,8.575289999999999Q22.8322,8.39363,22.6879,8.25681Q20.5954,6.27379,17.9484,5.178962Q15.3871,4.119611,12.6059,4.011745Q9.834620000000001,3.90426,7.20407,4.75504Q4.50118,5.629213,2.282765,7.40972Q1.781453,7.8121100000000006,1.312957,8.256029999999999L1.312133,8.25681Q1.167755,8.39364,1.086728,8.5753Q1.005701,8.75696,1.0003600000000001,8.9558Q1,8.96922,1,8.98265Q1,8.99325,1.000225,9.00385Q1.004178,9.19026,1.075043,9.36272Q1.145909,9.53518,1.2741630000000002,9.67051Q1.4157950000000001,9.81996,1.6049470000000001,9.901309999999999Q1.7941,9.98265,2,9.98265Q2.0124572,9.98265,2.0249105,9.98234Q2.210346,9.97772,2.3817880000000002,9.9069Q2.553229,9.836079999999999,2.687867,9.70848L2.687907,9.70845L2.688567,9.70782Q3.09743,9.3204,3.53463,8.96947Q5.46638,7.41905,7.81952,6.65799Q10.11208,5.916527,12.5284,6.01024Q14.9528,6.10427,17.1839,7.02711Z" fill-rule="evenodd" fill="#000000" fill-opacity="1"/></g><g><path d="M7.89902,9.298172Q5.860432,10.124854,4.292893,11.69239Q4.152241,11.83305,4.0761199999999995,12.01682Q4,12.20059,4,12.3995Q4,12.59841,4.0761199999999995,12.78218Q4.152241,12.96595,4.292893,13.10661Q4.433546,13.24726,4.617317,13.32338Q4.801088,13.3995,5,13.3995Q5.198912,13.3995,5.382683,13.32338Q5.566455,13.24726,5.707107,13.10661Q6.9878599999999995,11.825849999999999,8.65061,11.15158Q10.257390000000001,10.5,12,10.5Q13.74261,10.5,15.3494,11.15158Q17.0119,11.82577,18.2926,13.10631L18.2929,13.10661Q18.433500000000002,13.24726,18.6173,13.32338Q18.801099999999998,13.3995,19,13.3995Q19.198900000000002,13.3995,19.3827,13.32338Q19.566499999999998,13.24726,19.7071,13.10661Q19.8478,12.96595,19.9239,12.78218Q20,12.59841,20,12.3995Q20,12.20059,19.9239,12.01682Q19.8478,11.83305,19.7071,11.69239L19.7068,11.69206Q18.139400000000002,10.124767,16.101,9.298172Q14.1327,8.5,12,8.5Q9.8673,8.5,7.89902,9.298172Z" fill-rule="evenodd" fill="#000000" fill-opacity="1"/></g><g><path d="M12,13Q9.24265,13,7.292893,14.949757Q7.152241,15.09041,7.0761199999999995,15.27418Q7,15.45795,7,15.65686Q7,15.85578,7.076121,16.03955Q7.152241,16.22332,7.292893,16.363970000000002Q7.433546,16.50462,7.617317,16.58074Q7.801088,16.65686,8,16.65686Q8.198912,16.65686,8.382683,16.58074Q8.566455,16.50462,8.707107,16.363970000000002Q10.07108,15,12,15Q13.92892,15,15.29289,16.363970000000002Q15.43355,16.50462,15.61732,16.58074Q15.80109,16.65686,16,16.65686Q16.02589,16.65686,16.051740000000002,16.65552Q16.23699,16.64593,16.40646,16.57053Q16.57594,16.49513,16.70711,16.363970000000002Q16.84776,16.22332,16.92388,16.03955Q17,15.85578,17,15.65686Q17,15.630980000000001,16.99866,15.60512Q16.989060000000002,15.41988,16.91367,15.250399999999999Q16.83827,15.08092,16.70711,14.949756Q14.757349999999999,13,12,13Z" fill-rule="evenodd" fill="#000000" fill-opacity="1"/></g><g><path d="M13.25,18.25Q13.25,18.31141,13.24398,18.37252Q13.237960000000001,18.43363,13.22598,18.49386Q13.214,18.55409,13.19618,18.61286Q13.17835,18.67162,13.15485,18.72835Q13.13135,18.78509,13.1024,18.83925Q13.07345,18.8934,13.03934,18.94446Q13.00522,18.99552,12.96626,19.04299Q12.92731,19.09046,12.88388,19.13388Q12.84046,19.17731,12.79299,19.21626Q12.745519999999999,19.25522,12.69446,19.28934Q12.6434,19.32345,12.58925,19.3524Q12.53509,19.38135,12.47835,19.40485Q12.42162,19.428350000000002,12.36286,19.44618Q12.30409,19.464,12.24386,19.47598Q12.18363,19.48796,12.12252,19.49398Q12.06141,19.5,12,19.5Q11.93859,19.5,11.87748,19.49398Q11.81637,19.48796,11.75614,19.47598Q11.695908,19.464,11.637144,19.44618Q11.57838,19.428350000000002,11.521646,19.40485Q11.464912,19.38135,11.410754,19.3524Q11.356597,19.32345,11.305537,19.28934Q11.254478,19.25522,11.207008,19.21626Q11.159539,19.17731,11.116116,19.13388Q11.072694,19.09046,11.033737,19.04299Q10.99478,18.99552,10.960663,18.94446Q10.926546,18.8934,10.897598,18.83925Q10.868651,18.78509,10.8451506,18.72835Q10.8216505,18.67162,10.8038246,18.61286Q10.7859986,18.55409,10.7740184,18.49386Q10.7620382,18.43363,10.75601909,18.37252Q10.75,18.31141,10.75,18.25Q10.75,18.18859,10.75601909,18.12748Q10.7620382,18.06637,10.7740184,18.00614Q10.7859986,17.945908,10.8038246,17.887144Q10.8216505,17.82838,10.8451506,17.771646Q10.868651,17.714911999999998,10.897598,17.660754Q10.926546,17.606597,10.960663,17.555537Q10.99478,17.504478,11.033737,17.457008Q11.072694,17.409539,11.116116,17.366116Q11.159539,17.322694,11.207008,17.283737Q11.254478,17.24478,11.305537,17.210663Q11.356597,17.176546,11.410754,17.147598Q11.464912,17.118651,11.521646,17.0951506Q11.57838,17.0716505,11.637144,17.0538246Q11.695908,17.0359986,11.75614,17.0240184Q11.81637,17.0120382,11.87748,17.00601909Q11.93859,17,12,17Q12.06141,17,12.12252,17.00601909Q12.18363,17.0120382,12.24386,17.0240184Q12.30409,17.0359986,12.36286,17.0538246Q12.42162,17.0716505,12.47835,17.0951506Q12.53509,17.118651,12.58925,17.147598Q12.6434,17.176546,12.69446,17.210663Q12.745519999999999,17.24478,12.79299,17.283737Q12.84046,17.322694,12.88388,17.366116Q12.92731,17.409539,12.96626,17.457008Q13.00522,17.504478,13.03934,17.555537Q13.07345,17.606597,13.1024,17.660754Q13.13135,17.714911999999998,13.15485,17.771646Q13.17835,17.82838,13.19618,17.887144Q13.214,17.945908,13.22598,18.00614Q13.237960000000001,18.06637,13.24398,18.12748Q13.25,18.18859,13.25,18.25Z" fill="#000000" fill-opacity="1"/></g></g></g></svg>