<svg xmlns="http://www.w3.org/2000/svg" xmlns:xlink="http://www.w3.org/1999/xlink" fill="none" version="1.1" width="24" height="24" viewBox="0 0 24 24"><defs><clipPath id="master_svg0_84_5126"><rect x="0" y="0" width="24" height="24" rx="0"/></clipPath><clipPath id="master_svg1_84_5127"><rect x="3" y="3" width="18" height="18" rx="0"/></clipPath></defs><g clip-path="url(#master_svg0_84_5126)"><g clip-path="url(#master_svg1_84_5127)"><g><rect x="3" y="3" width="18" height="18" rx="0" fill="#FFFFFF" fill-opacity="0"/></g><g><path d="M11.256509999999999,18.870040234375Q11.586680000000001,18.625140234375,12,18.625140234375Q12.413319999999999,18.625140234375,12.74348,18.870040234375Q13.06884,19.111440234375,13.19106,19.493840234375Q13.22066,19.586440234375,13.26755,19.671540234375Q13.31444,19.756740234375002,13.37686,19.831340234375Q13.43928,19.905840234375,13.51489,19.966940234375002Q13.5905,20.028140234375,13.67647,20.073540234375002Q13.76244,20.118940234375,13.85554,20.146940234375002Q13.94865,20.174940234375,14.04541,20.184440234375Q14.14217,20.194040234375002,14.23895,20.184740234375Q14.33573,20.175440234375,14.42892,20.147740234375Q16.569000000000003,19.510540234375,18.1251,17.893640234375Q18.1888,17.827340234375,18.2394,17.750540234375002Q18.290100000000002,17.673840234375,18.3258,17.589140234375Q18.3616,17.504440234375,18.3813,17.414540234375Q18.401,17.324740234375,18.404,17.232840234375Q18.407,17.140940234375,18.3932,17.050040234375Q18.3794,16.959140234375,18.3493,16.872340234375002Q18.3191,16.785440234375002,18.273600000000002,16.705540234375Q18.228099999999998,16.625640234375,18.168799999999997,16.555340234375002Q17.875,16.207040234375,17.875,15.750140234375Q17.875,15.232340234375,18.2411,14.866240234375Q18.6072,14.500110234375,19.125,14.500110234375Q19.1881,14.500110234375,19.25,14.506190234375Q19.3415,14.515180234375,19.4331,14.507340234375Q19.5247,14.499490234375,19.613300000000002,14.475070234375Q19.701999999999998,14.450660234375,19.7847,14.410480234375Q19.8674,14.370310234375,19.9414,14.315730234375Q20.0154,14.261150234375,20.078200000000002,14.194000234375Q20.141,14.126840234375,20.1905,14.049360234375Q20.240000000000002,13.971880234375,20.2745,13.886670234375Q20.308999999999997,13.801460234375,20.3275,13.711380234375Q20.5,12.867880234375,20.5,12.000110234375Q20.5,10.689890234375,20.110599999999998,9.450220234375Q20.0867,9.374120234374999,20.051099999999998,9.302760234375Q20.0154,9.231410234375,19.968899999999998,9.166620234375Q19.9223,9.101820234375001,19.8661,9.045220234375Q19.8099,8.988620234375,19.7454,8.941650234375Q19.680999999999997,8.894680234375,19.6099,8.858520234375Q19.538800000000002,8.822360234375001,19.4628,8.797930234375Q19.3869,8.773500234375,19.308,8.761420234375Q19.2292,8.749340234375,19.1494,8.749910234375001L19.125,8.750110234375Q18.6072,8.750110234375,18.2411,8.383990234375Q17.875,8.017870234375,17.875,7.500110234375001Q17.875,7.207540234375,18.0027,6.9485702343749995Q18.0381,6.876670234375,18.061700000000002,6.800050234375Q18.0852,6.723430234375,18.0963,6.644030234375Q18.107300000000002,6.564640234375,18.1055,6.484500234375Q18.1038,6.404360234375,18.0893,6.325520234375Q18.0748,6.246680234375,18.0479,6.171160234375Q18.0211,6.095640234375,17.9825,6.025360234375Q17.9439,5.955080234375,17.8947,5.891850234375Q17.845399999999998,5.828610234375,17.7867,5.774020234375Q16.2651,4.359131234375,14.27225,3.807484234375Q14.18958,3.784599234375,14.10422,3.7761282343750002Q14.01886,3.767660234375,13.9333,3.7738472343750002Q13.84775,3.7800362343750002,13.7645,3.800706234375Q13.68125,3.821375234375,13.60273,3.855921234375Q13.52422,3.8904662343750003,13.45273,3.937879234375Q13.38125,3.985291234375,13.31888,4.044185234375Q13.25652,4.103078234375,13.20509,4.171733234375Q13.15367,4.2403872343749995,13.11469,4.316796234375Q12.76608,5.000111234375,12,5.000111234375Q11.233920000000001,5.000111234375,10.88531,4.316796234375Q10.84633,4.2403872343749995,10.79491,4.171732234375Q10.74348,4.103078234375,10.68112,4.044184234375Q10.61875,3.985291234375,10.547270000000001,3.937878234375Q10.47578,3.8904662343750003,10.397269999999999,3.855921234375Q10.31875,3.821375234375,10.2355,3.800706234375Q10.15225,3.7800362343750002,10.0667,3.7738472343750002Q9.98114,3.767660234375,9.89578,3.7761282343750002Q9.81042,3.784599234375,9.72775,3.807483234375Q7.73493,4.359130234375,6.21328,5.774020234375Q6.15457,5.828610234375,6.10531,5.891840234375Q6.05606,5.955080234375,6.0175,6.025360234375Q5.97894,6.095640234375,5.9520800000000005,6.171160234375Q5.92521,6.246680234375,5.91071,6.325520234375Q5.89622,6.404360234375,5.8944600000000005,6.484500234375Q5.89271,6.564640234375,5.9037500000000005,6.644030234375Q5.91478,6.723430234375,5.9383300000000006,6.800050234375Q5.96187,6.876680234375,5.99732,6.9485702343749995Q6.125,7.207540234375,6.125,7.500110234375001Q6.125,8.017870234375,5.7588799999999996,8.383990234375Q5.392766,8.750110234375,4.882142,8.750130234375L4.850563,8.749910234375001Q4.770798,8.749340234375,4.69195,8.761420234375Q4.613103,8.773500234375,4.5371681,8.797930234375Q4.4612332,8.822360234375001,4.390131,8.858520234375Q4.3190290000000005,8.894680234375,4.254558,8.941650234375Q4.190087,8.988620234375,4.133878,9.045220234375Q4.077669,9.101820234375001,4.031143,9.166610234375Q3.984617,9.231410234375,3.94895,9.302760234375Q3.913284,9.374110234375,3.88938,9.450210234375Q3.5,10.689830234375,3.5,12.000110234375Q3.5,12.867910234375,3.672532,13.711380234375Q3.690958,13.801460234375,3.7255000000000003,13.886670234375Q3.760042,13.971880234375,3.809543,14.049360234375Q3.859043,14.126840234375,3.921842,14.194000234375Q3.984642,14.261150234375,4.058634,14.315730234375Q4.132626,14.370310234375,4.215329,14.410480234375Q4.298033,14.450650234375,4.386676,14.475070234375Q4.4753179,14.499490234375,4.5669267,14.507340234375Q4.658535,14.515180234375,4.750039,14.506190234375Q4.811929,14.500110234375,4.875,14.500110234375Q5.392766,14.500110234375,5.7588799999999996,14.866240234375Q6.125,15.232340234375,6.125,15.750140234375Q6.125,16.207040234375,5.83116,16.555340234375002Q5.77186,16.625640234375,5.72638,16.705540234375Q5.68089,16.785440234375002,5.65074,16.872240234375Q5.62059,16.959140234375,5.60679,17.050040234375Q5.59298,17.140940234375,5.5959900000000005,17.232840234375Q5.59899,17.324740234375,5.6187000000000005,17.414540234375Q5.63842,17.504440234375,5.67418,17.589140234375Q5.70994,17.673840234375,5.76055,17.750640234375Q5.81116,17.827340234375,5.8749199999999995,17.893640234375Q7.431039999999999,19.510640234375,9.57108,20.147740234375Q9.66427,20.175440234375,9.761050000000001,20.184740234375Q9.85783,20.194040234375002,9.95459,20.184440234375Q10.05135,20.174940234375,10.144449999999999,20.146940234375002Q10.23756,20.118940234375,10.32353,20.073540234375002Q10.409500000000001,20.028140234375,10.485109999999999,19.966940234375002Q10.56072,19.905840234375,10.62314,19.831340234375Q10.685559999999999,19.756740234375002,10.73245,19.671540234375Q10.779340000000001,19.586440234375,10.80894,19.493840234375Q10.93116,19.111440234375,11.256509999999999,18.870040234375ZM13.9352,17.263840234375Q13.07425,16.625140234375,12,16.625140234375Q10.92575,16.625140234375,10.0648,17.263840234375Q9.65957,17.564540234375002,9.375589999999999,17.950940234375Q8.56048,17.594140234375,7.8719,17.023540234374998Q8.125,16.433340234375002,8.125,15.750140234375Q8.125,14.403920234375,7.1731,13.452010234375Q6.45924,12.738150234375,5.52364,12.559640234375Q5.5,12.281680234375,5.5,12.000110234375Q5.5,11.320110234375,5.63658,10.666070234374999Q6.504,10.467300234375,7.1731,9.798200234374999Q8.125,8.846300234375,8.125,7.500110234375001Q8.125,7.157150234375,8.056799999999999,6.830880234375Q8.772079999999999,6.281240234375,9.60732,5.953010234375Q9.89923,6.269900234375,10.27848,6.507060234375Q11.06692,7.000110234375001,12,7.000110234375001Q12.93308,7.000110234375001,13.72152,6.507060234375Q14.10077,6.269900234375,14.39268,5.953010234375Q15.2279,6.281240234375,15.9432,6.830880234375Q15.875,7.1571602343750005,15.875,7.500110234375001Q15.875,8.846300234375,16.826900000000002,9.798200234374999Q17.4974,10.468730234375,18.363599999999998,10.666930234375Q18.5,11.320580234375,18.5,12.000110234375Q18.5,12.281670234375,18.476399999999998,12.559640234375Q17.5408,12.738150234375,16.826900000000002,13.452010234375Q15.875,14.403920234375,15.875,15.750140234375Q15.875,16.433340234375002,16.1281,17.023540234374998Q15.4395,17.594140234375,14.6244,17.950940234375Q14.34044,17.564540234375002,13.9352,17.263840234375Z" fill-rule="evenodd" fill="#000000" fill-opacity="1"/></g><g><path d="M9.4367372,9.4367371Q8.375,10.49847,8.375,12Q8.375,13.501529999999999,9.4367371,14.56326Q10.49847,15.625,12,15.625Q13.501529999999999,15.625,14.56326,14.56326Q15.625,13.501529999999999,15.625,12Q15.625,10.49847,14.56326,9.4367372Q13.501529999999999,8.375,12,8.375Q10.49847,8.375,9.4367372,9.4367371ZM10.850950000000001,13.149049999999999Q10.375,12.6731,10.375,12Q10.375,11.3269,10.850950000000001,10.850950000000001Q11.3269,10.375,12,10.375Q12.6731,10.375,13.149049999999999,10.850950000000001Q13.625,11.3269,13.625,12Q13.625,12.6731,13.149049999999999,13.149049999999999Q12.6731,13.625,12,13.625Q11.3269,13.625,10.850950000000001,13.149049999999999Z" fill-rule="evenodd" fill="#000000" fill-opacity="1"/></g></g></g></svg>