<svg xmlns="http://www.w3.org/2000/svg" xmlns:xlink="http://www.w3.org/1999/xlink" fill="none" version="1.1" width="24" height="24" viewBox="0 0 24 24"><defs><clipPath id="master_svg0_84_5146"><rect x="0" y="0" width="24" height="24" rx="0"/></clipPath></defs><g clip-path="url(#master_svg0_84_5146)"><g><g><path d="M11,3L11,22Q11,22.0985,11.019214999999999,22.1951Q11.03843,22.2917,11.076121,22.3827Q11.113812,22.4737,11.16853,22.5556Q11.223249,22.6375,11.292893,22.7071Q11.362537,22.7767,11.44443,22.8315Q11.526322,22.8862,11.617317,22.9239Q11.708311,22.9616,11.80491,22.9808Q11.9015086,23,12,23Q12.0984914,23,12.19509,22.9808Q12.291689,22.9616,12.382683,22.9239Q12.473678,22.8862,12.55557,22.8315Q12.637463,22.7767,12.707107,22.7071Q12.776751,22.6375,12.83147,22.5556Q12.886188,22.4737,12.923879,22.3827Q12.96157,22.2917,12.980785000000001,22.1951Q13,22.0985,13,22L13,3Q13,2.9015086,12.980785000000001,2.80491Q12.96157,2.708311,12.923879,2.617317Q12.886188,2.526322,12.83147,2.44443Q12.776751,2.362537,12.707107,2.292893Q12.637463,2.223249,12.55557,2.16853Q12.473678,2.1138120000000002,12.382683,2.076121Q12.291689,2.03843,12.19509,2.019215Q12.0984914,2,12,2Q11.9015086,2,11.80491,2.019215Q11.708311,2.03843,11.617317,2.076121Q11.526322,2.1138120000000002,11.44443,2.16853Q11.362537,2.223249,11.292893,2.292893Q11.223249,2.362537,11.16853,2.44443Q11.113812,2.526322,11.076121,2.617317Q11.03843,2.708311,11.019214999999999,2.80491Q11,2.9015086,11,3Z" fill-rule="evenodd" fill="#000000" fill-opacity="1"/></g><g><path d="M2.8815616875,8.376862L20.2019046875,17.8768Q20.4266046875,18,20.6828046875,18Q20.7215046875,18,20.7601046875,17.997Q20.8843046875,17.9874,21.0024046875,17.9476Q21.1205046875,17.9077,21.2251046875,17.8402Q21.3298046875,17.7726,21.4147046875,17.6814Q21.4996046875,17.5902,21.5596046875,17.4809Q21.6828046875,17.25624,21.6828046875,17L21.6827046875,16.98482Q21.6806046875,16.84975,21.6428046875,16.72007Q21.5871046875,16.52911,21.4626046875,16.374000000000002Q21.3381046875,16.21888,21.1637046875,16.12322L3.8433566875,6.623308L3.8432016875,6.623223Q3.6185406875,6.5,3.362305067118,6.5Q3.3236108875,6.5,3.2850327875,6.5029900000000005Q3.1607946875,6.512619,3.0427196875,6.552442Q2.9246446875,6.592266,2.8199526875,6.659848Q2.7152616875,6.727431,2.6303566875,6.818639Q2.5454526875,6.909847,2.4855276875,7.019103Q2.3623046875,7.243764,2.3623046875,7.5Q2.3623046875,7.5386936,2.3652946875,7.5772719Q2.3749236875,7.70151,2.4147466875,7.819585Q2.4545706875,7.93766,2.5221526875,8.042352Q2.5897356875,8.147043,2.6809436875,8.231948Q2.7721516875,8.316852,2.8814076875,8.376777L2.8815616875,8.376862Z" fill-rule="evenodd" fill="#000000" fill-opacity="1"/></g><g><path d="M21.121619110822678,8.387275046875Q21.155519110822677,8.368667046875,21.187919110822676,8.347494046875Q21.33761911082268,8.249606046875,21.444119110822676,8.105883046875Q21.550619110822677,7.962160046875,21.600719110822677,7.790427046875Q21.60141911082268,7.788043046875,21.602119110822677,7.785656046875Q21.640719110822676,7.650785046875,21.640719110822676,7.510498046875001Q21.640719110822676,7.254265046875,21.51751911082268,7.029605046875Q21.498919110822676,6.995675046875,21.477719110822676,6.963288046875Q21.40951911082268,6.858990046875,21.31781911082268,6.774615046875Q21.226119110822676,6.690241046875,21.11651911082268,6.630950046875Q21.00691911082268,6.571659046875,20.886119110822676,6.541079046875Q20.765319110822677,6.510498046875,20.640719110822676,6.510498046875Q20.384419110822677,6.510498046875,20.159819110822678,6.633721046875L2.8791681108226777,16.111858046875L2.8787221108226775,16.112108046875Q2.7608471108226778,16.176758046875,2.6642321108226774,16.270248046875Q2.5676181108226777,16.363738046875,2.4991261108226777,16.479418046875Q2.4306331108226775,16.595108046874998,2.3951261108226776,16.724778046875002Q2.3596191108226776,16.854438046875,2.3596191108226776,16.988888046874997Q2.3596191108226776,17.001118046875,2.359919110822678,17.013358046875Q2.3658721108226777,17.256518046875,2.4828421108226775,17.469778046875Q2.5784991108226776,17.644198046874997,2.7336141108226775,17.768698046875002Q2.8887301108226775,17.893198046875,3.0796901108226775,17.948898046875Q3.2167991108226777,17.988898046875,3.3596191108226776,17.988898046875L3.369223360822678,17.988798046875Q3.6203361108226777,17.986398046875,3.8405161108226777,17.865698046875L3.8409621108226775,17.865398046875L21.121619110822678,8.387275046875Z" fill-rule="evenodd" fill="#000000" fill-opacity="1"/></g><g><path d="M2.794031,9.946391171875L2.793442,9.946521171875Q2.5988189999999998,9.987601171875,2.4347339999999997,10.100041171874999Q2.27065,10.212481171875,2.162084,10.379151171875Q2,10.627981171875,2,10.924951171875L2.000093,10.938571171875001Q2.001421,11.036081171875,2.021566,11.131511171875001Q2.0392010000000003,11.215041171875,2.0707430000000002,11.294381171875Q2.102284,11.373721171875001,2.146818,11.446561171875Q2.191352,11.519411171875,2.2475899999999998,11.583651171875001Q2.303828,11.647881171875,2.370142,11.701661171875Q2.4364559999999997,11.755441171874999,2.510926,11.797191171875Q2.5853960000000002,11.838951171875,2.665867,11.867481171875Q2.746338,11.896001171875,2.83048,11.910481171875Q2.9146222,11.924951171875,3,11.924951171875L3.00137817,11.924951171875Q3.105087,11.924811171875,3.206558,11.903381171875L3.207148,11.903261171875L7.70656,10.953381171875Q7.90118,10.912301171875,8.06527,10.799861171875001Q8.22935,10.687421171875,8.33792,10.520751171875Q8.446480000000001,10.354081171875,8.483,10.158541171875001Q8.51952,9.963011171875,8.47843,9.768391171874999Q8.46505,9.705001171875,8.4436,9.643861171874999L6.94367,5.369056171875L6.9436,5.368863171875Q6.91803,5.295983171875,6.88157,5.227893171875Q6.84511,5.159804171875,6.79862,5.098121171875Q6.75214,5.036438171875,6.69674,4.982624171875Q6.64133,4.928810171875,6.57832,4.884143171875Q6.5153099999999995,4.839475171875,6.44619,4.805013171875Q6.37707,4.770550171875,6.30347,4.747111171875Q6.22988,4.723672171875,6.153560000000001,4.711812171875Q6.07724,4.699951171875,6,4.699951171875L5.99012,4.700000171875Q5.82486,4.701633171875,5.66891,4.756351171875Q5.48122,4.822209171875,5.33301,4.954880171875Q5.184810000000001,5.087552171875,5.098660000000001,5.266840171875Q5,5.472158171875,5,5.699951171875Q5,5.709608801875,5.00019,5.719264571875Q5.00328,5.879661171875,5.0564,6.031039171875L5.05647,6.031231171875L6.17944,9.231691171875L2.794031,9.946391171875Z" fill-rule="evenodd" fill="#000000" fill-opacity="1"/></g><g><path d="M3.206749,12.3715815859375L7.70656,13.3215413859375Q7.76995,13.3349241859375,7.83109,13.3563756359375Q8.01878,13.4222330859375,8.16699,13.5549045859375Q8.315190000000001,13.6875765859375,8.401340000000001,13.8668645859375Q8.487490000000001,14.0461515859375,8.498470000000001,14.2447605859375Q8.50946,14.4433655859375,8.4436,14.6310655859375L6.94373,18.9056855859375L6.9436,18.9060655859375Q6.91885,18.9765955859375,6.88389,19.042675585937502Q6.84893,19.1087455859375,6.80453,19.1688855859375Q6.76013,19.2290355859375,6.70729,19.2819055859375Q6.65444,19.3347755859375,6.59432,19.3792055859375Q6.5342,19.4236355859375,6.46815,19.4586255859375Q6.402089999999999,19.4936255859375,6.33157,19.5184055859375Q6.2610399999999995,19.5431955859375,6.187609999999999,19.5572155859375Q6.11419,19.5712455859375,6.03949,19.5741955859375Q6.01975,19.5749755859375,6,19.5749755859375Q5.82965,19.5749755859375,5.66891,19.518575585937498Q5.48122,19.4527155859375,5.33301,19.3200455859375Q5.184810000000001,19.1873755859375,5.098660000000001,19.0080855859375Q5.00126,18.8053855859375,5.00002,18.5805055859375L5,18.5749755859375Q5,18.4046255859375,5.0564,18.243885585937498L5.05653,18.2435055859375L6.17944,15.0432355859375L2.793632,14.3284495859375L2.793442,14.3284095859375Q2.709905,14.3107745859375,2.630567,14.2792325859375Q2.551229,14.247691585937499,2.478386,14.2031575859375Q2.405544,14.1586225859375,2.341305,14.1023845859375Q2.277065,14.0461465859375,2.22329,13.9798335859375Q2.169514,13.9135195859375,2.127758,13.8390495859375Q2.086002,13.7645795859375,2.057474,13.6841085859375Q2.028947,13.6036375859375,2.0144729999999997,13.5194955859375Q2,13.4353533859375,2,13.3499755859375Q2,13.2462675859375,2.0212820000000002,13.1447655859375L2.021566,13.1434165859375Q2.0392010000000003,13.0598805859375,2.0707430000000002,12.9805425859375Q2.102284,12.9012045859375,2.146818,12.8283615859375Q2.191353,12.7555185859375,2.247591,12.691279585937501Q2.303829,12.6270405859375,2.370142,12.5732645859375Q2.4364559999999997,12.5194895859375,2.510926,12.4777335859375Q2.5853960000000002,12.4359775859375,2.665867,12.4074495859375Q2.746338,12.3789225859375,2.83048,12.3644485859375Q2.9146222,12.3499755859375,3,12.3499755859375Q3.103708,12.3499755859375,3.20521,12.3712575859375L3.206558,12.3715415859375L3.206749,12.3715815859375Z" fill-rule="evenodd" fill="#000000" fill-opacity="1"/></g><g><path d="M20.79279,11.903251171874999L20.79344,11.903381171875Q20.8956,11.924951171875,21,11.924951171875Q21.03536,11.924951171875,21.07064,11.922451171875Q21.15136,11.916731171875,21.23012,11.898111171875Q21.308880000000002,11.879491171875,21.38362,11.848441171874999Q21.45835,11.817401171875,21.52712,11.774741171875Q21.5959,11.732081171875,21.65691,11.678911171875Q21.71793,11.625751171874999,21.76961,11.563471171875001Q21.82128,11.501181171875,21.86227,11.431401171874999Q21.90325,11.361621171875,21.93249,11.286161171875001Q21.96172,11.210691171875,21.97843,11.131511171875001Q22,11.029361171875,22,10.924951171875Q22,10.889591171875,21.9975,10.854311171875Q21.99178,10.773581171875,21.97316,10.694831171875Q21.95454,10.616071171875,21.92349,10.541331171875001Q21.89245,10.466601171875,21.84979,10.397821171875Q21.80713,10.329051171875001,21.75396,10.268041171875Q21.7008,10.207021171874999,21.63852,10.155341171875001Q21.57623,10.103671171875,21.50645,10.062681171874999Q21.43667,10.021701171875,21.36121,9.992461171875Q21.28574,9.963231171875,21.20656,9.946521171875L21.20591,9.946381171875L17.82056,9.231691171875L18.94351,6.031308171875L18.9436,6.031039171875Q19,5.870299171875,19,5.699952439795Q19,5.680197071875,18.99922,5.660458471875Q18.99627,5.585763171875,18.98224,5.512337171875Q18.96822,5.438911171875,18.94343,5.368386171875Q18.91865,5.297861171875,18.88365,5.231805171875Q18.84866,5.165748171875,18.80423,5.105630171875Q18.7598,5.045511171875,18.70693,4.992665171875Q18.65406,4.939820171875,18.59391,4.895423171875Q18.53377,4.851025171875,18.4677,4.816063171875Q18.40163,4.781101171875,18.33109,4.756351171875Q18.17035,4.699951171875,18,4.699951171875L17.99447,4.699966171875Q17.76959,4.701209171875,17.56689,4.798611171875Q17.3876,4.884762171875,17.254929,5.032966171875Q17.122257,5.181170171875,17.0564,5.368863171875L15.5564,9.643861171874999Q15.534949,9.705001171875,15.521566,9.768391171874999Q15.48048,9.963011171875,15.516998,10.158551171875Q15.553518,10.354081171875,15.662084,10.520751171875Q15.77065,10.687421171875,15.934734,10.799861171875001Q16.098819,10.912301171875,16.293442,10.953381171875L20.79279,11.903251171874999Z" fill-rule="evenodd" fill="#000000" fill-opacity="1"/></g><g><path d="M21.20627,14.3284705859375L21.20656,14.3284095859375Q21.24116,14.3211055859375,21.27516,14.3113745859375Q21.35296,14.2891065859375,21.42617,14.2546165859375Q21.499380000000002,14.2201265859375,21.5661,14.174313585937501Q21.63281,14.1284995859375,21.691290000000002,14.0725545859375Q21.749760000000002,14.0166095859375,21.79849,13.9519895859375Q21.84721,13.8873695859375,21.884900000000002,13.8157555859375Q21.92259,13.7441415859375,21.94828,13.6673985859375Q21.97397,13.5906545859375,21.98699,13.5107795859375Q22,13.4309041859375,22,13.3499755859375Q22,13.2455715859375,21.97843,13.1434185859375L21.97841,13.1433105859375L21.97779,13.1404005859375L21.97748,13.1389455859375Q21.93575,12.9456745859375,21.82362,12.7828265859375Q21.71148,12.619978585937499,21.5458,12.5120605859375Q21.54382,12.5107725859375,21.54184,12.5094945859375Q21.2944,12.3499755859375,21,12.3499755859375Q20.8956,12.3499755859375,20.79344,12.3715415859375L20.79315,12.3716025859375L16.293442,13.3215412859375Q16.230049,13.3349243859375,16.168912,13.3563755759375Q15.981219,13.4222329859375,15.833015,13.5549045859375Q15.684811,13.6875765859375,15.59866,13.8668635859375Q15.512508,14.0461515859375,15.501526,14.2447605859375Q15.49054,14.4433655859375,15.5564,14.6310655859375L17.056338,18.9058855859375L17.0564,18.9060655859375Q17.081972,18.9789455859375,17.118432,19.0470355859375Q17.154893,19.1151255859375,17.201376,19.1768055859375Q17.247859,19.2384855859375,17.303264,19.2923055859375Q17.358668,19.3461155859375,17.421678,19.3907855859375Q17.484689,19.4354555859375,17.55381,19.4699155859375Q17.62293,19.5043755859375,17.69653,19.5278155859375Q17.77012,19.5512555859375,17.84644,19.5631155859375Q17.92276,19.5749755859375,18,19.5749755859375L18.00988,19.5749255859375Q18.17514,19.5732955859375,18.33109,19.518575585937498Q18.40397,19.4930055859375,18.47206,19.456545585937498Q18.54015,19.4200855859375,18.60183,19.3735955859375Q18.66351,19.3271155859375,18.71733,19.2717155859375Q18.77114,19.216305585937498,18.81581,19.1532955859375Q18.86048,19.0902855859375,18.89494,19.0211655859375Q18.9294,18.9520455859375,18.952840000000002,18.8784455859375Q18.97628,18.8048555859375,18.98814,18.7285355859375Q19,18.6522155859375,19,18.5749755859375L18.99995,18.5650955859375Q18.99832,18.3998355859375,18.9436,18.243885585937498L18.94347,18.2435055859375L17.82056,15.0432355859375L21.20627,14.3284705859375Z" fill-rule="evenodd" fill="#000000" fill-opacity="1"/></g><g><path d="M15.688419523162842,5.0752885859375L15.68874952316284,5.0749745859375Q15.837799523162841,4.9333795859375,15.918899523162843,4.7444695859375Q15.999999523162842,4.5555595859375,15.999999523162842,4.3499768403175Q15.999999523162842,4.3369099859375,15.999659523162842,4.3238487859375Q15.994809523162843,4.1384195859375,15.923779523162843,3.9670635859375Q15.852759523162842,3.7957085859375,15.724999523162841,3.6612265859375Q15.587999523162843,3.5170145859375,15.406239523162842,3.4362085859375Q15.224479523162842,3.3554025859375,15.025629523162841,3.3503045859375Q15.012819523162841,3.3499755859375,14.999999523162842,3.3499755859375Q14.988789523162842,3.3499755859375,14.977579523162841,3.3502265859375Q14.791179523162842,3.3544065859375,14.618799523162842,3.4254815859375Q14.446429523162841,3.4965565859375,14.311249523162843,3.6249765859375L14.310919523162841,3.6252895859375L11.999999523162842,5.8206655859375L9.688748523162841,3.6249765859375Q9.549361523162842,3.4925585859375,9.370809523162842,3.4212665859375Q9.192257523162843,3.3499755859375,8.999999687508842,3.3499755859375L8.998337793162841,3.3499765859375Q8.986350423162841,3.3499965859375003,8.974367023162841,3.3503045859375Q8.775519523162842,3.3554025859375,8.593760523162842,3.4362085859375Q8.412000523162842,3.5170145859375,8.275000523162841,3.6612265859375Q8.142582523162842,3.8006135859375,8.071290523162842,3.9791655859375Q7.999999523162842,4.1577175859375,7.999999523162842,4.3499755859375L8.000000523162841,4.3516373159375Q8.000020523162842,4.3636246859375,8.000328523162842,4.3756080859375Q8.005426523162841,4.5744555859375,8.086232523162842,4.7562145859375Q8.167038523162843,4.9379745859375,8.311250523162842,5.0749745859375L11.311249523162841,7.9249755859375Q11.380309523162842,7.990585585937501,11.46051952316284,8.0419755859375Q11.540719523162842,8.0933655859375,11.629189523162841,8.1286855859375Q11.717659523162842,8.164005585937499,11.811199523162841,8.1819955859375Q11.904739523162842,8.1999755859375,11.999999523162842,8.1999755859375Q12.095259523162841,8.1999755859375,12.188799523162842,8.1819955859375Q12.282339523162841,8.164005585937499,12.370809523162842,8.1286855859375Q12.459279523162841,8.0933655859375,12.539479523162843,8.0419755859375Q12.619689523162842,7.990585585937501,12.688749523162842,7.9249755859375L15.688419523162842,5.0752885859375Z" fill-rule="evenodd" fill="#000000" fill-opacity="1"/></g><g><path d="M14.310919523162841,20.524641171875L14.311249523162843,20.524951171875Q14.450639523162842,20.657371171875,14.629189523162843,20.728661171875Q14.80773952316284,20.799951171875,14.999999523162842,20.799951171875L15.001659523162843,20.799951171875Q15.013649523162842,20.799931171875,15.025629523162841,20.799621171875Q15.224479523162842,20.794521171875,15.406239523162842,20.713721171875Q15.587999523162843,20.632911171875,15.724999523162841,20.488701171875Q15.857419523162843,20.349311171875,15.92870952316284,20.170761171875Q15.999999523162842,19.992211171875,15.999999523162842,19.799951171875Q15.999999523162842,19.787131171875,15.999669523162842,19.774321171875002Q15.994569523162841,19.575471171875,15.913769523162841,19.393711171875Q15.832959523162842,19.211951171875,15.68874952316284,19.074951171875L15.688419523162842,19.074641171875L12.688749523162842,16.224952171875Q12.619689523162842,16.159343171875,12.539479523162843,16.107954171875Q12.459279523162841,16.056564171875,12.370809523162842,16.021242171875Q12.282339523162841,15.985920171875,12.188799523162842,15.967936171875Q12.095259523162841,15.949951171875,11.999999523162842,15.949951171875Q11.904739523162842,15.949951171875,11.811199523162841,15.967935171875Q11.717659523162842,15.985920171875,11.629189523162841,16.021242171875Q11.540719523162842,16.056564171875,11.46051952316284,16.107954171875Q11.380309523162842,16.159343171875,11.311249523162841,16.224952171875L8.311250523162842,19.074951171875Q8.167038523162843,19.211951171875,8.086232523162842,19.393711171875Q8.005426523162841,19.575471171875,8.000328523162842,19.774321171875002Q7.999999523162842,19.787131171875,7.999999523162842,19.799951171875Q7.999999523162842,19.811161171875,8.000250523162842,19.822371171874998Q8.004430523162842,20.008771171875,8.075505523162843,20.181151171875Q8.146580523162841,20.353521171875002,8.275000523162841,20.488701171875Q8.412000523162842,20.632911171875,8.593760523162842,20.713721171875Q8.775519523162842,20.794521171875,8.974366923162842,20.799621171875Q8.987181123162841,20.799951171875,8.999999523162842,20.799951171875Q9.011209023162841,20.799951171875,9.022417123162843,20.799701171875Q9.208822523162842,20.795521171875,9.381196523162842,20.724441171875Q9.55357152316284,20.653371171875,9.688748523162841,20.524951171875L11.999999523162842,18.329261171875L14.310919523162841,20.524641171875Z" fill-rule="evenodd" fill="#000000" fill-opacity="1"/></g></g></g></svg>