<svg xmlns="http://www.w3.org/2000/svg" xmlns:xlink="http://www.w3.org/1999/xlink" fill="none" version="1.1" width="24" height="24" viewBox="0 0 24 24"><defs><clipPath id="master_svg0_82_9646"><rect x="0" y="0" width="24" height="24" rx="0"/></clipPath></defs><g clip-path="url(#master_svg0_82_9646)"><g><g><g><path d="M18.416633015441896,12.000003015441894Q18.416633015441896,12.157523015441894,18.408933015441896,12.314853015441894Q18.401233015441896,12.472183015441894,18.385733015441893,12.628943015441894Q18.370333015441894,12.785703015441895,18.347233015441894,12.941523015441895Q18.324133015441895,13.097333015441894,18.293333015441895,13.251823015441895Q18.262633015441892,13.406323015441895,18.224333015441893,13.559123015441894Q18.186133015441897,13.711923015441895,18.140333015441897,13.862653015441895Q18.094633015441893,14.013393015441894,18.041533015441892,14.161703015441894Q17.988533015441895,14.310023015441894,17.928233015441897,14.455553015441895Q17.867933015441892,14.601083015441894,17.800633015441896,14.743473015441895Q17.733233015441897,14.885873015441895,17.659033015441892,15.024793015441894Q17.584733015441895,15.163713015441894,17.503733015441895,15.298823015441895Q17.422733015441892,15.433933015441895,17.335233015441894,15.564903015441894Q17.247733015441895,15.695833015441895,17.153933015441893,15.822433015441895Q17.060033015441896,15.948933015441895,16.960133015441894,16.070733015441895Q16.860233015441892,16.192433015441893,16.754433015441894,16.309133015441894Q16.648633015441895,16.425833015441896,16.537233015441895,16.537233015441895Q16.425833015441896,16.648633015441895,16.309133015441894,16.754433015441894Q16.192433015441893,16.860233015441892,16.070733015441895,16.960133015441894Q15.948933015441895,17.060033015441896,15.822433015441895,17.153933015441893Q15.695833015441895,17.247733015441895,15.564903015441894,17.335233015441894Q15.433933015441895,17.422733015441892,15.298823015441895,17.503733015441895Q15.163713015441894,17.584733015441895,15.024793015441894,17.659033015441892Q14.885873015441895,17.733233015441897,14.743473015441895,17.800633015441896Q14.601083015441894,17.867933015441892,14.455553015441895,17.928233015441897Q14.310023015441894,17.988533015441895,14.161703015441894,18.041533015441892Q14.013393015441894,18.094633015441893,13.862653015441895,18.140333015441897Q13.711923015441895,18.186133015441897,13.559123015441894,18.224333015441893Q13.406323015441895,18.262633015441892,13.251823015441895,18.293333015441895Q13.097333015441894,18.324133015441895,12.941523015441895,18.347233015441894Q12.785703015441895,18.370333015441894,12.628943015441894,18.385733015441893Q12.472183015441894,18.401233015441896,12.314853015441894,18.408933015441896Q12.157523015441894,18.416633015441896,12.000003015441894,18.416633015441896Q11.842483015441895,18.416633015441896,11.685153015441895,18.408933015441896Q11.527813015441895,18.401233015441896,11.371053015441895,18.385733015441893Q11.214293015441894,18.370333015441894,11.058473015441894,18.347233015441894Q10.902663015441895,18.324133015441895,10.748173015441894,18.293333015441895Q10.593673015441894,18.262633015441892,10.440873015441895,18.224333015441893Q10.288073015441896,18.186133015441897,10.137343015441894,18.140333015441897Q9.986603015441894,18.094633015441893,9.838293015441895,18.041533015441892Q9.689973015441893,17.988533015441895,9.544443015441894,17.928233015441897Q9.398913015441895,17.867933015441892,9.256523015441894,17.800633015441896Q9.114123015441894,17.733233015441897,8.975203015441895,17.659033015441892Q8.836283015441895,17.584733015441895,8.701173015441896,17.503733015441895Q8.566063015441895,17.422733015441892,8.435093015441895,17.335233015441894Q8.304113015441894,17.247733015441895,8.177593015441895,17.153933015441893Q8.051073015441894,17.060033015441896,7.9293130154418945,16.960133015441894Q7.807543015441894,16.860233015441892,7.6908330154418945,16.754433015441894Q7.5741130154418945,16.648633015441895,7.462733015441895,16.537233015441895Q7.351343015441895,16.425833015441896,7.245563015441895,16.309133015441894Q7.139783015441894,16.192433015441893,7.039853015441895,16.070733015441895Q6.939923015441894,15.948933015441895,6.846083015441895,15.822433015441895Q6.7522530154418945,15.695833015441895,6.664733015441895,15.564903015441894Q6.577222015441895,15.433933015441895,6.496241015441894,15.298823015441895Q6.415259015441895,15.163713015441894,6.341005015441895,15.024793015441894Q6.266750015441895,14.885873015441895,6.199402015441894,14.743473015441895Q6.132053015441895,14.601083015441894,6.071773015441894,14.455553015441895Q6.0114920154418945,14.310023015441894,5.958425015441895,14.161703015441894Q5.9053580154418945,14.013393015441894,5.859632015441894,13.862653015441895Q5.813907015441894,13.711923015441895,5.775632015441895,13.559123015441894Q5.737358015441894,13.406323015441895,5.706627015441894,13.251823015441895Q5.675896715441895,13.097333015441894,5.6527837154418945,12.941523015441895Q5.629670715441894,12.785703015441895,5.614231015441894,12.628943015441894Q5.598791315441894,12.472183015441894,5.591062165441895,12.314853015441894Q5.5833330154418945,12.157523015441894,5.5833330154418945,12.000003015441894Q5.5833330154418945,11.842483015441895,5.591062165441895,11.685153015441895Q5.598791315441894,11.527813015441895,5.614231015441894,11.371053015441895Q5.629670715441894,11.214293015441894,5.6527837154418945,11.058473015441894Q5.675896715441895,10.902663015441895,5.706627015441894,10.748173015441894Q5.737358015441894,10.593673015441894,5.775632015441895,10.440873015441895Q5.813907015441894,10.288073015441896,5.859632015441894,10.137343015441894Q5.9053580154418945,9.986603015441894,5.958425015441895,9.838293015441895Q6.0114920154418945,9.689973015441893,6.071773015441894,9.544443015441894Q6.132053015441895,9.398913015441895,6.199402015441894,9.256523015441894Q6.266750015441895,9.114123015441894,6.341005015441895,8.975203015441895Q6.415259015441895,8.836283015441895,6.496241015441894,8.701173015441896Q6.577222015441895,8.566063015441895,6.664733015441895,8.435093015441895Q6.7522530154418945,8.304113015441894,6.846083015441895,8.177593015441895Q6.939923015441894,8.051073015441894,7.039853015441895,7.9293130154418945Q7.139783015441894,7.807543015441894,7.245563015441895,7.6908330154418945Q7.351343015441895,7.5741130154418945,7.462733015441895,7.462733015441895Q7.5741130154418945,7.351343015441895,7.6908330154418945,7.245563015441895Q7.807543015441894,7.139783015441894,7.9293130154418945,7.039853015441895Q8.051073015441894,6.939923015441894,8.177593015441895,6.846083015441895Q8.304113015441894,6.7522530154418945,8.435093015441895,6.664733015441895Q8.566063015441895,6.577222015441895,8.701173015441896,6.496241015441894Q8.836283015441895,6.415259015441895,8.975203015441895,6.341005015441895Q9.114123015441894,6.266750015441895,9.256523015441894,6.199402015441894Q9.398913015441895,6.132053015441895,9.544443015441894,6.071773015441894Q9.689973015441893,6.0114920154418945,9.838293015441895,5.958425015441895Q9.986603015441894,5.9053580154418945,10.137343015441894,5.859632015441894Q10.288073015441896,5.813907015441894,10.440873015441895,5.775632015441895Q10.593673015441894,5.737358015441894,10.748173015441894,5.706627015441894Q10.902663015441895,5.675896715441895,11.058483015441894,5.6527837154418945Q11.214293015441894,5.629670715441894,11.371053015441895,5.614231015441894Q11.527813015441895,5.598791315441894,11.685153015441895,5.591062165441895Q11.842483015441895,5.5833330154418945,12.000003015441894,5.5833330154418945Q12.157523015441894,5.5833330154418945,12.314853015441894,5.591062165441895Q12.472183015441894,5.598791315441894,12.628943015441894,5.614231015441894Q12.785703015441895,5.629670715441894,12.941523015441895,5.6527837154418945Q13.097333015441894,5.675896715441895,13.251823015441895,5.706627015441894Q13.406323015441895,5.737358015441894,13.559123015441894,5.775632015441895Q13.711923015441895,5.813907015441894,13.862653015441895,5.859632015441894Q14.013393015441894,5.9053580154418945,14.161703015441894,5.958425015441895Q14.310023015441894,6.0114920154418945,14.455553015441895,6.071773015441894Q14.601083015441894,6.132053015441895,14.743473015441895,6.199402015441894Q14.885873015441895,6.266750015441895,15.024793015441894,6.341005015441895Q15.163713015441894,6.415259015441895,15.298823015441895,6.496241015441894Q15.433933015441895,6.577222015441895,15.564903015441894,6.664733015441895Q15.695833015441895,6.7522530154418945,15.822433015441895,6.846083015441895Q15.948933015441895,6.939923015441894,16.070733015441895,7.039853015441895Q16.192433015441893,7.139783015441894,16.309133015441894,7.245563015441895Q16.425833015441896,7.351343015441895,16.537233015441895,7.462733015441895Q16.648633015441895,7.5741130154418945,16.754433015441894,7.6908330154418945Q16.860233015441892,7.807543015441894,16.960133015441894,7.9293130154418945Q17.060033015441896,8.051073015441894,17.153933015441893,8.177593015441895Q17.247733015441895,8.304113015441894,17.335233015441894,8.435093015441895Q17.422733015441892,8.566063015441895,17.503733015441895,8.701173015441896Q17.584733015441895,8.836283015441895,17.659033015441892,8.975203015441895Q17.733233015441897,9.114123015441894,17.800633015441896,9.256523015441894Q17.867933015441892,9.398913015441895,17.928233015441897,9.544443015441894Q17.988533015441895,9.689973015441893,18.041533015441892,9.838293015441895Q18.094633015441893,9.986603015441894,18.140333015441897,10.137343015441894Q18.186133015441897,10.288073015441896,18.224333015441893,10.440873015441895Q18.262633015441892,10.593673015441894,18.293333015441895,10.748173015441894Q18.324133015441895,10.902663015441895,18.347233015441894,11.058483015441894Q18.370333015441894,11.214293015441894,18.385733015441893,11.371053015441895Q18.401233015441896,11.527813015441895,18.408933015441896,11.685153015441895Q18.416633015441896,11.842483015441895,18.416633015441896,12.000003015441894Z" fill="#000000" fill-opacity="1"/></g><g><path d="M11.999966626930236,22.046666626930236C11.495836626930236,22.046666626930236,11.083336626930237,21.670866626930238,11.083336626930237,21.166666626930237C11.083336626930237,21.166666626930237,11.083336626930237,21.093366626930237,11.083336626930237,21.093366626930237C11.083336626930237,20.589166626930236,11.495836626930236,20.17666662693024,11.999966626930236,20.17666662693024C12.504166626930237,20.17666662693024,12.916666626930237,20.589166626930236,12.916666626930237,21.093366626930237C12.916666626930237,21.597466626930238,12.504166626930237,22.046666626930236,11.999966626930236,22.046666626930236ZM18.544966626930236,19.46166662693024C18.306666626930237,19.46166662693024,18.077466626930235,19.369966626930236,17.894166626930236,19.195866626930236C17.894166626930236,19.195866626930236,17.774966626930237,19.076666626930237,17.774966626930237,19.076666626930237C17.417466626930235,18.719166626930235,17.417466626930235,18.14166662693024,17.774966626930237,17.784166626930237C18.13246662693024,17.426666626930235,18.709966626930235,17.426666626930235,19.067466626930237,17.784166626930237C19.067466626930237,17.784166626930237,19.186666626930236,17.903366626930236,19.186666626930236,17.903366626930236C19.544166626930238,18.260866626930238,19.544166626930238,18.838366626930238,19.186666626930236,19.195866626930236C19.012466626930237,19.369966626930236,18.78336662693024,19.46166662693024,18.544966626930236,19.46166662693024ZM5.454996626930237,19.46166662693024C5.216666626930237,19.46166662693024,4.987496626930237,19.369966626930236,4.804166626930237,19.195866626930236C4.446666626930236,18.838366626930238,4.446666626930236,18.260866626930238,4.804166626930237,17.903366626930236C4.804166626930237,17.903366626930236,4.9233366269302365,17.784166626930237,4.9233366269302365,17.784166626930237C5.2808366269302365,17.426666626930235,5.858336626930237,17.426666626930235,6.215836626930237,17.784166626930237C6.573336626930237,18.14166662693024,6.573336626930237,18.719166626930235,6.215836626930237,19.076666626930237C6.215836626930237,19.076666626930237,6.0966666269302365,19.195866626930236,6.0966666269302365,19.195866626930236C5.922496626930236,19.369966626930236,5.684166626930237,19.46166662693024,5.454996626930237,19.46166662693024ZM21.166666626930237,12.916666626930237C21.166666626930237,12.916666626930237,21.093366626930237,12.916666626930237,21.093366626930237,12.916666626930237C20.589166626930236,12.916666626930237,20.17666662693024,12.504166626930237,20.17666662693024,11.999966626930236C20.17666662693024,11.495836626930236,20.589166626930236,11.083336626930237,21.093366626930237,11.083336626930237C21.597466626930238,11.083336626930237,22.046666626930236,11.495836626930236,22.046666626930236,11.999966626930236C22.046666626930236,12.504166626930237,21.670866626930238,12.916666626930237,21.166666626930237,12.916666626930237ZM2.906666626930237,12.916666626930237C2.906666626930237,12.916666626930237,2.8333336269302367,12.916666626930237,2.8333336269302367,12.916666626930237C2.329166626930237,12.916666626930237,1.9166666269302368,12.504166626930237,1.9166666269302368,11.999966626930236C1.9166666269302368,11.495836626930236,2.329166626930237,11.083336626930237,2.8333336269302367,11.083336626930237C3.337496626930237,11.083336626930237,3.786666626930237,11.495836626930236,3.786666626930237,11.999966626930236C3.786666626930237,12.504166626930237,3.410836626930237,12.916666626930237,2.906666626930237,12.916666626930237ZM18.425866626930237,6.490836626930236C18.187466626930238,6.490836626930236,17.958366626930236,6.399166626930237,17.774966626930237,6.224996626930237C17.417466626930235,5.867496626930237,17.417466626930235,5.289996626930237,17.774966626930237,4.932496626930236C17.774966626930237,4.932496626930236,17.894166626930236,4.813336626930237,17.894166626930236,4.813336626930237C18.251666626930238,4.455836626930237,18.82916662693024,4.455836626930237,19.186666626930236,4.813336626930237C19.544166626930238,5.170836626930237,19.544166626930238,5.748336626930237,19.186666626930236,6.105836626930237C19.186666626930236,6.105836626930237,19.067466626930237,6.224996626930237,19.067466626930237,6.224996626930237C18.893366626930238,6.399166626930237,18.664166626930236,6.490836626930236,18.425866626930237,6.490836626930236ZM5.5741666269302375,6.490836626930236C5.335836626930236,6.490836626930236,5.106666626930236,6.399166626930237,4.9233366269302365,6.224996626930237C4.9233366269302365,6.224996626930237,4.804166626930237,6.0966666269302365,4.804166626930237,6.0966666269302365C4.446666626930236,5.739166626930237,4.446666626930236,5.161666626930237,4.804166626930237,4.804166626930237C5.161666626930237,4.446666626930236,5.739166626930237,4.446666626930236,6.0966666269302365,4.804166626930237C6.0966666269302365,4.804166626930237,6.215836626930237,4.9233366269302365,6.215836626930237,4.9233366269302365C6.573336626930237,5.2808366269302365,6.573336626930237,5.858336626930237,6.215836626930237,6.215836626930237C6.041666626930237,6.399166626930237,5.803336626930237,6.490836626930236,5.5741666269302375,6.490836626930236ZM11.999966626930236,3.786666626930237C11.495836626930236,3.786666626930237,11.083336626930237,3.410836626930237,11.083336626930237,2.906666626930237C11.083336626930237,2.906666626930237,11.083336626930237,2.8333336269302367,11.083336626930237,2.8333336269302367C11.083336626930237,2.329166626930237,11.495836626930236,1.9166666269302368,11.999966626930236,1.9166666269302368C12.504166626930237,1.9166666269302368,12.916666626930237,2.329166626930237,12.916666626930237,2.8333336269302367C12.916666626930237,3.337496626930237,12.504166626930237,3.786666626930237,11.999966626930236,3.786666626930237Z" fill="#000000" fill-opacity="1"/></g><g transform="matrix(-1,0,0,-1,46,46)" style="opacity:0;"><path d="M23,23C23,23,45,23,45,23C45,23,45,45,45,45C45,45,23,45,23,45C23,45,23,23,23,23Z" fill="#000000" fill-opacity="1"/></g></g></g></g></svg>