<svg xmlns="http://www.w3.org/2000/svg" xmlns:xlink="http://www.w3.org/1999/xlink" fill="none" version="1.1" width="32" height="32" viewBox="0 0 32 32"><defs><clipPath id="master_svg0_84_00350"><rect x="0" y="0" width="32" height="32" rx="0"/></clipPath></defs><g><g clip-path="url(#master_svg0_84_00350)"><g><path d="M5.7598383046875,4.345746375L9.7597223046875,8.345624375L10.4668323046875,9.052734375L9.0526123046875,10.466954375L8.3455023046875,9.759844375L4.3455053046875,5.759841375Q4.2048533046875,5.619189375,4.1287323046874995,5.435417375Q4.0526123046875,5.251646375,4.0526123046875,5.052734375Q4.0526123046875,4.954242975,4.0718273046875,4.857644375Q4.0910423046875,4.761045375,4.1287333046875,4.670051375Q4.1664243046875,4.579056375,4.2211423046875,4.497164375Q4.2758613046875,4.415271375,4.3455053046875,4.345627375Q4.4151493046875,4.275983375,4.4970423046875,4.221264375Q4.5789343046875,4.166546375,4.6699293046875,4.128855375Q4.7609233046875,4.091164375,4.8575223046875,4.071949375Q4.9541209046875,4.052734375,5.0526123046875,4.052734375Q5.2515243046875,4.052734375,5.4352953046875,4.1288543749999995Q5.6190673046875,4.204975375,5.7597193046875,4.345627375L5.7598383046875,4.345746375Z" fill-rule="evenodd" fill="#000000" fill-opacity="1"/></g><g transform="matrix(0,1,-1,0,30.947265625,-20.841796875)"><path d="M26.60175725,4.345746375L30.60164125,8.345624375L31.30875125,9.052734375L29.89453125,10.466954375L29.18742125,9.759844375L25.18742425,5.759841375Q25.04677225,5.619189375,24.97065125,5.435417375Q24.89453125,5.251646375,24.89453125,5.052734375Q24.89453125,4.954242975,24.91374625,4.857644375Q24.932961249999998,4.761045375,24.97065225,4.670051375Q25.00834325,4.579056375,25.06306125,4.497164375Q25.11778025,4.415271375,25.18742425,4.345627375Q25.25706825,4.275983375,25.33896125,4.221264375Q25.42085325,4.166546375,25.51184825,4.128855375Q25.60284225,4.091164375,25.69944125,4.071949375Q25.79603985,4.052734375,25.89453125,4.052734375Q26.09344325,4.052734375,26.27721425,4.1288543749999995Q26.46098625,4.204975375,26.60163825,4.345627375L26.60175725,4.345746375Z" fill-rule="evenodd" fill="#000000" fill-opacity="1"/></g><g transform="matrix(0.7071067690849304,-0.7071067690849304,0.7071067690849304,0.7071067690849304,-10.787317959449865,6.561114203537727)"><path d="M3.23353215234375,15.595013953125001L7.23341615234375,19.594891953125L7.94052615234375,20.302001953125L6.52630615234375,21.716221953125L5.81919615234375,21.009111953125L1.8191991523437498,17.009108953125Q1.67854715234375,16.868456953125,1.60242615234375,16.684684953125Q1.52630615234375,16.500913953125,1.52630615234375,16.302001953125Q1.52630615234375,16.203510553125,1.54552115234375,16.106911953125Q1.56473615234375,16.010312953125,1.60242715234375,15.919318953125Q1.64011815234375,15.828323953125,1.69483615234375,15.746431953125Q1.74955515234375,15.664538953125,1.8191991523437498,15.594894953125Q1.88884315234375,15.525250953125,1.97073615234375,15.470531953125Q2.05262815234375,15.415813953125,2.14362315234375,15.378122953125Q2.23461715234375,15.340431953125,2.33121615234375,15.321216953124999Q2.42781475234375,15.302001953125,2.52630615234375,15.302001953125Q2.72521815234375,15.302001953125,2.90898915234375,15.378121953125Q3.09276115234375,15.454242953125,3.23341315234375,15.594894953125L3.23353215234375,15.595013953125001Z" fill-rule="evenodd" fill="#000000" fill-opacity="1"/></g><g transform="matrix(-0.7071068286895752,0.7071067094802856,-0.7071067094802856,-0.7071068286895752,59.99839863741363,7.751856354858319)"><path d="M29.10096379296875,15.595013953125001L33.10084779296875,19.594891953125L33.80795779296875,20.302001953125L32.39373779296875,21.716221953125L31.68662779296875,21.009111953125L27.68663079296875,17.009108953125Q27.54597879296875,16.868456953125,27.46985779296875,16.684684953125Q27.39373779296875,16.500913953125,27.39373779296875,16.302001953125Q27.39373779296875,16.203510553125,27.41295279296875,16.106911953125Q27.432167792968748,16.010312953125,27.46985879296875,15.919318953125Q27.50754979296875,15.828323953125,27.56226779296875,15.746431953125Q27.61698679296875,15.664538953125,27.68663079296875,15.594894953125Q27.75627479296875,15.525250953125,27.83816779296875,15.470531953125Q27.92005979296875,15.415813953125,28.01105479296875,15.378122953125Q28.10204879296875,15.340431953125,28.19864779296875,15.321216953124999Q28.29524639296875,15.302001953125,28.39373779296875,15.302001953125Q28.59264979296875,15.302001953125,28.77642079296875,15.378121953125Q28.96019279296875,15.454242953125,29.10084479296875,15.594894953125L29.10096379296875,15.595013953125001Z" fill-rule="evenodd" fill="#000000" fill-opacity="1"/></g><g transform="matrix(0,-1,1,0,-21.68438720703125,31.78924560546875)"><path d="M5.75965519921875,26.02982840625L9.75953919921875,30.02970640625L10.46664919921875,30.73681640625L9.05242919921875,32.15103640625L8.34531919921875,31.44392640625L4.34532219921875,27.44392340625Q4.20467019921875,27.30327140625,4.1285491992187495,27.11949940625Q4.05242919921875,26.93572840625,4.05242919921875,26.73681640625Q4.05242919921875,26.63832500625,4.07164419921875,26.54172640625Q4.09085919921875,26.44512740625,4.12855019921875,26.35413340625Q4.16624119921875,26.26313840625,4.22095919921875,26.18124640625Q4.27567819921875,26.09935340625,4.34532219921875,26.02970940625Q4.41496619921875,25.96006540625,4.49685919921875,25.90534640625Q4.57875119921875,25.85062840625,4.66974619921875,25.81293740625Q4.76074019921875,25.775246406249998,4.85733919921875,25.75603140625Q4.95393779921875,25.73681640625,5.05242919921875,25.73681640625Q5.25134119921875,25.73681640625,5.43511219921875,25.81293640625Q5.61888419921875,25.88905740625,5.75953619921875,26.02970940625L5.75965519921875,26.02982840625Z" fill-rule="evenodd" fill="#000000" fill-opacity="1"/></g><g transform="matrix(-1,0,0,-1,51.789306640625,53.4736328125)"><path d="M26.6018793203125,26.02982840625L30.6017633203125,30.02970640625L31.3088733203125,30.73681640625L29.8946533203125,32.15103640625L29.1875433203125,31.44392640625L25.1875463203125,27.44392340625Q25.0468943203125,27.30327140625,24.9707733203125,27.11949940625Q24.8946533203125,26.93572840625,24.8946533203125,26.73681640625Q24.8946533203125,26.63832500625,24.9138683203125,26.54172640625Q24.933083320312498,26.44512740625,24.9707743203125,26.35413340625Q25.0084653203125,26.26313840625,25.0631833203125,26.18124640625Q25.1179023203125,26.09935340625,25.1875463203125,26.02970940625Q25.2571903203125,25.96006540625,25.3390833203125,25.90534640625Q25.4209753203125,25.85062840625,25.5119703203125,25.81293740625Q25.6029643203125,25.775246406249998,25.6995633203125,25.75603140625Q25.7961619203125,25.73681640625,25.8946533203125,25.73681640625Q26.0935653203125,25.73681640625,26.2773363203125,25.81293640625Q26.4611083203125,25.88905740625,26.6017603203125,26.02970940625L26.6018793203125,26.02982840625Z" fill-rule="evenodd" fill="#000000" fill-opacity="1"/></g><g><path d="M16.65789794921875,25.6842L16.65789794921875,8Q16.65789794921875,7.9263097,16.65067794921875,7.852974Q16.64344794921875,7.779639,16.62907794921875,7.707365Q16.61469794921875,7.63509,16.59330794921875,7.564573Q16.57191794921875,7.4940560000000005,16.54371794921875,7.425975Q16.51551794921875,7.357894,16.48077794921875,7.292905Q16.44603794921875,7.2279160000000005,16.40509794921875,7.166645Q16.36415794921875,7.105373,16.31741794921875,7.04841Q16.27066794921875,6.99145,16.21855794921875,6.93934Q16.16644794921875,6.88723,16.10948794921875,6.8404799999999994Q16.05252494921875,6.79374,15.99125294921875,6.7528Q15.92998194921875,6.71186,15.86499294921875,6.67712Q15.80000394921875,6.64238,15.73192294921875,6.61418Q15.66384194921875,6.58598,15.59332494921875,6.56459Q15.52280794921875,6.5432,15.45053294921875,6.52882Q15.37825894921875,6.51445,15.30492394921875,6.50722Q15.23158824921875,6.5,15.15789794921875,6.5Q15.08420764921875,6.5,15.01087194921875,6.50722Q14.93753694921875,6.51445,14.86526294921875,6.52882Q14.79298794921875,6.5432,14.72247094921875,6.56459Q14.65195394921875,6.58598,14.58387294921875,6.61418Q14.51579194921875,6.64238,14.45080294921875,6.67712Q14.38581394921875,6.71186,14.32454294921875,6.7528Q14.26327094921875,6.79374,14.20630794921875,6.8404799999999994Q14.14934794921875,6.88723,14.09723794921875,6.93934Q14.04512794921875,6.99145,13.99837794921875,7.04841Q13.95163794921875,7.105373,13.91069794921875,7.166645Q13.86975794921875,7.2279160000000005,13.83501794921875,7.292905Q13.80027794921875,7.357894,13.77207794921875,7.425975Q13.74387794921875,7.4940560000000005,13.722487949218749,7.564573Q13.70109794921875,7.63509,13.68671794921875,7.707365Q13.67234794921875,7.779639,13.66511794921875,7.852974Q13.65789794921875,7.9263097,13.65789794921875,8L13.65789794921875,25.6842Q13.65789794921875,25.7579,13.66511794921875,25.8312Q13.67234794921875,25.9046,13.68671794921875,25.9768Q13.70109794921875,26.0491,13.722487949218749,26.1196Q13.74387794921875,26.1902,13.77207794921875,26.2582Q13.80027794921875,26.3263,13.83501794921875,26.3913Q13.86975794921875,26.4563,13.91069794921875,26.5176Q13.95163794921875,26.5788,13.99837794921875,26.6358Q14.04512794921875,26.6928,14.09723794921875,26.7449Q14.14934794921875,26.797,14.20630794921875,26.8437Q14.26327094921875,26.8905,14.32454294921875,26.9314Q14.38581394921875,26.9724,14.45080294921875,27.0071Q14.51579194921875,27.0418,14.58387294921875,27.07Q14.65195394921875,27.0982,14.72247094921875,27.1196Q14.79298794921875,27.141,14.86526294921875,27.1554Q14.93753694921875,27.1698,15.01087194921875,27.177Q15.08420764921875,27.1842,15.15789794921875,27.1842Q15.23158824921875,27.1842,15.30492394921875,27.177Q15.37825894921875,27.1698,15.45053294921875,27.1554Q15.52280794921875,27.141,15.59332494921875,27.1196Q15.66384194921875,27.0982,15.73192294921875,27.07Q15.80000394921875,27.0418,15.86499294921875,27.0071Q15.92998194921875,26.9724,15.99125294921875,26.9314Q16.05252494921875,26.8905,16.10948794921875,26.8437Q16.16644794921875,26.797,16.21855794921875,26.7449Q16.27066794921875,26.6928,16.31741794921875,26.6358Q16.36415794921875,26.5788,16.40509794921875,26.5176Q16.44603794921875,26.4563,16.48077794921875,26.3913Q16.51551794921875,26.3263,16.54371794921875,26.2582Q16.57191794921875,26.1902,16.59330794921875,26.1196Q16.61469794921875,26.0491,16.62907794921875,25.9768Q16.64344794921875,25.9046,16.65067794921875,25.8312Q16.65789794921875,25.7579,16.65789794921875,25.6842Z" fill-rule="evenodd" fill="#000000" fill-opacity="1"/></g></g></g></svg>