<svg xmlns="http://www.w3.org/2000/svg" xmlns:xlink="http://www.w3.org/1999/xlink" fill="none" version="1.1" width="42" height="42" viewBox="0 0 42 42"><g><g><g></g><g><g><path d="M12.3124928,25.3199Q11.25,27.3997,11.25,29.75Q11.25,31.733,12.016614,33.5454Q12.756755,35.2953,14.10571,36.6443Q15.45466,37.9932,17.20455,38.7334Q19.01702,39.5,21,39.5Q22.983,39.5,24.7954,38.7334Q26.545299999999997,37.9932,27.8943,36.6443Q29.2432,35.2953,29.9834,33.5454Q30.75,31.733,30.75,29.75Q30.75,27.3997,29.6875,25.3199Q28.7765,23.5366,27.25,22.2657L27.25,8.75Q27.25,6.16117,25.4194,4.330583Q23.5888,2.5,21,2.5Q18.41116,2.500001,16.58058,4.330583Q14.75,6.16117,14.75,8.75L14.75,22.2657Q13.2235,23.5366,12.3124928,25.3199ZM15.519919999999999,35.2301Q13.25,32.9602,13.25,29.75Q13.25,27.881,14.09355,26.2297Q14.91046,24.6306,16.35058,23.5489Q16.4436,23.479,16.5181,23.3897Q16.5926,23.3003,16.64459,23.1962Q16.69658,23.0922,16.72329,22.9789Q16.75,22.8657,16.75,22.7494L16.75,8.75Q16.75,6.98959,17.994799999999998,5.7448Q19.23959,4.5,21,4.5Q22.7604,4.5,24.005200000000002,5.7448Q25.25,6.98959,25.25,8.75L25.25,22.7494Q25.25,22.8657,25.276699999999998,22.9789Q25.3034,23.0922,25.3554,23.1962Q25.407400000000003,23.3003,25.4819,23.3897Q25.5564,23.479,25.6494,23.5489Q27.0895,24.6306,27.9065,26.2297Q28.75,27.881,28.75,29.75Q28.75,32.9601,26.4801,35.2301Q24.2102,37.5,21,37.5Q17.789839999999998,37.5,15.519919999999999,35.2301Z" fill-rule="evenodd" fill="#000000" fill-opacity="1"/></g><g><path d="M20,14.874999046325684L20,26.249999046325684Q20,26.348499046325685,20.019215,26.445099046325684Q20.038429999999998,26.541699046325682,20.076121,26.632699046325683Q20.113812,26.723699046325684,20.16853,26.805599046325682Q20.223249,26.887499046325683,20.292893,26.957099046325684Q20.362537,27.02669904632568,20.44443,27.081499046325682Q20.526322,27.136199046325686,20.617317,27.173899046325683Q20.708311,27.211599046325684,20.80491,27.230799046325686Q20.9015086,27.249999046325684,21,27.249999046325684Q21.0984914,27.249999046325684,21.19509,27.230799046325686Q21.291689,27.211599046325684,21.382683,27.173899046325683Q21.473678,27.136199046325686,21.55557,27.081499046325682Q21.637463,27.02669904632568,21.707107,26.957099046325684Q21.776751,26.887499046325683,21.83147,26.805599046325682Q21.886188,26.723699046325684,21.923879,26.632699046325683Q21.961570000000002,26.541699046325682,21.980785,26.445099046325684Q22,26.348499046325685,22,26.249999046325684L22,14.874999046325684Q22,14.776507646325683,21.980785,14.679909046325683Q21.961570000000002,14.583310046325684,21.923879,14.492316046325683Q21.886188,14.401321046325684,21.83147,14.319429046325684Q21.776751,14.237536046325683,21.707107,14.167892046325683Q21.637463,14.098248046325683,21.55557,14.043529046325684Q21.473678,13.988811046325683,21.382683,13.951120046325684Q21.291689,13.913429046325684,21.19509,13.894214046325683Q21.0984914,13.874999046325684,21,13.874999046325684Q20.9015086,13.874999046325684,20.80491,13.894214046325683Q20.708311,13.913429046325684,20.617317,13.951120046325684Q20.526322,13.988811046325683,20.44443,14.043529046325684Q20.362537,14.098248046325683,20.292893,14.167892046325683Q20.223249,14.237536046325683,20.16853,14.319429046325684Q20.113812,14.401321046325684,20.076121,14.492316046325683Q20.038429999999998,14.583310046325684,20.019215,14.679909046325683Q20,14.776507646325683,20,14.874999046325684Z" fill-rule="evenodd" fill="#000000" fill-opacity="1"/></g><g><ellipse cx="21.000000715255737" cy="29.749997854232788" rx="3.499999761581421" ry="3.499999761581421" fill-opacity="0" stroke-opacity="1" stroke="#000000" fill="none" stroke-width="2" stroke-linejoin="round"/></g></g></g></g></svg>