<svg xmlns="http://www.w3.org/2000/svg" xmlns:xlink="http://www.w3.org/1999/xlink" fill="none" version="1.1" width="24" height="24" viewBox="0 0 24 24"><defs><clipPath id="master_svg0_84_5021"><rect x="0" y="0" width="24" height="24" rx="0"/></clipPath><clipPath id="master_svg1_84_5022"><rect x="19.5" y="3.5" width="17" height="17" rx="2"/></clipPath></defs><g clip-path="url(#master_svg0_84_5021)"><g transform="matrix(0,1,-1,0,24,-16)" clip-path="url(#master_svg1_84_5022)"><g><path d="M26.353431035156248,7.687145541015625L26.35361103515625,7.686957541015625Q26.42394103515625,7.616631541015625,26.46200103515625,7.524746541015625Q26.50006103515625,7.432860741015625,26.50006103515625,7.333404541015625Q26.50006103515625,7.233948341015625,26.46200103515625,7.142062541015625Q26.42394103515625,7.050177541015625,26.35361103515625,6.979851541015625L26.353331035156252,6.979565541015625Q26.35132103515625,6.977564541015625,26.34930103515625,6.975586541015625L26.34901103515625,6.975304541015625Q26.27898103515625,6.907067541015625,26.18841103515625,6.870236541015625Q26.09784103515625,6.833404541015625,26.00006103515625,6.833404541015625L25.99452103515625,6.833435541015625Q25.89651103515625,6.834520541015625,25.80616103515625,6.872531541015625Q25.71582103515625,6.9105415410156255,25.64651103515625,6.979851541015625L23.64650803515625,8.979854541015625Q23.57618103515625,9.050174541015625,23.53812103515625,9.142064541015625Q23.50006103515625,9.233944541015624,23.50006103515625,9.333404541015625Q23.50006103515625,9.432864541015626,23.53812103515625,9.524744541015625Q23.57618103515625,9.616634541015625,23.64650803515625,9.686954541015625L25.64651103515625,11.686954541015625Q25.71683103515625,11.757284541015625,25.80872103515625,11.795344541015625Q25.90060103515625,11.833404541015625,26.00006103515625,11.833404541015625Q26.01300103515625,11.833404541015625,26.02593103515625,11.832734541015625Q26.11855103515625,11.827934541015626,26.20329103515625,11.790234541015625Q26.28803103515625,11.752534541015624,26.35361103515625,11.686954541015625Q26.42394103515625,11.616634541015625,26.46200103515625,11.524744541015625Q26.50006103515625,11.432864541015626,26.50006103515625,11.333404541015625Q26.50006103515625,11.233944541015624,26.46200103515625,11.142064541015625Q26.42394103515625,11.050174541015625,26.35361103515625,10.979854541015625L26.35335103515625,10.979594541015626L24.70716803515625,9.333404541015625L26.353431035156248,7.687145541015625Z" fill-rule="evenodd" fill="#000000" fill-opacity="1"/></g><g><path d="M29.646634,16.312977529296873L29.646447,16.313167529296877Q29.57612,16.383487529296875,29.53806,16.475377529296875Q29.5,16.567257529296874,29.5,16.666717529296875Q29.5,16.678737529296875,29.500577,16.690737529296875Q29.505055,16.783857529296874,29.542791,16.869097529296873Q29.580526,16.954347529296875,29.646447,17.020267529296873Q29.716773,17.090597529296875,29.808658,17.128657529296873Q29.9005438,17.166717529296875,30,17.166717529296875Q30.0994562,17.166717529296875,30.191342,17.128657529296873Q30.283227,17.090597529296875,30.353553,17.020267529296873L30.353741,17.020087529296873L32.35355,15.020267529296875Q32.42388,14.949947529296875,32.46194,14.858057529296875Q32.5,14.766177529296876,32.5,14.666717529296875Q32.5,14.567257529296874,32.46194,14.475377529296875Q32.42388,14.383487529296875,32.35355,14.313167529296875L30.353553,12.313164529296875Q30.283227,12.242837529296875,30.191342,12.204777529296875Q30.0994562,12.166717529296875,30,12.166717529296875Q29.9005438,12.166717529296875,29.808658,12.204777529296875Q29.716773,12.242837529296875,29.646447,12.313164529296875Q29.57612,12.383490529296875,29.53806,12.475375529296874Q29.5,12.567261329296874,29.5,12.666717529296875Q29.5,12.766173729296876,29.53806,12.858059529296876Q29.57612,12.949944529296875,29.646447,13.020270529296875L31.29289,14.666717529296875L29.646634,16.312977529296873Z" fill-rule="evenodd" fill="#000000" fill-opacity="1"/></g><g><path d="M24.3333740234375,9.833404541015625L31.111094023437502,9.833404541015625Q31.1603440234375,9.833404541015625,31.2086440234375,9.823797541015624Q31.256944023437498,9.814189541015626,31.3024340234375,9.795344541015625Q31.3479340234375,9.776498541015625,31.388884023437498,9.749139541015625Q31.4298240234375,9.721779541015625,31.4646540234375,9.686957541015625Q31.4994740234375,9.652135541015625,31.5268340234375,9.611189541015625Q31.5541940234375,9.570243541015625,31.5730340234375,9.524746541015626Q31.5918840234375,9.479249541015625,31.6014940234375,9.430949641015625Q31.611094023437502,9.382650241015625,31.611094023437502,9.333404541015625Q31.611094023437502,9.284158841015625,31.6014940234375,9.235859441015625Q31.5918840234375,9.187559541015625,31.5730340234375,9.142062541015624Q31.5541940234375,9.096565541015625,31.5268340234375,9.055619541015625Q31.4994740234375,9.014673541015625,31.4646540234375,8.979851541015625Q31.4298240234375,8.945029541015625,31.388884023437498,8.917669541015625Q31.3479340234375,8.890310541015625,31.3024340234375,8.871464541015625Q31.256944023437498,8.852619541015624,31.2086440234375,8.843011541015626Q31.1603440234375,8.833404541015625,31.111094023437502,8.833404541015625L24.3333740234375,8.833404541015625Q24.2841283234375,8.833404541015625,24.2358289234375,8.843011541015626Q24.1875290234375,8.852619541015624,24.1420320234375,8.871464541015625Q24.0965350234375,8.890310541015625,24.0555890234375,8.917669541015625Q24.0146430234375,8.945029541015625,23.9798210234375,8.979851541015625Q23.9449990234375,9.014673541015625,23.9176390234375,9.055619541015625Q23.8902800234375,9.096565541015625,23.8714340234375,9.142062541015624Q23.8525890234375,9.187559541015625,23.8429810234375,9.235859441015625Q23.8333740234375,9.284158841015625,23.8333740234375,9.333404541015625Q23.8333740234375,9.382650241015625,23.8429810234375,9.430949641015625Q23.8525890234375,9.479249541015625,23.8714340234375,9.524746541015626Q23.8902800234375,9.570243541015625,23.9176390234375,9.611189541015625Q23.9449990234375,9.652135541015625,23.9798210234375,9.686957541015625Q24.0146430234375,9.721779541015625,24.0555890234375,9.749139541015625Q24.0965350234375,9.776498541015625,24.1420320234375,9.795344541015625Q24.1875290234375,9.814189541015626,24.2358289234375,9.823797541015624Q24.2841283234375,9.833404541015625,24.3333740234375,9.833404541015625Z" fill-rule="evenodd" fill="#000000" fill-opacity="1"/></g><g><path d="M25.33331298828125,15.166717529296875L31.99998298828125,15.166717529296875Q32.04922298828125,15.166717529296875,32.09752298828125,15.157110529296874Q32.14582298828125,15.147502529296876,32.19132298828125,15.128657529296875Q32.23681298828125,15.109811529296875,32.27776298828125,15.082452529296875Q32.31871298828125,15.055092529296875,32.35353298828125,15.020270529296875Q32.38835298828125,14.985448529296875,32.41571298828125,14.944502529296875Q32.44307298828125,14.903556529296875,32.46191298828125,14.858059529296876Q32.48076298828125,14.812562529296875,32.49037298828125,14.764262629296875Q32.499982988281246,14.715963229296875,32.499982988281246,14.666717529296875Q32.499982988281246,14.617471829296875,32.49037298828125,14.569172429296875Q32.48076298828125,14.520872529296875,32.46191298828125,14.475375529296874Q32.44307298828125,14.429878529296875,32.41571298828125,14.388932529296875Q32.38835298828125,14.347986529296875,32.35353298828125,14.313164529296875Q32.31871298828125,14.278342529296875,32.27776298828125,14.250982529296875Q32.23681298828125,14.223623529296875,32.19132298828125,14.204777529296875Q32.14582298828125,14.185932529296874,32.09752298828125,14.176324529296876Q32.04922298828125,14.166717529296875,31.99998298828125,14.166717529296875L25.33331298828125,14.166717529296875Q25.28406728828125,14.166717529296875,25.23576788828125,14.176324529296876Q25.18746798828125,14.185932529296874,25.14197098828125,14.204777529296875Q25.09647398828125,14.223623529296875,25.05552798828125,14.250982529296875Q25.01458198828125,14.278342529296875,24.97975998828125,14.313164529296875Q24.94493798828125,14.347986529296875,24.91757798828125,14.388932529296875Q24.89021898828125,14.429878529296875,24.87137298828125,14.475375529296874Q24.85252798828125,14.520872529296875,24.84291998828125,14.569172429296875Q24.83331298828125,14.617471829296875,24.83331298828125,14.666717529296875Q24.83331298828125,14.715963229296875,24.84291998828125,14.764262629296875Q24.85252798828125,14.812562529296875,24.87137298828125,14.858059529296876Q24.89021898828125,14.903556529296875,24.91757798828125,14.944502529296875Q24.94493798828125,14.985448529296875,24.97975998828125,15.020270529296875Q25.01458198828125,15.055092529296875,25.05552798828125,15.082452529296875Q25.09647398828125,15.109811529296875,25.14197098828125,15.128657529296875Q25.18746798828125,15.147502529296876,25.23576788828125,15.157110529296874Q25.28406728828125,15.166717529296875,25.33331298828125,15.166717529296875Z" fill-rule="evenodd" fill="#000000" fill-opacity="1"/></g><rect x="20" y="4" width="16" height="16" rx="2" fill-opacity="0" stroke-opacity="1" stroke="#000000" fill="none" stroke-width="1"/></g></g></svg>