<svg xmlns="http://www.w3.org/2000/svg" xmlns:xlink="http://www.w3.org/1999/xlink" fill="none" version="1.1" width="32" height="32" viewBox="0 0 32 32"><defs><clipPath id="master_svg0_84_00191"><rect x="0" y="0" width="32" height="32" rx="0"/></clipPath></defs><g clip-path="url(#master_svg0_84_00191)"><g><path d="M7.8199959765625,8.378843906250001Q8.3169159765625,5.74202390625,10.3635059765625,3.86180390625Q12.7530259765625,1.66650390625,15.9999259765625,1.66650390625Q19.2468259765625,1.66650390625,21.6364259765625,3.86180390625Q23.6830259765625,5.74202390625,24.1799259765625,8.378843906250001Q26.5388259765625,8.63918390625,28.2830259765625,10.38341390625Q30.3333259765625,12.43365390625,30.3333259765625,15.33320390625Q30.3333259765625,18.232703906250002,28.2830259765625,20.28290390625Q26.2328259765625,22.33320390625,23.3333259765625,22.33320390625L8.6666259765625,22.33320390625Q5.7671259765625,22.33320390625,3.7168759765625,20.28290390625Q1.6666259765625,18.232703906250002,1.6666259765625,15.33320390625Q1.6666259765625,12.43366390625,3.7168759765625,10.38341390625Q5.4611159765625,8.63918390625,7.8199959765625,8.378843906250001ZM5.1310959765625,11.79762390625Q6.595555976562499,10.33317390625,8.6666259765625,10.33317390625L8.696495976562499,10.33317390625Q8.7893159765625,10.33317390625,8.880555976562501,10.31608390625Q8.9717859765625,10.29900390625,9.0583159765625,10.26541390625Q9.1448559765625,10.23183390625,9.2237259765625,10.182893906250001Q9.3025959765625,10.13395390625,9.3711159765625,10.07133390625Q9.4396359765625,10.00871390625,9.4954559765625,9.934553906249999Q9.5512759765625,9.86038390625,9.5924959765625,9.77722390625Q9.633715976562499,9.69405390625,9.6589159765625,9.60471390625Q9.6841259765625,9.515383906250001,9.6924559765625,9.42293390625Q9.9114559765625,6.99301390625,11.7165959765625,5.33461390625Q13.5323259765625,3.66650390625,15.9999259765625,3.66650390625Q18.467625976562502,3.66650390625,20.2833259765625,5.33461390625Q22.0884259765625,6.99300390625,22.3074259765625,9.42293390625Q22.3158259765625,9.515383906250001,22.3410259765625,9.60471390625Q22.3662259765625,9.69405390625,22.4074259765625,9.77722390625Q22.4486259765625,9.86039390625,22.5044259765625,9.934553906249999Q22.5603259765625,10.00871390625,22.6288259765625,10.07133390625Q22.6973259765625,10.13395390625,22.7762259765625,10.182893906250001Q22.8550259765625,10.23183390625,22.9416259765625,10.26541390625Q23.0281259765625,10.29900390625,23.1193259765625,10.31608390625Q23.2106259765625,10.33317390625,23.3034259765625,10.33317390625L23.3333259765625,10.33317390625Q25.4044259765625,10.33317390625,26.8688259765625,11.79762390625Q28.3333259765625,13.26210390625,28.3333259765625,15.33320390625Q28.3333259765625,17.40430390625,26.8688259765625,18.86870390625Q25.4044259765625,20.33320390625,23.3333259765625,20.33320390625L8.6666259765625,20.33320390625Q6.595555976562499,20.33320390625,5.1310959765625,18.86870390625Q3.6666259765625,17.40420390625,3.6666259765625,15.33320390625Q3.6666259765625,13.26210390625,5.1310959765625,11.79762390625Z" fill-rule="evenodd" fill="#000000" fill-opacity="1"/></g><g><path d="M20.04007,16.04097809375L20.04044,16.04060309375Q20.18109,15.89995109375,20.25721,15.71617909375Q20.33333,15.53240809375,20.33333,15.33349609375Q20.33333,15.13458409375,20.25721,14.95081309375Q20.18109,14.76704109375,20.04044,14.62638909375L20.03987,14.62581809375Q20.03586,14.62181609375,20.03181,14.61786109375L20.03123,14.61729609375Q19.89118,14.48082209375,19.71003,14.40715909375Q19.52888,14.33349609375,19.33333,14.33349609375L19.3278,14.33351109375Q19.13033,14.33460309375,18.9481,14.41067809375Q18.76586,14.48675309375,18.62623,14.62638909375L15.292893,17.95972609375Q15.152241,18.10037609375,15.07612,18.28414609375Q15,18.46791609375,15,18.66682609375Q15,18.69086609375,15.001154,18.71486609375Q15.010111,18.901106093750002,15.085581,19.07159609375Q15.161051,19.24209609375,15.292893,19.37393609375Q15.433545,19.51458609375,15.617317,19.59070609375Q15.801088,19.66682609375,16,19.66682609375Q16.198912,19.66682609375,16.382683,19.59070609375Q16.566455,19.51458609375,16.707107,19.37393609375L16.707482,19.37356609375L20.04007,16.04097809375Z" fill-rule="evenodd" fill="#000000" fill-opacity="1"/></g><g><path d="M12.707226,11.959515906250001L12.707107,11.95939690625Q12.566455,11.81874490625,12.382683,11.74262390625Q12.198912,11.66650390625,12,11.66650390625Q11.801088,11.66650390625,11.617317,11.74262390625Q11.433545,11.81874490625,11.292893,11.95939690625Q11.152241,12.10004890625,11.07612,12.28382090625Q11,12.46759190625,11,12.66650390625Q11,12.86541590625,11.07612,13.04918690625Q11.152241,13.23295890625,11.292893,13.37361090625L15.29289,17.37361390625Q15.43355,17.51426390625,15.61732,17.59038390625Q15.80109,17.66650390625,16,17.66650390625Q16.02589,17.66650390625,16.05174,17.66516390625Q16.23699,17.655563906250002,16.40647,17.58017390625Q16.57594,17.50477390625,16.70711,17.37361390625Q16.84776,17.23295390625,16.92388,17.04918390625Q17,16.865413906249998,17,16.66650390625Q17,16.46759390625,16.92388,16.28382390625Q16.84776,16.10005390625,16.70711,15.95939390625L12.707226,11.959515906250001Z" fill-rule="evenodd" fill="#000000" fill-opacity="1"/></g><g><path d="M17,29.3333L17,12Q17,11.9015086,16.980785,11.80491Q16.961570000000002,11.708311,16.923879,11.617317Q16.886188,11.526322,16.83147,11.44443Q16.776751,11.362537,16.707107,11.292893Q16.637463,11.223249,16.55557,11.16853Q16.473678,11.113812,16.382683,11.076121Q16.291689,11.03843,16.19509,11.019214999999999Q16.0984914,11,16,11Q15.9015086,11,15.80491,11.019214999999999Q15.708311,11.03843,15.617317,11.076121Q15.526322,11.113812,15.44443,11.16853Q15.362537,11.223249,15.292893,11.292893Q15.223249,11.362537,15.16853,11.44443Q15.113812,11.526322,15.076121,11.617317Q15.03843,11.708311,15.019214999999999,11.80491Q15,11.9015086,15,12L15,29.3333Q15,29.4318,15.019214999999999,29.5284Q15.03843,29.625,15.076121,29.716Q15.113812,29.807,15.16853,29.8889Q15.223249,29.9708,15.292893,30.0404Q15.362537,30.1101,15.44443,30.1648Q15.526322,30.2195,15.617317,30.2572Q15.708311,30.2949,15.80491,30.3141Q15.9015086,30.3333,16,30.3333Q16.0984914,30.3333,16.19509,30.3141Q16.291689,30.2949,16.382683,30.2572Q16.473678,30.2195,16.55557,30.1648Q16.637463,30.1101,16.707107,30.0404Q16.776751,29.9708,16.83147,29.8889Q16.886188,29.807,16.923879,29.716Q16.961570000000002,29.625,16.980785,29.5284Q17,29.4318,17,29.3333Z" fill-rule="evenodd" fill="#000000" fill-opacity="1"/></g></g></svg>