<svg xmlns="http://www.w3.org/2000/svg" xmlns:xlink="http://www.w3.org/1999/xlink" fill="none" version="1.1" width="32" height="32" viewBox="0 0 32 32"><defs><clipPath id="master_svg0_84_00378"><rect x="0" y="0" width="32" height="32" rx="0"/></clipPath></defs><g><g clip-path="url(#master_svg0_84_00378)"><g><path d="M16,1.666748046875Q15.9015086,1.666748046875,15.80491,1.6859620468749998Q15.708311,1.705177046875,15.617317,1.742868046875Q15.526322,1.780559046875,15.44443,1.835278046875Q15.362537,1.889997046875,15.292893,1.9596410468749998Q15.223249,2.029285046875,15.16853,2.111178046875Q15.113812,2.193070046875,15.076121,2.284065046875Q15.03843,2.375059046875,15.019214999999999,2.471658046875Q15,2.568256646875,15,2.666748046875L15,16.000048046875Q15,16.098548046875003,15.019214999999999,16.195148046874998Q15.03843,16.291748046875,15.076121,16.382748046875Q15.113812,16.473748046875002,15.16853,16.555648046875Q15.223249,16.637548046875,15.292893,16.707148046874998Q15.362537,16.776848046875,15.44443,16.831548046875Q15.526322,16.886248046875,15.617317,16.923948046874997Q15.708311,16.961648046875,15.80491,16.980848046875Q15.9015086,17.000048046875,16,17.000048046875Q19.17561,17.000048046875,21.42114,14.754548046875Q23.66667,12.509028046875,23.66667,9.333418046875Q23.66667,6.157778046875,21.42114,3.912258046875Q19.17562,1.666748046875,16,1.666748046875ZM17,3.747158046875L17,14.919648046875Q18.71252,14.634748046875,20.00693,13.340348046875Q21.66667,11.680598046875,21.66667,9.333418046875Q21.66667,6.986208046875,20.00693,5.326478046875Q18.71253,4.032078046875,17,3.747158046875Z" fill-rule="evenodd" fill="#000000" fill-opacity="1"/></g><g><path d="M30.3333,16Q30.3333,15.9015086,30.3141,15.80491Q30.2949,15.708311,30.257199999999997,15.617317Q30.2195,15.526322,30.1648,15.44443Q30.1101,15.362537,30.040399999999998,15.292893Q29.9708,15.223249,29.8889,15.16853Q29.807000000000002,15.113812,29.716,15.076121Q29.625,15.03843,29.528399999999998,15.019214999999999Q29.431800000000003,15,29.3333,15L16,15Q15.9015086,15,15.80491,15.019214999999999Q15.708311,15.03843,15.617317,15.076121Q15.526322,15.113812,15.44443,15.16853Q15.362537,15.223249,15.292893,15.292893Q15.223249,15.362537,15.16853,15.44443Q15.113812,15.526322,15.076121,15.617317Q15.03843,15.708311,15.019214999999999,15.80491Q15,15.9015086,15,16Q15,19.17561,17.24553,21.42114Q19.49105,23.66667,22.66667,23.66667Q25.842280000000002,23.66667,28.0878,21.42114Q30.3333,19.17561,30.3333,16ZM28.2529,17L17.08042,17Q17.36534,18.71252,18.65974,20.00693Q20.31948,21.66667,22.66667,21.66667Q25.01386,21.66667,26.6736,20.00693Q27.968,18.71252,28.2529,17Z" fill-rule="evenodd" fill="#000000" fill-opacity="1"/></g><g><path d="M1.66668701171875,15.999921953125Q1.66668701171875,16.098411953125,1.6859010117187498,16.195011953125Q1.70511601171875,16.291611953125,1.74280701171875,16.382601953125Q1.78049801171875,16.473591953125002,1.83521701171875,16.555491953125Q1.88993601171875,16.637381953125,1.9595800117187498,16.707021953125Q2.02922401171875,16.776671953125,2.11111701171875,16.831391953125Q2.19300901171875,16.886101953125,2.28400401171875,16.923801953125Q2.37499801171875,16.961491953124998,2.47159701171875,16.980701953125Q2.56819561171875,16.999921953125,2.66668701171875,16.999921953125L15.99998701171875,16.999921953125Q16.098487011718753,16.999921953125,16.195087011718748,16.980701953125Q16.29168701171875,16.961491953124998,16.38268701171875,16.923801953125Q16.473687011718752,16.886111953125,16.55558701171875,16.831391953125Q16.63748701171875,16.776671953125,16.707087011718748,16.707021953125Q16.77678701171875,16.637381953125,16.83148701171875,16.555491953125Q16.88618701171875,16.473591953125002,16.923887011718747,16.382601953125Q16.96158701171875,16.291611953125,16.98078701171875,16.195011953125Q16.99998701171875,16.098411953125,16.99998701171875,15.999921953125Q16.99998701171875,12.824301953125,14.75448701171875,10.578781953125Q12.50896701171875,8.333252953125,9.33335701171875,8.333251953125Q6.15771701171875,8.333251953125,3.91219701171875,10.578781953125Q1.66668701171875,12.824301953125,1.66668701171875,15.999921953125ZM3.74709701171875,14.999921953125L14.91958701171875,14.999921953125Q14.63468701171875,13.287401953125,13.34028701171875,11.992991953125Q11.68053701171875,10.333251953125,9.33335701171875,10.333251953125Q6.98614701171875,10.333251953125,5.32641701171875,11.992991953125Q4.03201701171875,13.287391953125,3.74709701171875,14.999921953125Z" fill-rule="evenodd" fill="#000000" fill-opacity="1"/></g><g><path d="M15.99998298828125,30.3333Q16.09847298828125,30.3333,16.19507298828125,30.3141Q16.29167298828125,30.2949,16.38266298828125,30.257199999999997Q16.473652988281252,30.2195,16.55555298828125,30.1648Q16.63744298828125,30.1101,16.70708298828125,30.040399999999998Q16.77673298828125,29.9708,16.83145298828125,29.8889Q16.88616298828125,29.807000000000002,16.92386298828125,29.716Q16.961552988281248,29.625,16.98076298828125,29.528399999999998Q16.99998298828125,29.431800000000003,16.99998298828125,29.3333L16.99998298828125,16Q16.99998298828125,15.9015086,16.98076298828125,15.80491Q16.961552988281248,15.708311,16.92386298828125,15.617317Q16.88617298828125,15.526322,16.83145298828125,15.44443Q16.77673298828125,15.362537,16.70708298828125,15.292893Q16.63744298828125,15.223249,16.55555298828125,15.16853Q16.473652988281252,15.113812,16.38266298828125,15.076121Q16.29167298828125,15.03843,16.19507298828125,15.019214999999999Q16.09847298828125,15,15.99998298828125,15Q12.82436298828125,15,10.57884298828125,17.24553Q8.33331398828125,19.49105,8.33331298828125,22.66667Q8.33331298828125,25.842280000000002,10.57884298828125,28.0878Q12.82436298828125,30.3333,15.99998298828125,30.3333ZM14.99998298828125,28.2529L14.99998298828125,17.08042Q13.28745298828125,17.36534,11.99305298828125,18.65974Q10.33331298828125,20.31948,10.33331298828125,22.66667Q10.33331298828125,25.01386,11.99305298828125,26.6736Q13.28745298828125,27.968,14.99998298828125,28.2529Z" fill-rule="evenodd" fill="#000000" fill-opacity="1"/></g></g></g></svg>