<svg xmlns="http://www.w3.org/2000/svg" xmlns:xlink="http://www.w3.org/1999/xlink" fill="none" version="1.1" width="32" height="32" viewBox="0 0 32 32"><defs><clipPath id="master_svg0_140_2019"><rect x="0" y="0" width="32" height="32" rx="0"/></clipPath></defs><g><g clip-path="url(#master_svg0_140_2019)"><rect x="0" y="0" width="32" height="32" rx="0" fill="#FFFFFF" fill-opacity="0"/><g><path d="M79.2556953125,25.081548828125L80.4884953125,25.081548828125L80.4884953125,25.209448828125C80.3028953125,25.273048828125,80.2411953125,25.273048828125,80.1795953125,25.336748828125C80.1178953125,25.400348828125,80.1178953125,25.527548828125,80.1178953125,25.655448828125L80.1178953125,26.228748828125L81.6616953125,26.228748828125L81.6616953125,25.655448828125C81.6594953125,25.537348828125,81.6156953125,25.423948828125,81.5383953125,25.336748828125C81.5383953125,25.273048828125,81.4143953125,25.273048828125,81.2294953125,25.209448828125L81.2294953125,25.081548828125L82.4622953125,25.081548828125L82.4622953125,25.209448828125C82.3389953125,25.273048828125,82.2157953125,25.273048828125,82.1533953125,25.336748828125C82.0910953125,25.400348828125,82.0917953125,25.527548828125,82.0917953125,25.655448828125L82.0917953125,27.248748828125C82.0917953125,27.375948828125,82.0917953125,27.503148828125,82.1533953125,27.567548828125C82.2150953125,27.631848828125,82.3389953125,27.631148828125,82.4622953125,27.631148828125L82.4622953125,27.758348828125L81.2294953125,27.758348828125L81.2294953125,27.631148828125C81.4143953125,27.631148828125,81.5383953125,27.631148828125,81.5383953125,27.567548828125C81.6154953125,27.480048828125,81.6591953125,27.366848828125,81.6616953125,27.248748828125L81.6616953125,26.420348828125L80.1178953125,26.420348828125L80.1178953125,27.248748828125C80.1178953125,27.375948828125,80.1178953125,27.503148828125,80.1795953125,27.567548828125C80.2411953125,27.631848828125,80.3028953125,27.631148828125,80.4884953125,27.631148828125L80.4884953125,27.758348828125L79.2556953125,27.758348828125L79.2556953125,27.631148828125C79.4405953125,27.631148828125,79.5021953125,27.631148828125,79.5638953125,27.567548828125C79.6254953125,27.503848828125,79.6261953125,27.375948828125,79.6261953125,27.248748828125L79.6261953125,25.655448828125C79.6261953125,25.527548828125,79.6261953125,25.400348828125,79.5638953125,25.336748828125C79.5014953125,25.273048828125,79.3788953125,25.273048828125,79.2556953125,25.209448828125M82.6519953125,25.081548828125L83.8847953125,25.081548828125L83.8847953125,25.209448828125C83.6991953125,25.273048828125,83.5758953125,25.273048828125,83.5758953125,25.336748828125C83.4986953125,25.423948828125,83.4548953125,25.537248828125,83.4526953125,25.655448828125L83.4526953125,27.248748828125C83.4550953125,27.366848828125,83.4988953125,27.480048828125,83.5758953125,27.567548828125C83.5758953125,27.631148828125,83.6991953125,27.631148828125,83.8847953125,27.631148828125L83.8847953125,27.758348828125L82.6519953125,27.758348828125L82.6519953125,27.631148828125C82.7752953125,27.631148828125,82.8985953125,27.631148828125,82.9608953125,27.567548828125C83.0232953125,27.503848828125,83.0225953125,27.375948828125,83.0225953125,27.248748828125L83.0225953125,25.655448828125C83.0225953125,25.527548828125,83.0225953125,25.400348828125,82.9608953125,25.336748828125C82.8992953125,25.273048828125,82.7752953125,25.273048828125,82.6519953125,25.209448828125M84.0101953125,25.209448828125C84.1957953125,25.273048828125,84.2573953125,25.273048828125,84.3190953125,25.336748828125C84.3806953125,25.400348828125,84.3806953125,25.527548828125,84.3806953125,25.655448828125L84.3806953125,27.248748828125C84.3806953125,27.375948828125,84.3806953125,27.503148828125,84.3190953125,27.567548828125C84.2573953125,27.631848828125,84.1957953125,27.631148828125,84.0101953125,27.631148828125L84.0101953125,27.758348828125L85.0600953125,27.758348828125L85.0600953125,27.631148828125C84.8751953125,27.631148828125,84.8128953125,27.631148828125,84.7511953125,27.567548828125C84.6895953125,27.503848828125,84.6895953125,27.375948828125,84.6895953125,27.248748828125Q84.6895953125,27.121448828125,84.6895953125,25.463948828125L86.2948953125,27.758348828125L86.6654953125,27.758348828125L86.6654953125,25.655448828125C86.6675953125,25.537148828125,86.7116953125,25.423748828125,86.7893953125,25.336748828125C86.7893953125,25.273048828125,86.9126953125,25.273048828125,87.0975953125,25.209448828125L87.0975953125,25.081548828125L86.0483953125,25.081548828125L86.0483953125,25.209448828125C86.1716953125,25.273048828125,86.2948953125,25.273048828125,86.3565953125,25.336748828125C86.4181953125,25.400348828125,86.4188953125,25.527548828125,86.4188953125,25.655448828125L86.4188953125,27.248748828125L84.9984953125,25.081548828125L84.0101953125,25.081548828125M88.8269953125,26.611148828125L87.9009953125,26.611148828125L88.3947953125,25.463948828125L88.8269953125,26.611148828125ZM87.2832953125,27.375948828125L87.0975953125,27.567548828125C87.0359953125,27.631148828125,86.9743953125,27.631148828125,86.8510953125,27.631148828125L86.8510953125,27.758348828125L87.9626953125,27.758348828125L87.9626953125,27.694748828125C87.8386953125,27.631148828125,87.7153953125,27.631148828125,87.6537953125,27.567548828125C87.5920953125,27.567548828125,87.5920953125,27.503148828125,87.5920953125,27.439548828125L87.5920953125,27.375948828125C87.5920953125,27.312348828125,87.5920953125,27.312348828125,87.6537953125,27.248748828125L87.8386953125,26.802748828125L88.9502953125,26.802748828125L89.1358953125,27.312348828125L89.1358953125,27.439548828125C89.1701953125,27.438748828125,89.1982953125,27.467748828125,89.1974953125,27.503148828125C89.1974953125,27.567548828125,89.1358953125,27.567548828125,89.0741953125,27.631148828125L88.8269953125,27.631148828125L88.8269953125,27.758348828125L90.0001953125,27.758348828125L90.0001953125,27.631148828125C89.8768953125,27.631148828125,89.8152953125,27.631148828125,89.7535953125,27.567548828125C89.6919953125,27.503848828125,89.6296953125,27.439548828125,89.6296953125,27.375948828125L88.7036953125,25.081548828125L88.2714953125,25.081548828125L87.2832953125,27.375948828125ZM27.5683953125,10.933348828125L27.3834953125,10.550958828125L28.6799953125,9.403748828125C28.8039953125,9.275808828125,28.8655953125,9.212188828125,28.8655953125,9.084958828125L29.1121953125,8.957728828125L29.4210953125,9.853298828125L29.1737953125,9.980528828125L29.1737953125,9.916918828125C29.1737953125,9.853298828125,29.1121953125,9.853298828125,29.1121953125,9.789678828125L28.9888953125,9.789678828125C28.9896953125,9.825148828125,28.9615953125,9.854118828125,28.9272953125,9.853298828125L28.6799953125,10.044148828125L28.8655953125,10.618108828125L29.1737953125,10.618108828125L29.2361953125,10.554488828125C29.2977953125,10.554488828125,29.3593953125,10.554488828125,29.3593953125,10.490868828125C29.3593953125,10.427258828125,29.3593953125,10.426548828125,29.2977953125,10.299318828125L29.5443953125,10.235698828125L29.8545953125,10.996948828125L29.6079953125,11.060548828125C29.5456953125,10.933348828125,29.4223953125,10.869748828125,29.1751953125,10.933348828125L27.5683953125,10.933348828125ZM27.9389953125,10.614568828125L28.6217953125,10.614568828125L28.4368953125,10.232168828125L27.9389953125,10.614568828125ZM28.5553953125,13.355048828125L28.5553953125,13.164148828125C28.6169953125,13.099848828125,28.7402953125,13.099848828125,28.8642953125,13.036248828125L29.6668953125,12.781748828125C29.8518953125,12.781748828125,29.9134953125,12.717448828125,29.9757953125,12.781748828125C30.0418953125,12.786548828125,30.0944953125,12.840748828125,30.0990953125,12.908948828125L30.3463953125,12.845348828125L30.1606953125,12.144148828125L29.9134953125,12.207748828125L29.9134953125,12.397948828125C29.8367953125,12.489248828125,29.7218953125,12.536648828125,29.6052953125,12.525148828125L28.6217953125,12.781748828125L29.9805953125,11.509448828125L29.9182953125,11.127048828125L28.4984953125,11.509448828125C28.3794953125,11.552648828125,28.2540953125,11.574148828125,28.1279953125,11.573048828125C28.0944953125,11.538748828125,28.0727953125,11.494048828125,28.0663953125,11.445848828125L27.7574953125,11.509448828125L28.0039953125,12.210648828125L28.1895953125,12.147048828125C28.1895953125,12.019748828125,28.1895953125,11.955448828125,28.2512953125,11.955448828125C28.2512953125,11.891848828125,28.3745953125,11.828248828125,28.5601953125,11.828248828125L29.1155953125,11.637348828125L28.0663953125,12.656648828125L28.3128953125,13.421448828125L28.5553953125,13.355048828125ZM3.0528253125,16.860248828125C3.1144653125,16.923848828125,3.0528253125,16.987448828125,3.0528253125,17.051748828125C2.9911853125,17.051748828125,2.8679053125,17.115448828125,2.7439353124999997,17.115448828125L1.8796053124999998,17.179048828125C1.7563253125,17.242648828125,1.6323603125,17.242648828125,1.5707203125,17.179048828125C1.5090803125,17.179048828125,1.5090803125,17.115448828125,1.5090803125,17.051748828125L1.2618353125,17.051748828125L1.4474403125,18.708648828125L2.1884903125,18.900948828125L2.2501353125000003,18.710048828125C2.0645253125,18.646448828125,1.9412453125,18.518448828125,1.8179653125000002,18.391248828125C1.7136853125,18.279448828125,1.6292973124999999,18.149448828125,1.5686653125,18.007448828125C1.5686653125,17.880248828125,1.5686653125,17.816648828125,1.6303053125,17.816648828125C1.6303053125,17.752248828125,1.7542703125,17.752248828125,1.8159103125,17.752248828125L2.3097153125,17.688648828125L2.3713553125,17.752248828125C2.3713553125,17.816648828125,2.3097153125,17.880248828125,2.3097153125,17.943848828125C2.2251653124999997,18.023548828125,2.1153543125,18.068848828125,2.0008313125,18.071048828125L2.0624713125,18.262648828125L2.9891253124999997,18.134648828125L2.9891253124999997,17.943848828125L2.6822953125,17.943848828125C2.6822953125,17.880248828125,2.6206553125000003,17.816648828125,2.6206553125000003,17.752248828125L2.6206553125000003,17.628548828125L2.9295453125,17.628548828125C2.9911853125,17.564948828125,3.1144653125,17.564948828125,3.1144653125,17.628548828125C3.1761053125,17.628548828125,3.1761053125,17.692148828125,3.1761053125,17.820148828125C3.2384253125,17.947348828125,3.1761053125,18.074648828125,3.1144653125,18.202548828125C3.0305053125,18.344948828125,2.9263953125,18.473648828125,2.8055753125000003,18.584248828125L2.9295453125,18.775748828125L3.5459453125,18.393348828125L3.3610253125,16.800148828125L3.0528253125,16.860248828125ZM2.7439353124999997,14.693048828125L2.6822953125,14.884648828125C2.8055753125000003,14.948248828125,2.9295453125,15.011848828125,2.9911853125,15.139748828125C3.0528253125,15.203348828125,3.0528253125,15.330648828125,3.0528253125,15.457848828125L1.8796053124999998,15.394248828125C1.6940003125,15.394248828125,1.6323603125,15.394248828125,1.5707203125,15.330648828125C1.5090803125,15.330648828125,1.5090803125,15.267048828125,1.5090803125,15.203348828125L1.2618354125,15.139748828125L1.2001953468151,16.159048828125L1.4474403125,16.159048828125C1.4442293125,16.089748828125,1.4662113125,16.021648828125002,1.5090803125,15.968248828125C1.5707203125,15.968248828125,1.6940003125,15.904548828125,1.8796053124999998,15.904548828125L3.0528253125,15.968248828125L3.0528253125,16.031848828125C3.0528253125,16.159048828125,2.9911853125,16.222648828125,2.9295453125,16.350648828125C2.8679053125,16.414248828125,2.7439353124999997,16.477848828124998,2.5590153124999997,16.541448828125L2.6206553125000003,16.733048828125L3.3000653125,16.541448828125L3.3617053125,14.948248828125L2.7439353124999997,14.693048828125ZM3.5466253125,13.864648828125L3.4849853125,14.310648828125L1.8179653125000002,14.565848828125C1.6323603125,14.565848828125,1.5090803125,14.629448828125,1.5090803125,14.757348828125L1.2001953125,14.693048828125L1.3858003125,13.740948828125L1.6323603125,13.804548828125L1.6323603125,13.996148828125C1.6940003125,13.996148828125,1.6940003125,14.059748828125,1.7563253125,14.059748828125L1.8179653125000002,14.059748828125L2.1268503125000002,13.996148828125L2.2501353125000003,13.422148828125L2.0028853125,13.294948828125L1.9412453125,13.294948828125C1.9075763125,13.258848828125,1.8516343124999999,13.258848828125,1.8179653125000002,13.294948828125C1.7563253125,13.294948828125,1.7563253125,13.358548828125,1.7563253125,13.422148828125L1.4474403125,13.422148828125L1.6323603125,12.593748828125L1.8796053124999998,12.657348828125C1.8796053124999998,12.785248828125,1.9412453125,12.912548828125,2.1268503125000002,13.039748828125L2.1884903125,13.039748828125L3.5466253125,13.864648828125ZM3.0528253125,13.928248828125L2.4973753125,13.545848828125L2.4350553125000003,13.992548828125L3.0528253125,13.928248828125ZM3.6089553125,11.312948828125L3.4863553125,11.442948828125C3.5897653125,11.554548828125,3.6734453125,11.684048828125,3.7336053125,11.825348828125C3.7377953125,11.935148828125,3.7166653125,12.044448828125,3.6719653125,12.144148828125L2.5590153124999997,11.761748828125C2.4350553125000003,11.698148828125,2.3117753125,11.698148828125,2.3117753125,11.634548828125C2.2644753125,11.583448828125,2.2418653125,11.513148828125,2.2501353125000003,11.442948828125L2.0028853125,11.315748828125L1.6940003125,12.271448828125L1.9412453125,12.335048828125L2.0645253125,12.207748828125C2.1906773125,12.206648828125,2.3160653125,12.228148828125,2.4350553125000003,12.271448828125L3.5466253125,12.653848828125C3.4849853125,12.781748828125,3.4233453125,12.908948828125,3.3000653125,12.972648828125C3.2384253125,12.972648828125,3.1144653125,13.036248828125,2.9295453125,13.036248828125L2.9295453125,13.291348828125L3.6089553125,13.291348828125L4.1643953125,11.761748828125L3.6089553125,11.312948828125ZM4.2253553125,10.994148828125L4.5958753125000005,10.611748828125C4.6503553125,10.446518828125,4.6503553125,10.267338828125,4.5958753125000005,10.102108828125C4.5460053125,9.937478828125,4.4349253125,9.799968828125,4.2869953125,9.719708828125C4.190545312499999,9.673688828125,4.084985312500001,9.651658828125,3.9787953125,9.655388828125L3.7322353125,9.655388828125C3.7322353125,9.719708828125,3.6555253125,9.734548828125,3.6089553125,9.783328828125C3.5623753125,9.832098828125,3.4849853125,9.974168828125,3.3617053125,10.037788828125C3.3628953125,10.073528828125,3.3347053125,10.102938828125,3.3000653125,10.102108828125C3.1144653125,10.356578828125,2.9911853125,10.420188828125,2.8679053125,10.356578828125C2.8015553124999997,10.352138828125,2.7485953125,10.297788828125,2.7439353124999997,10.229338828125C2.6822953125,10.102108828125,2.7439353124999997,10.037788828125,2.7439353124999997,9.910558828125C2.8055753125000003,9.783328828125,2.9295453125,9.719708828125,3.0528253125,9.655388828125C3.2305153125,9.582918828125,3.4182253125,9.539968828125,3.6089553125,9.528148828125L3.6089553125,9.337308828125L2.8055753125000003,9.146458828125L2.7439353124999997,9.338008828125L2.8679053125,9.401628828125C2.7748353125,9.449048828125,2.6910253125,9.513738828125,2.6206553125000003,9.592478828125C2.5444853125,9.654078828125,2.4992153125,9.747788828125,2.4973753125,9.847648828125C2.3940853124999997,10.019318828125,2.3711953125000003,10.229868828125,2.4350553125000003,10.420898828125C2.4823053125000003,10.597608828125,2.6206553125000003,10.739678828125,2.8055753125000003,10.867648828125C2.9449153125,10.915748828125,3.0915953125,10.937348828125,3.2384253125,10.931248828125C3.3617053125,10.867648828125,3.4849853125,10.739678828125,3.6705953125,10.548838828125C3.7049553125,10.549648828125,3.7330253125,10.520688828125,3.7322353125,10.485218828125C3.9794753125,10.230048828125,4.102755312499999,10.102818828125,4.2260353125000005,10.166428828125C4.287675312499999,10.166428828125,4.287675312499999,10.230048828125,4.287675312499999,10.293668828125C4.3493153125,10.357278828125,4.287675312499999,10.420898828125,4.287675312499999,10.548838828125C4.2260353125000005,10.612448828125,4.1506953125,10.755228828125,4.041115312500001,10.803348828125C3.9027053125,10.854448828125,3.7557253125,10.876348828125,3.6089553125,10.867648828125L3.6089553125,11.058448828125L4.2253553125,11.250048828125L4.3486353125,11.058448828125L4.2253553125,10.994848828125L4.2253553125,10.994148828125ZM25.2212953125,5.576898828125L25.4061953125,5.832068828125L26.0225953125,6.468228828125L26.2698953125,6.723398828125L26.0225953125,6.914248828125L25.6520953125,7.296648828125L25.4671953125,7.488198828125L25.2219953125,7.237978828125L24.6055953125,6.536788828125L24.4206953125,6.345948828125L24.6055953125,6.154388828125L25.0377953125,5.771988828125L25.2212953125,5.576898828125ZM25.6534953125,4.875708828125L25.9623953125,4.621248828125L26.2095953125,4.939328828125L27.3827953125,6.211638828125L27.6293953125,6.466108828125L27.3827953125,6.721278828125L25.9006953125,8.123658828125L25.7767953125,8.250888828125L25.5917953125,8.250888828125C25.5301953125,8.187268828125,25.4061953125,8.123658828125,25.2212953125,7.932098828125C25.2212953125,7.868488828125,25.2829953125,7.868488828125,25.2829953125,7.804868828125C25.3445953125,7.804868828125,25.3445953125,7.741248828125,25.4061953125,7.676928828125L25.4061953125,7.549698828125L25.5917953125,7.741248828125C25.6534953125,7.804868828125,25.6534953125,7.804868828125,25.7150953125,7.804868828125C25.7494953125,7.805678828125,25.7775953125,7.776718828125,25.7767953125,7.741248828125L27.1355953125,6.468928828125L25.9623953125,5.196618828125L25.6534953125,4.875708828125ZM26.7650953125,6.468938828125L26.5177953125,6.724108828125L26.2712953125,6.468938828125L25.4061953125,5.513278828125L25.1596953125,5.258108828125L25.4061953125,5.003648828125L25.6534953125,5.258108828125L26.5177953125,6.214468828125L26.7650953125,6.468938828125ZM25.4712953125,6.982098828125L25.7794953125,6.663318828125L25.2240953125,6.089358828125L24.9151953125,6.408148828125L25.4712953125,6.982098828125ZM23.0604953125,2.584118828125C22.9988953125,2.7756788281249998,22.9988953125,2.839288828125,22.9371953125,2.966528828125L22.9371953125,3.221698828125C22.8755953125,3.341228828125,22.8755953125,3.484558828125,22.9371953125,3.604098828125C22.9371953125,3.731328828125,22.9988953125,3.859268828125,23.0604953125,4.050118828125C23.1220953125,4.177348828125,23.1844953125,4.368898828124999,23.3076953125,4.496138828125C23.3806953125,4.420388828125001,23.4639953125,4.356088828124999,23.5549953125,4.305288828125001C23.6165953125,4.305288828125001,23.6165953125,4.305288828125001,23.6782953125,4.241668828125L23.4926953125,4.050118828125C23.4590953125,4.015838828125,23.4374953125,3.971128828125,23.4309953125,3.922878828125C23.3693953125,3.859268828125,23.3549953125,3.781518828125,23.3076953125,3.667708828125C23.2631953125,3.545618828125,23.2422953125,3.415708828125,23.2460953125,3.285308828125C23.2891953125,3.207808828125,23.3104953125,3.119448828125,23.3076953125,3.030138828125C23.3428953125,2.997118828125,23.3648953125,2.951758828125,23.3693953125,2.902908828125C23.3693953125,2.839288828125,23.4309953125,2.839288828125,23.4309953125,2.7756788281249998L23.0604953125,2.584118828125ZM21.1461953125,3.986498828125L20.8996953125,3.986498828125L20.8996953125,4.113728828125C20.8989953125,4.223148828125,20.8778953125,4.331398828125,20.8372953125,4.432518828125C20.9612953125,4.432518828125,21.0229953125,4.496138828125,21.1461953125,4.496138828125C21.2078953125,4.5597488281250005,21.3934953125,4.624068828125,21.7023953125,4.7513088281249996C21.9567953125,4.838278828125,22.2044953125,4.944838828125,22.4433953125,5.070088828125C22.4433953125,5.197318828125,22.5050953125,5.260938828125,22.4433953125,5.324558828125L22.4433953125,5.452488828125L22.5666953125,5.388878828125C22.6721953125,5.383218828125,22.7761953125,5.361538828125,22.8755953125,5.324558828125C22.8755953125,5.070088828125,22.8138953125,4.688398828125,22.7515953125,4.241668828125L22.3810953125,4.241668828125L22.3810953125,4.432518828125C22.4433953125,4.496138828125,22.4433953125,4.5597488281250005,22.4433953125,4.7513088281249996C22.1344953125,4.5597488281250005,21.7639953125,4.432518828125,21.4550953125,4.241668828125C21.5783953125,4.177348828125,21.7023953125,4.113728828125,21.8255953125,4.113728828125L22.4419953125,3.794948828125C22.4893953125,3.790308828125,22.5332953125,3.767628828125,22.5652953125,3.731328828125C22.4630953125,3.619878828125,22.3803953125,3.490968828125,22.3207953125,3.350338828125L22.2591953125,3.413958828125C22.2039953125,3.465818828125,22.1416953125,3.508938828125,22.0742953125,3.541898828125L21.7036953125,3.732738828125C21.6190953125,3.812468828125,21.5093953125,3.857908828125,21.3947953125,3.860678828125C21.3331953125,3.924298828125,21.2091953125,3.924298828125,21.1475953125,3.987918828125L21.1461953125,3.986498828125ZM21.2078953125,3.285308828125C21.3934953125,3.285308828125,21.5934953125,3.206848828125,21.7639953125,3.158078828125C21.9335953125,3.108908828125,22.0987953125,3.044828828125,22.2577953125,2.966528828125C22.3810953125,2.839288828125,22.5666953125,2.7756788281249998,22.7515953125,2.647738828125C22.6282953125,2.584118828125,22.5666953125,2.456888828125,22.5050953125,2.329658828125L22.4433953125,2.393278828125C22.3193953125,2.456888828125,22.1961953125,2.584118828125,22.0105953125,2.647738828125C21.8500953125,2.722498828125,21.6851953125,2.786488828125,21.5167953125,2.839288828125C21.3934953125,2.902908828125,21.2078953125,2.902908828125,21.0845953125,2.902908828125L21.1461953125,2.966528828125C21.1461953125,3.030138828125,21.2078953125,3.158078828125,21.2078953125,3.285308828125ZM16.6998953125,3.412538828125L16.7615953125,3.030138828125L17.0704953125,1.182451828125L17.1320953125,0.800049866965L17.5025953125,0.863665728125L19.1702953125,1.182451828125L19.5408953125,1.246067828125L19.4791953125,1.564854828125L19.1702953125,3.540478828125C19.1702953125,3.604098828125,19.1702953125,3.667718828125,19.1086953125,3.667718828125C19.1086953125,3.731328828125,19.0469953125,3.794948828125,18.9230953125,3.794948828125L18.5538953125,3.794948828125L18.5538953125,3.667718828125C18.5622953125,3.597758828125,18.5395953125,3.527648828125,18.4922953125,3.476868828125L18.4922953125,3.350338828125C18.5538953125,3.350338828125,18.6155953125,3.413958828125,18.6778953125,3.413958828125L18.8011953125,3.413958828125C18.8011953125,3.350338828125,18.8011953125,3.350338828125,18.8627953125,3.286728828125L19.1100953125,1.501944828125L17.4423953125,1.247481828125L17.3806953125,1.629883828125L17.4423953125,1.629883828125C17.5039953125,1.629883828125,17.5662953125,1.566267828125,17.6279953125,1.566267828125C17.7040953125,1.627588828125,17.7493953125,1.721073828125,17.7511953125,1.820728828125C17.7985953125,1.7699448281249999,17.8211953125,1.699834828125,17.8128953125,1.629883828125C17.8173953125,1.580841828125,17.8393953125,1.535265828125,17.8744953125,1.501944828125L17.8744953125,1.3711788281250001C17.9984953125,1.4347938281250001,18.0600953125,1.498409828125,18.2449953125,1.498409828125C18.2449953125,1.5627328281250001,18.1833953125,1.5627328281250001,18.1833953125,1.626348828125L18.1833953125,1.689964828125L18.1217953125,1.880808828125C18.1833953125,1.817198828125,18.3073953125,1.817198828125,18.3073953125,1.753580828125L18.3689953125,1.753580828125C18.4306953125,1.817198828125,18.4922953125,1.880808828125,18.4922953125,1.945138828125C18.5368953125,1.845388828125,18.5580953125,1.736143828125,18.5538953125,1.626348828125L18.6155953125,1.5627328281250001C18.7394953125,1.626348828125,18.8627953125,1.626348828125,18.9860953125,1.689964828125C18.9516953125,1.689148828125,18.9236953125,1.718113828125,18.9244953125,1.753580828125L18.8627953125,1.945138828125C18.8627953125,2.0723688281249997,18.8011953125,2.1359788281250003,18.8011953125,2.199598828125L18.6778953125,2.391148828125C18.7487953125,2.535558828125,18.8104953125,2.684548828125,18.8627953125,2.837168828125L18.8627953125,2.900788828125C18.8011953125,2.964398828125,18.6778953125,3.028018828125,18.5538953125,3.155958828125L18.5538953125,2.964398828125L18.4922953125,2.773558828125C18.4191953125,2.887168828125,18.3363953125,2.993848828125,18.2449953125,3.092338828125C18.1833953125,3.155958828125,18.1217953125,3.219568828125,18.0600953125,3.219568828125L17.9984953125,3.155958828125C17.9367953125,3.092338828125,17.8744953125,3.092338828125,17.8128953125,2.964398828125C17.9058953125,2.916978828125,17.9896953125,2.852288828125,18.0600953125,2.773558828125C18.1060953125,2.677508828125,18.1687953125,2.591008828125,18.2449953125,2.518388828125L18.3073953125,2.391148828125C18.3073953125,2.263218828125,18.2449953125,2.199598828125,18.2449953125,2.1359788281250003C18.2449953125,2.0723688281249997,18.1833953125,2.0087488281250003,18.1217953125,1.880808828125C18.0600953125,2.0087488281250003,17.9984953125,2.0723688281249997,17.9984953125,2.1359788281250003L17.9367953125,2.199598828125C17.9984953125,2.3275388281250002,18.0600953125,2.518388828125,18.1217953125,2.645618828125L17.7511953125,2.837168828125L17.7511953125,2.581998828125C17.6895953125,2.645618828125,17.6895953125,2.709938828125,17.6279953125,2.709938828125C17.6279953125,2.773558828125,17.5039953125,2.837168828125,17.3806953125,2.964398828125C17.3814953125,2.928938828125,17.3533953125,2.899968828125,17.3190953125,2.900788828125C17.3190953125,2.837168828125,17.2573953125,2.773558828125,17.1957953125,2.709938828125L17.1334953125,3.092338828125L17.0717953125,3.474748828125L16.6998953125,3.412538828125ZM17.1943953125,2.647738828125Q17.3792953125,2.552318828125,17.3792953125,2.456888828125C17.4556953125,2.384128828125,17.5185953125,2.297668828125,17.5648953125,2.201718828125C17.5025953125,2.010868828125,17.4409953125,1.882938828125,17.4409953125,1.819318828125L17.3792953125,1.6920868281249999L17.1943953125,2.647738828125ZM13.8596953125,2.584118828125L14.4760953125,2.456888828125L14.4144953125,2.138108828125L13.7980953125,2.265338828125L13.8596953125,2.584118828125ZM13.7356953125,1.947968828125L14.4150953125,1.820028828125L14.3534953125,1.4376228281249999L13.6740953125,1.5655618281249999L13.7356953125,1.947968828125ZM12.9329953125,2.776388828125L13.4891953125,2.648448828125L13.4274953125,2.3303688281249997L12.8713953125,2.3939788281250003L12.9329953125,2.776388828125ZM12.3165953125,1.4376228281249999L12.6247953125,1.374006828125L13.2411953125,1.310390828125L13.2411953125,1.118834828125L13.1795953125,0.864371628125L13.5500953125,0.800755701125L13.6117953125,1.0552188281250001L13.6117953125,1.246773828125L14.4144953125,1.118834828125L14.6616953125,1.0552188281250001L14.6616953125,1.310389828125L14.8465953125,2.5212088281250002L14.9088953125,2.839998828125L14.5383953125,2.903618828125L14.5383953125,2.839998828125L13.9219953125,2.903618828125L13.9836953125,3.222398828125L13.9836953125,3.286018828125C13.9836953125,3.349628828125,14.0452953125,3.349628828125,14.1068953125,3.349628828125L14.4774953125,3.286018828125C14.5631953125,3.282178828125,14.6472953125,3.260538828125,14.7246953125,3.222398828125C14.7863953125,3.222398828125,14.8479953125,3.158788828125,14.9102953125,3.158788828125L14.9102953125,2.839998828125C15.0951953125,2.903618828125,15.2184953125,2.967228828125,15.3424953125,2.967228828125C15.2807953125,3.158788828125,15.2807953125,3.349628828125,15.2184953125,3.349628828125C15.2125953125,3.417318828125,15.1607953125,3.471058828125,15.0951953125,3.477568828125C15.0951953125,3.541188828125,15.0335953125,3.541188828125,14.9102953125,3.541188828125C14.8479953125,3.604798828125,14.6630953125,3.604798828125,14.4774953125,3.604798828125C14.3383953125,3.652988828125,14.1918953125,3.674548828125,14.0452953125,3.668418828125C13.9219953125,3.732038828125,13.8603953125,3.732038828125,13.7986953125,3.668418828125C13.7517953125,3.661848828125,13.7081953125,3.639488828125,13.6747953125,3.604798828125C13.6747953125,3.541188828125,13.6130953125,3.477568828125,13.6130953125,3.413248828125L13.5514953125,2.967228828125L12.9953953125,3.095168828125L12.6247953125,3.158788828125L12.5631953125,2.903618828125L12.3782953125,1.6927918281249998L12.3165953125,1.4376228281249999ZM12.8103953125,2.073778828125L13.3658953125,2.010168828125L13.3042953125,1.627763828125L12.7487953125,1.754995828125L12.8103953125,2.073778828125ZM8.4860553125,3.794948828125L8.4237253125,3.604098828125L8.3620853125,3.412538828125L10.0297953125,2.520508828125L10.1530753125,2.712058828125L10.2147153125,2.839288828125L10.5852353125,2.647738828125L10.4619553125,2.520508828125L10.3379853125,2.201718828125L10.2147053125,2.010868828125L9.9674653125,2.201718828125L9.1647753125,2.584118828125C9.199135312500001,2.584938828125,9.2272053125,2.5559688281249997,9.2264153125,2.520508828125C9.1647753125,2.456888828125,9.0414953125,2.456888828125,8.8565753125,2.393278828125C8.794255312499999,2.520508828125,8.732605312499999,2.584118828125,8.732605312499999,2.647738828125L8.670975312500001,2.712058828125C8.732605312499999,2.712058828125,8.794255312499999,2.7756788281249998,8.8565753125,2.7756788281249998L8.1771653125,3.158078828125L7.8682753125,3.285308828125L7.9299153125,3.476868828125L8.1155253125,3.794948828125L8.1771653125,3.922878828125L8.4860553125,3.794948828125ZM9.4133953125,4.622658828125C9.2901153125,4.877118828125,9.0428653125,5.068678828125,8.7969853125,5.323138828125L8.9209553125,5.387468828125C8.982595312499999,5.387468828125,9.0442353125,5.451078828125,9.1058753125,5.514698828125L9.4147553125,5.195908828125C9.4763953125,5.068678828125,9.5996853125,4.940738828125,9.6620053125,4.813508828125C9.7542353125,4.670998828125001,9.8366353125,4.521948828125,9.9085653125,4.3674888281249995L9.9702053125,4.431108828125L9.9702053125,4.558338828125001C10.0325353125,4.622658828125,10.0325353125,4.686278828124999,9.9702053125,4.686278828124999C9.9702053125,4.749888828125,9.9085653125,4.813508828125,9.7236453125,4.877118828125L9.8469253125,4.940738828125C9.9085653125,4.940738828125,9.9702053125,5.005058828125,10.0325353125,5.132288828125C10.2174553125,5.005058828125,10.3407353125,4.940738828125,10.4030553125,4.813508828125L10.4030553125,4.558338828125001C10.3407353125,4.494718828125,10.3407353125,4.431108828125,10.2790853125,4.303868828125C10.2303353125,4.245638828125,10.1889153125,4.181278828125,10.1558153125,4.112318828125C10.1558153125,4.048698828125,10.0941753125,4.048698828125,10.0941753125,3.985088828125L10.1558153125,3.857858828125C10.2790853125,3.985088828125,10.3407353125,4.112318828125,10.4646953125,4.175938828125C10.5886553125,4.239548828125,10.6496153125,4.303868828125,10.7735853125,4.303868828125C10.8968653125,4.3674888281249995,11.0817853125,4.3674888281249995,11.3289953125,4.431108828125L11.3289953125,4.177348828125C11.3763953125,4.126558828125,11.3989953125,4.056448828125,11.3906953125,3.986498828125L10.8968553125,3.986498828125L10.5263353125,3.794948828125L10.3407353125,3.604098828125L10.5263353125,3.221698828125C10.4491153125,3.182948828125,10.3648953125,3.161278828125,10.2790853125,3.158078828125C10.2323453125,3.151408828125,10.1890253125,3.129048828125,10.1558153125,3.094458828125L10.0941753125,3.285308828125C10.0325353125,3.348928828125,9.9702053125,3.540478828125,9.8469253125,3.794948828125L9.7852853125,3.731328828125C9.7236453125,3.731328828125,9.6620053125,3.667718828125,9.5380453125,3.667718828125C9.6135553125,3.570568828125,9.6759853125,3.463338828125,9.7236453125,3.348928828125L9.5996853125,3.348928828125L9.9702053125,3.158078828125L10.2174553125,3.030138828125L10.0941753125,2.712058828125L9.8469253125,2.839288828125L8.735355312500001,3.475448828125L8.4887853125,3.539068828125L8.6737153125,3.857858828125L8.8593153125,3.729918828125L9.2291553125,3.539068828125C9.1009153125,3.722568828125,8.956225312499999,3.893198828125,8.7969853125,4.048698828125C8.6737153125,4.112318828125,8.5504253125,4.240258828125,8.4887853125,4.240258828125C8.556115312500001,4.2731288281249995,8.6184153125,4.3159888281250005,8.6737153125,4.3674888281249995L8.7969853125,4.494718828125L9.3531153125,3.921468828125L9.1675153125,4.303868828125L8.9209553125,4.558338828125001C8.8736953125,4.607108828125,8.735355312500001,4.686278828124999,8.6737153125,4.749888828125C8.741175312500001,4.7828888281249995,8.8036853125,4.825738828125,8.8593153125,4.877118828125L8.982595312499999,5.005058828125C9.130625312500001,4.855468828125,9.2555853125,4.683358828125,9.3531153125,4.494718828125C9.4764053125,4.3674888281249995,9.5380453125,4.240258828125,9.6620053125,4.048698828125L9.7236453125,4.112318828125C9.6291753125,4.287748828125,9.5260753125,4.458088828125,9.4147553125,4.622658828125L9.4133953125,4.622658828125ZM6.2019453125,7.810518828125L7.4347453125,6.471758828125L6.0204453125,5.070088828125L4.7876453125000005,6.408148828125L6.2019453125,7.810518828125ZM4.287675312499999,6.471758828125L4.4732853125,6.217298828125L5.8314153125,4.814918828125L6.0204453125,4.5597488281250005L6.2676953125,4.814918828125L7.6874653125,6.217298828125L7.9347153125,6.408148828125L7.6874653125,6.726928828125L7.6874653125,6.663318828125L6.3875453125,8.001368828124999L6.4491853125,8.064988828125L6.2019453125,8.320158828124999L5.9553853125,8.064988828125L4.4732853125,6.663318828125L4.287675312499999,6.471758828125ZM5.8314153125,7.428118828125L6.0786653125,7.237978828125L6.3259053125,6.919188828125L6.0204453125,6.663318828125L5.8348453125,6.854158828125L5.6499253125,7.045718828125L5.4026753125,6.854158828125L5.5882853125,6.663318828125L5.8348453125,6.408148828125L5.5882853125,6.217298828125L5.3355553125,6.471758828125L5.1506353125,6.726928828125L4.9033953125,6.471758828125L5.0883153125,6.280908828125L5.8916853125,5.452488828125L6.0766053125,5.260938828125L6.3238553125,5.452488828125L6.1382453125,5.643338828125L5.8314153125,5.965658828125L6.0786653125,6.156508828125L6.3259053125,5.902048828125L6.4491853125,5.710488828125L6.6964353125,5.965658828125L6.5108253125,6.092888828125L6.8813553125,6.092888828125L6.8813553125,6.348068828125L7.0669553125,6.156508828125L7.2518753125,6.348068828125L7.0669553125,6.538908828125L6.2642653125,7.431658828125L6.0786653125,7.622498828125L5.8314153125,7.428118828125ZM6.7580753125,6.408148828125L6.3875453125,6.408148828125C6.4348953125,6.357358828125,6.4575453125,6.287248828125,6.4491853125,6.217298828125L6.2642653125,6.344528828125L6.5724653125,6.663318828125L6.7580753125,6.408148828125ZM28.7429953125,14.438548828125C28.6813953125,14.374948828125,28.7429953125,14.310648828125,28.7429953125,14.247048828125C28.8052953125,14.247048828125,28.9285953125,14.183448828125,29.0518953125,14.183448828125L29.8545953125,13.992548828125L30.1634953125,13.992548828125C30.2250953125,14.056148828125,30.2867953125,14.056148828125,30.2867953125,14.183448828125L30.5339953125,14.119848828125L30.4106953125,13.164148828125L30.1017953125,13.227748828125C30.1634953125,13.291348828125,30.1017953125,13.355048828125,30.1017953125,13.418648828125C30.0401953125,13.418648828125,29.9161953125,13.482248828125,29.7929953125,13.482248828125L28.9902953125,13.673748828125L28.6813953125,13.673748828125C28.6196953125,13.610148828125,28.5580953125,13.610148828125,28.5580953125,13.482248828125L28.3108953125,13.545848828125L28.4964953125,14.502248828125L28.7429953125,14.438548828125ZM28.8669953125,16.860248828125C28.8669953125,16.733048828125,28.8669953125,16.669348828125003,28.9285953125,16.669348828125003C28.9902953125,16.605048828125,29.0518953125,16.605048828125,29.2374953125,16.605048828125L30.0401953125,16.541448828125L30.4106953125,16.541448828125C30.4106953125,16.605048828125,30.4723953125,16.669348828125003,30.4723953125,16.733048828125L30.7195953125,16.733048828125L30.6572953125,15.776648828125L30.4106953125,15.776648828125C30.4190953125,15.846848828125,30.3964953125,15.917148828125,30.3490953125,15.968248828125C30.2867953125,15.968248828125,30.2250953125,16.031848828125,30.0401953125,16.031848828125L29.6696953125,16.031848828125L29.6079953125,15.330648828125L29.9785953125,15.267048828125C30.1634953125,15.267048828125,30.2867953125,15.267048828125,30.2867953125,15.330648828125C30.3530953125,15.335048828125,30.4060953125,15.389448828125,30.4106953125,15.457848828125L30.6572953125,15.457848828125L30.5956953125,14.502248828125L30.2867953125,14.502248828125Q30.3490953125,14.629448828125,30.2867953125,14.693048828125C30.2250953125,14.757348828125,30.1017953125,14.757348828125,29.9161953125,14.757348828125L29.1135953125,14.820948828125L28.8053953125,14.820948828125C28.7429953125,14.757348828125,28.7429953125,14.757348828125,28.7429953125,14.629448828125L28.4347953125,14.629448828125L28.4964953125,15.649448828125L28.7429953125,15.585848828125C28.7429953125,15.522148828125,28.8052953125,15.457848828125,28.8669953125,15.394248828125C29.0141953125,15.318648828125,29.1991953125,15.330648828125,29.3607953125,15.330648828125L29.4223953125,16.095448828125L29.1751953125,16.095448828125C29.0518953125,16.095448828125,28.9285953125,16.095448828125,28.8669953125,16.031848828125C28.8053953125,16.031848828125,28.8053953125,15.968248828125,28.8053953125,15.904548828125L28.5580953125,15.904548828125L28.6196953125,16.860248828125L28.8669953125,16.860248828125ZM28.6217953125,17.242648828125C28.6217953125,17.306248828125,28.5601953125,17.369848828125,28.4984953125,17.434148828125L28.4984953125,17.688648828125C28.4368953125,18.007448828125,28.4984953125,18.199048828125,28.6833953125,18.453448828125C28.9306953125,18.645048828125,29.1771953125,18.772248828125,29.4860953125,18.772248828125C29.7949953125,18.835848828125,30.1024953125,18.772248828125,30.2887953125,18.580648828125C30.5360953125,18.389848828125,30.6592953125,18.199048828125,30.6592953125,17.880248828125C30.7088953125,17.687648828125,30.6868953125,17.482948828125,30.5976953125,17.306248828125C30.4789953125,17.110848828125,30.3072953125,16.955848828125,30.1038953125,16.860248828125L29.9805953125,17.051748828125C30.1038953125,17.179048828125,30.2421953125,17.321848828125,30.2887953125,17.434248828125C30.3353953125,17.546548828125,30.4127953125,17.625048828125,30.4127953125,17.752248828125C30.3510953125,17.943848828125,30.2887953125,18.071048828125,30.1038953125,18.199048828125C29.9805953125,18.262648828125,29.7949953125,18.262648828125,29.5477953125,18.262648828125C29.3004953125,18.262648828125,29.0539953125,18.199048828125,28.9313953125,18.071048828125C28.8091953125,17.957648828125,28.7412953125,17.794648828125,28.7457953125,17.625048828125C28.7457953125,17.497848828125,28.8080953125,17.433448828125,28.9313953125,17.306248828125C29.0520953125,17.184948828125,29.2008953125,17.097348828125,29.3634953125,17.051748828125L29.3634953125,16.860248828125L28.5607953125,17.051748828125L28.4991953125,17.179048828125L28.6224953125,17.242648828125L28.6217953125,17.242648828125ZM27.8190953125,21.257548828125C27.8806953125,21.193948828125,27.8806953125,21.130248828125,27.9423953125,21.130248828125C28.0039953125,21.066648828125,28.1279953125,21.130248828125,28.2512953125,21.193948828125L29.0539953125,21.449048828125L29.3011953125,21.576348828125C29.3628953125,21.639948828125,29.3628953125,21.703548828125,29.3628953125,21.831448828125L29.6100953125,21.895048828125L29.9182953125,20.939448828125L29.6716953125,20.875148828125L29.5477953125,21.003048828125C29.4415953125,21.007348828125,29.3359953125,20.985548828125,29.2395953125,20.939448828125L28.8655953125,20.809348828125L28.9272953125,20.745748828125C28.9318953125,20.677548828125,28.9844953125,20.623248828125,29.0504953125,20.618548828125C29.1121953125,20.554948828125,29.2360953125,20.554948828125,29.3593953125,20.618548828125L29.4210953125,20.426948828125L28.4334953125,20.108148828125L28.3710953125,20.236148828125C28.4950953125,20.299748828125,28.6183953125,20.363348828125,28.6183953125,20.426948828125C28.6799953125,20.490548828125,28.6799953125,20.554948828125,28.6183953125,20.682148828125L28.6183953125,20.745748828125L28.3094953125,20.618548828125C28.1861953125,20.618548828125,28.1245953125,20.554948828125,28.1245953125,20.490548828125L28.1245953125,20.299748828125C28.1861953125,20.172548828125,28.2477953125,20.044548828125,28.3710953125,19.980948828125C28.4813953125,19.855048828125,28.6395953125,19.785348828125,28.8039953125,19.790148828125L28.7416953125,19.598548828125L28.1252953125,19.662148828125L27.5690953125,21.191748828125L27.8190953125,21.257548828125ZM27.0163953125,22.978648828125C26.8812953125,22.713148828125,26.9052953125,22.391348828125,27.0780953125,22.150248828125C27.1961953125,21.900548828125,27.3916953125,21.698548828125,27.6334953125,21.576348828125C27.9265953125,21.495948828125,28.2387953125,21.541848828125,28.4984953125,21.703548828125C28.7684953125,21.804848828125,28.9895953125,22.010648828125,29.1148953125,22.277448828125C29.1868953125,22.552748828125,29.1651953125,22.845248828125,29.0532953125,23.105948828125C28.9299953125,23.424648828125,28.7443953125,23.615548828125,28.4368953125,23.679848828125C28.1696953125,23.752248828125,27.8866953125,23.729548828125,27.6334953125,23.615548828125C27.3252953125,23.424648828125,27.1396953125,23.233148828125,27.0170953125,22.979348828125L27.0163953125,22.978648828125ZM27.6327953125,22.022348828125C27.4478953125,22.022348828125,27.3862953125,22.150248828125,27.2622953125,22.277448828125C27.2006953125,22.404748828125,27.2622953125,22.532648828125,27.3245953125,22.723548828125C27.4644953125,22.881848828125,27.6319953125,23.011548828125,27.8183953125,23.105948828125C28.0130953125,23.191948828125,28.2229953125,23.235348828125,28.4347953125,23.233148828125C28.6196953125,23.233148828125,28.7429953125,23.169548828125,28.8052953125,22.978648828125C28.8669953125,22.850748828125,28.8669953125,22.723548828125,28.7429953125,22.532648828125C28.6813953125,22.404748828125,28.4964953125,22.277448828125,28.2491953125,22.150248828125C28.0580953125,22.052648828125,27.8455953125,22.008548828125,27.6327953125,22.022348828125ZM25.0986953125,25.336748828125C25.1478953125,25.287848828125,25.2158953125,25.264448828125,25.2835953125,25.273048828125C25.3452953125,25.273048828125,25.4068953125,25.336748828125,25.5308953125,25.463948828125L26.1472953125,26.037948828125C26.2712953125,26.165148828125,26.3328953125,26.228748828125,26.3328953125,26.292348828125C26.3412953125,26.362548828125,26.3185953125,26.432848828125,26.2712953125,26.483948828125L26.4561953125,26.674748828125L26.9506953125,26.101548828125L26.7650953125,25.974248828125C26.7158953125,26.023148828125,26.6478953125,26.046548828125,26.5800953125,26.037948828125C26.5177953125,26.037948828125,26.4561953125,25.974248828125,26.3328953125,25.846348828125L25.5917953125,25.145148828125L27.3827953125,25.591848828125L27.6293953125,25.336748828125L26.5807953125,24.316748828125C26.4568953125,24.189548828125,26.3951953125,24.125848828125,26.3951953125,24.062248828125C26.3335953125,23.997948828125,26.3951953125,23.934348828125,26.4568953125,23.870748828125L26.2718953125,23.743448828125L25.7774953125,24.253148828125L25.9630953125,24.444648828125C26.0246953125,24.380348828125,26.0862953125,24.316748828125,26.1479953125,24.316748828125C26.2216953125,24.391748828125,26.3048953125,24.456148828125,26.3951953125,24.508248828125L26.8273953125,24.954348828125L25.4712953125,24.571948828125L24.9151953125,25.208048828125L25.0986953125,25.336748828125ZM23.7398953125,26.609048828125C23.7354953125,26.307048828125,23.8736953125,26.021748828125,24.1103953125,25.844248828125C24.3374953125,25.661248828125,24.6313953125,25.591348828125,24.9130953125,25.653348828125C25.1603953125,25.653348828125,25.4068953125,25.844248828125,25.6541953125,26.099348828125C25.8397953125,26.353848828125,25.9630953125,26.609048828125,25.9013953125,26.927848828125C25.8903953125,27.208348828125,25.7533953125,27.467548828125,25.5308953125,27.629048828125C25.2978953125,27.803048828125,25.0156953125,27.892548828125,24.7281953125,27.883448828125C24.4308953125,27.808448828125,24.1686953125,27.628148828125,23.9871953125,27.373848828125C23.8232953125,27.155048828125,23.7361953125,26.885448828125,23.7398953125,26.609048828125ZM24.7281953125,26.040048828125C24.5425953125,25.976348828125,24.4192953125,25.976348828125,24.2953953125,26.103648828125C24.1720953125,26.167248828125,24.1103953125,26.294448828125,24.1720953125,26.486048828125C24.1720953125,26.676848828125,24.2953953125,26.868448828125,24.4192953125,27.059248828125C24.6041953125,27.250848828125,24.7897953125,27.441648828125,24.9130953125,27.505348828125C25.0986953125,27.569648828125,25.2219953125,27.505348828125,25.3452953125,27.441648828125C25.4692953125,27.314448828125,25.5308953125,27.187248828125,25.4692953125,26.995648828125C25.4692953125,26.868448828125,25.4068953125,26.676848828125,25.2219953125,26.422448828125C25.0363953125,26.230848828125,24.9130953125,26.103648828125,24.7281953125,26.040048828125ZM20.9612953125,28.655348828125L21.1461953125,28.655348828125C21.1461953125,28.464448828125,21.1461953125,28.337248828125,21.2078953125,28.272948828125C21.2078953125,28.145748828125,21.3317953125,28.082048828125,21.3934953125,28.018448828125L21.4550953125,28.018448828125L22.0105953125,29.037748828125C22.0728953125,29.229348828125,22.1344953125,29.292948828125,22.1344953125,29.356548828125C22.0728953125,29.420148828125,22.0728953125,29.484448828125,21.9488953125,29.548048828125L22.0728953125,29.738948828125L22.9371953125,29.291548828125L22.8138953125,29.100648828125L22.6282953125,29.100648828125C22.5523953125,29.027748828125,22.4896953125,28.941248828125,22.4433953125,28.845448828125L21.8872953125,27.761848828125C22.0105953125,27.698248828125,22.1344953125,27.634648828125,22.2577953125,27.698248828125C22.3194953125,27.698248828125,22.4433953125,27.761848828125,22.6282953125,27.889148828125L22.7515953125,27.698248828125L22.1961953125,27.252248828125L20.8372953125,28.017048828125L20.9612953125,28.655348828125ZM19.8496953125,28.337248828125L20.2818953125,28.209348828125L21.3317953125,29.481648828125Q21.5167953125,29.672448828125,21.7023953125,29.672448828125L21.7639953125,29.927648828125L20.8996953125,30.246448828125L20.8372953125,29.991248828125C20.8842953125,29.984648828125,20.9278953125,29.962348828125,20.9612953125,29.927648828125L20.9612953125,29.799748828125C20.9612953125,29.736148828125,20.9612953125,29.736148828125,20.8996953125,29.736148828125L20.7140953125,29.481648828125L20.1585953125,29.736148828125L20.2202953125,29.991248828125L20.2202953125,30.054848828125C20.2266953125,30.103148828125,20.2483953125,30.147848828125,20.2818953125,30.182148828125L20.4667953125,30.182148828125L20.5907953125,30.373648828125L19.8496953125,30.692448828125L19.7257953125,30.437248828125C19.8496953125,30.373648828125,19.9113953125,30.246448828125,19.9113953125,29.991248828125L19.8496953125,28.337248828125ZM20.1585953125,28.783248828125L20.1585953125,29.419448828125L20.5290953125,29.292248828125L20.1585953125,28.783248828125ZM17.1320953125,28.910548828125L18.2436953125,28.783248828125C18.4908953125,28.719648828125,18.7381953125,28.719648828125,18.8600953125,28.783248828125C18.9833953125,28.910548828125,19.1072953125,29.037748828125,19.1072953125,29.229248828125C19.1689953125,29.356548828125,19.1072953125,29.484448828125,19.0456953125,29.611648828125C18.9833953125,29.675348828125,18.9216953125,29.802548828125,18.7367953125,29.866848828125L19.2305953125,30.312848828125C19.2921953125,30.376448828125,19.3538953125,30.440148828125,19.4161953125,30.440148828125C19.4784953125,30.440148828125,19.5394953125,30.503748828125,19.6010953125,30.440148828125L19.6010953125,30.695248828125L19.0456953125,30.822548828125L18.2422953125,29.994048828125L18.0573953125,30.057748828125L18.1189953125,30.312848828125C18.1214953125,30.431048828125,18.1651953125,30.544248828125,18.2422953125,30.631648828125Q18.3045953125,30.695248828125,18.4278953125,30.631648828125L18.4278953125,30.949748828125L17.5012953125,31.077648828125L17.4395953125,30.822548828125C17.5635953125,30.822548828125,17.6251953125,30.758948828125,17.6251953125,30.695248828125C17.6868953125,30.695248828125,17.6868953125,30.567348828125,17.6251953125,30.376548828125L17.5012953125,29.548048828125C17.4990953125,29.429848828125,17.4551953125,29.316548828125,17.3779953125,29.229248828125Q17.3162953125,29.165648828125,17.1930953125,29.229248828125L17.1320953125,28.910548828125ZM18.0587953125,29.738948828125L18.1203953125,29.738948828125C18.3059953125,29.675348828125,18.4292953125,29.675348828125,18.5525953125,29.611648828125C18.6022953125,29.513748828125,18.6236953125,29.403048828125,18.6141953125,29.292948828125C18.6141953125,29.229248828125,18.5525953125,29.102048828125,18.4908953125,29.102048828125C18.3675953125,29.037748828125,18.3059953125,29.037748828125,18.1203953125,29.037748828125C18.0734953125,29.044548828125,18.0301953125,29.067148828125,17.9970953125,29.102048828125C17.9354953125,29.165648828125,17.9354953125,29.229248828125,17.9970953125,29.356548828125L18.0587953125,29.738948828125ZM15.4033953125,29.291448828125C15.5980953125,29.085448828125,15.8656953125,28.970348828125,16.1444953125,28.972748828125C16.4533953125,28.972748828125,16.6998953125,29.036348828125,16.885495312499998,29.227848828125C17.0862953125,29.453748828125,17.1965953125,29.749748828125,17.1943953125,30.056348828125C17.1943953125,30.375048828125,17.1320953125,30.692448828125,16.9471953125,30.884748828125C16.7520953125,31.089548828125,16.4843953125,31.203448828125,16.2060953125,31.199948828125C15.8971953125,31.199948828125,15.6506953125,31.136348828125,15.4650953125,30.944848828125C15.2177953125,30.753948828125,15.1561953125,30.435148828125,15.1561953125,30.116348828125C15.1043953125,29.816348828125,15.1964953125,29.508948828125,15.4033953125,29.291448828125ZM16.514995312499998,29.418748828125C16.391695312499998,29.291448828125,16.2677953125,29.227848828125,16.1444953125,29.227848828125C15.9588953125,29.227848828125,15.8355953125,29.291448828125,15.7739953125,29.483048828125C15.6911953125,29.684148828125,15.6492953125,29.900648828125,15.6506953125,30.119248828125C15.6459953125,30.346048828125,15.7106953125,30.568648828125,15.8355953125,30.755348828125C15.8971953125,30.882548828125,16.021195312499998,30.946248828125,16.2060953125,30.946248828125C16.3293953125,30.946248828125,16.4533953125,30.882548828125,16.5766953125,30.691748828125C16.6647953125,30.492548828125,16.6864953125,30.268848828125,16.6382953125,30.055548828125C16.6329953125,29.837748828125,16.5912953125,29.622548828125,16.514995312499998,29.419448828125L16.514995312499998,29.418748828125ZM13.4274953125,28.782548828125L14.4767953125,28.909848828125C14.7239953125,28.909848828125,14.8472953125,29.037048828125,14.9712953125,29.164948828125C15.0951953125,29.292948828125,15.1561953125,29.419448828125,15.0944953125,29.674648828125C15.0944953125,29.866148828125,15.0328953125,29.993348828125,14.8472953125,30.057048828125C14.7239953125,30.184248828125,14.5390953125,30.184248828125,14.3534953125,30.184248828125L13.9829953125,30.120648828125L13.9829953125,30.694548828125C13.9829953125,30.758148828125,14.0445953125,30.758148828125,14.1685953125,30.758148828125L14.1062953125,31.013348828125L13.1802953125,30.949048828125L13.2418953125,30.630948828125C13.3035953125,30.694548828125,13.3651953125,30.630948828125,13.4274953125,30.630948828125C13.4274953125,30.566648828125,13.4891953125,30.439448828125,13.4891953125,30.312148828125L13.6123953125,29.483748828125L13.6123953125,29.101348828125C13.5507953125,29.101348828125,13.4891953125,29.037048828125,13.4274953125,29.037048828125L13.4274953125,28.782548828125ZM14.0438953125,29.866148828125L14.1055953125,29.866148828125C14.2911953125,29.929748828125,14.4144953125,29.866148828125,14.4760953125,29.801848828125C14.5383953125,29.801848828125,14.6000953125,29.674648828125,14.6000953125,29.547348828125C14.6000953125,29.420148828125,14.5849953125,29.340948828125,14.5383953125,29.292248828125C14.4769953125,29.215848828125,14.3871953125,29.169648828125,14.2911953125,29.164948828125L14.1705953125,29.164948828125C14.1082953125,29.228548828125,14.1082953125,29.292248828125,14.1082953125,29.419448828125L14.0438953125,29.866148828125ZM11.4502953125,28.145048828125L12.5001953125,28.463748828125C12.7473953125,28.527348828125,12.9323953125,28.654648828125,12.9939953125,28.782548828125C13.1179953125,28.909848828125,13.1179953125,29.037048828125,13.1179953125,29.228548828125C13.0562953125,29.419448828125,12.9939953125,29.483748828125,12.8706953125,29.547348828125C12.7677953125,29.637648828125,12.6349953125,29.683248828125,12.5001953125,29.674648828125L12.7473953125,30.310748828125C12.7390953125,30.380748828125,12.7616953125,30.450848828125,12.8090953125,30.501648828125C12.8706953125,30.501648828125,12.9323953125,30.565248828125,12.9939953125,30.565248828125L12.8706953125,30.820448828125L12.3152953125,30.629548828125L12.0063953125,29.609548828125L11.8207953125,29.545948828125L11.6974953125,29.800448828125C11.6974953125,29.928348828125,11.6358953125,30.055548828125,11.6974953125,30.119248828125C11.6974953125,30.182848828125,11.7590953125,30.182848828125,11.8207953125,30.247148828125L11.7590953125,30.501648828125L10.8331653125,30.182848828125L10.8948053125,29.928348828125C11.0180853125,29.991948828125,11.0797253125,29.991948828125,11.1420453125,29.928348828125L11.2652953125,29.673148828125L11.5125953125,28.844748828125C11.5125953125,28.653248828125,11.5741953125,28.589648828125,11.5125953125,28.525948828125C11.5062953125,28.458348828125,11.4541953125,28.404948828125,11.3885953125,28.398748828125L11.4502953125,28.145048828125ZM11.8823953125,29.228548828125L11.9446953125,29.292248828125L12.0063953125,29.292248828125C12.1912953125,29.355848828125,12.3152953125,29.355848828125,12.3768953125,29.292248828125C12.5001953125,29.292248828125,12.5617953125,29.228548828125,12.6234953125,29.101348828125C12.6234953125,29.037048828125,12.6090953125,28.894948828125,12.5617953125,28.846148828125C12.4907953125,28.768348828125,12.4073953125,28.703548828125,12.3152953125,28.654648828125L12.1296953125,28.654648828125C12.0679953125,28.718948828125,12.0063953125,28.782548828125,12.0063953125,28.846148828125L11.8823953125,29.228548828125ZM9.7215853125,27.635348828125C9.9681453125,27.507448828125,10.2770353125,27.571748828125,10.5242753125,27.698948828125C10.8331653125,27.826248828125,11.0180853125,28.017748828125,11.0797253125,28.335148828125C11.1579353125,28.616548828125,11.1128953125,28.919248828125,10.9564453125,29.163548828125C10.8331653125,29.482348828125,10.5859153125,29.673148828125,10.3400453125,29.799748828125C10.0731953125,29.872748828125,9.7902753125,29.850248828125,9.5373553125,29.736148828125C9.2907953125,29.545248828125,9.1051853125,29.353648828125,8.9819053125,29.099948828125C8.9202653125,28.781148828125,8.9819053125,28.525948828125,9.1051853125,28.207248828125C9.2907953125,27.888448828125,9.4757153125,27.697548828125,9.7215853125,27.633948828125L9.7215853125,27.635348828125ZM10.6475553125,28.271548828125C10.6475553125,28.144248828125,10.5859253125,28.017048828125,10.4009953125,27.953448828125C10.2770353125,27.825448828125,10.1537553125,27.889148828125,9.9681453125,27.953448828125C9.8147153125,28.097748828125,9.6890153125,28.270648828125,9.5976253125,28.463048828125C9.4887253125,28.702648828125,9.4127053125,28.909048828125,9.4127053125,29.099248828125C9.4743453125,29.290048828125,9.5359853125,29.353648828125,9.6599453125,29.481648828125C9.8027553125,29.556248828125,9.9755553125,29.530548828125,10.0921153125,29.417348828125C10.2761553125,29.304748828125,10.4094153125,29.121448828125,10.4626453125,28.907648828125C10.5859253125,28.652548828125,10.6475553125,28.461648828125,10.6475553125,28.271548828125ZM9.1024453125,27.120748828125C9.1024453125,26.993548828125,9.0408053125,26.929948828125,9.0408053125,26.866348828125C8.979165312500001,26.802748828125,8.9175253125,26.738348828125,8.8558853125,26.738348828125Q8.4846753125,26.455648828125,8.1148353125,26.547548828125C7.8059553125,26.547548828125,7.6203453125,26.738348828125,7.3737853125,26.993548828125C7.2085853125,27.235748828125,7.1220253125,27.525748828125,7.1265453125,27.821948828125C7.1265453125,28.077148828125,7.3114653125,28.332348828125,7.4970653125,28.523148828125C7.6594653125,28.642948828125,7.8529653125,28.709648828125,8.052515312499999,28.714748828125C8.2381153125,28.778348828125,8.4853653125,28.714748828125,8.668915312500001,28.586748828125L8.5456353125,28.332348828125C8.4143953125,28.411948828125,8.2656553125,28.455748828125,8.1134653125,28.459548828125C7.9895053125,28.459548828125,7.8662253125,28.395948828125,7.7429453125,28.332348828125C7.6205653125,28.218748828125,7.5527053125,28.055348828125,7.5573353125,27.885548828125C7.5573353125,27.694748828125,7.6806153125,27.503148828125,7.8045853125,27.312348828125C7.9895053125,27.120748828125,8.1134653125,26.993548828125,8.298385312499999,26.929948828125C8.4833053125,26.866348828125,8.6072753125,26.866348828125,8.7305553125,26.993548828125C8.8459753125,27.054948828125,8.917845312499999,27.178348828125,8.916155312499999,27.312348828125C8.9261353125,27.484648828125,8.9052453125,27.657448828125,8.8545153125,27.821948828125L9.1010753125,27.885548828125L9.3483253125,27.120748828125L9.2243553125,26.993548828125L9.1010753125,27.120748828125L9.1024453125,27.120748828125ZM6.0786653125,24.125848828125L6.6950653125,24.890648828125C6.9019553125,25.112648828125,7.0133253125,25.411248828125,7.0039453125,25.719148828125C6.9440453125,25.998048828125,6.7907853125,26.246348828125,6.5710953125,26.420348828125C6.2628953125,26.674748828125,6.0156553125,26.738348828125,5.7684053125,26.738348828125C5.4712853125,26.663048828125,5.2091053125,26.482748828125,5.0273553125,26.228748828125L4.4719153125,25.463948828125L4.6568353125,25.336748828125C4.7063053125,25.385648828125,4.7744453125,25.408948828125,4.8424353125,25.400348828125L5.0889953125,25.273048828125L5.7053953125,24.699148828125C5.8910053125,24.635548828125,5.9526453125,24.508248828125,5.9526453125,24.444648828125C5.9482453125,24.395548828125,5.9262653125,24.349948828125,5.8910053125,24.316748828125L6.0786653125,24.125848828125ZM5.3355553125,25.719148828125Q5.1506353125,25.814548828125,5.1506353125,25.909948828125C5.1550353125,25.959048828125,5.1770153125,26.004648828125,5.2122753125,26.037948828125C5.3355553125,26.165148828125,5.5211653125,26.292348828125,5.6444453125,26.292348828125C5.8401453125,26.234548828125,6.0270853125,26.148948828125,6.1998853125,26.037948828125C6.4471353125,25.846348828125,6.5704153125,25.655448828125,6.5704153125,25.527548828125C6.6272953125,25.347348828125,6.5794153125,25.149448828125,6.4471353125,25.017948828125C6.4471353125,24.954348828125,6.3854953125,24.954348828125,6.3238553125,24.954348828125C6.2584053125,24.962148828125,6.1952253125,24.983748828125,6.1382453125,25.017948828125L5.3355553125,25.719148828125ZM5.2122753125,23.361048828125C5.2596253125,23.411848828125,5.2822753125,23.481948828125,5.2739153125,23.551948828125L5.0266753125,23.807048828125L4.347265312499999,24.316748828125C4.2239853125,24.380348828125,4.100705312500001,24.444648828125,4.0390653125,24.444648828125L3.9150953125,24.316748828125L3.6685353125,24.508248828125L4.2239853125,25.273048828125L4.4712253125,25.145148828125C4.4382353125,25.086548828125,4.4172553125,25.021648828125,4.4095853125,24.954348828125C4.4095853125,24.890648828125,4.5328653125,24.762748828125,4.6561453125,24.699148828125L5.3355553125,24.189548828125C5.4588353125,24.125848828125,5.5211653125,24.062248828125,5.5828053125,24.062248828125C5.6444453125,24.062248828125,5.7060853125,24.125848828125,5.7677253125,24.189548828125L5.9533253125,23.997948828125L5.3971953125,23.233148828125L5.2122753125,23.361048828125ZM4.4116453125,21.321148828125Q4.4287653124999995,21.333148828125,4.9054453124999995,22.341148828125C5.0170853125,22.577848828125,5.0903653124999995,22.787148828125,5.0903653124999995,22.915048828125C5.0903653124999995,23.105948828125,4.9670853125,23.233148828125,4.7821653125,23.297448828125C4.6582053125,23.361048828125,4.5349253125,23.424648828125,4.4116453125,23.361048828125C4.287675312499999,23.361048828125,4.2260353125000005,23.297448828125,4.102755312499999,23.169548828125L3.7938753125,23.805648828125C3.7938753125,23.869348828125,3.7322353125,23.932948828125,3.7322353125,23.996548828125C3.7237653125,24.066748828125,3.7464053125,24.137048828125,3.7938753125,24.188048828125L3.5466253125,24.315348828125L3.3000653125,23.742048828125L3.7938753125,22.788548828125L3.6705953125,22.597648828125L3.4863553125,22.723548828125C3.3681753125,22.756548828125,3.2612253125,22.822848828125,3.1774753125,22.915048828125C3.1689853125000003,22.985148828125,3.1919353125,23.055448828125,3.2397953125,23.105948828125L2.9925553125,23.233148828125L2.5603853125000002,22.404748828125L2.7453053125,22.277448828125C2.8069453125,22.341148828125,2.8692753125,22.404748828125,2.9309153125,22.404748828125C2.9925553125,22.404748828125,3.0541953125,22.341148828125,3.2397953125,22.277448828125L3.9185253125,21.895048828125C4.1041253125,21.767848828125,4.1657653125,21.703548828125,4.2274053125,21.703548828125C4.230115312500001,21.614448828125,4.2087753125,21.526348828125,4.1657653125,21.449048828125L4.4116453125,21.321148828125ZM3.9171553125,22.468348828125L3.9794753125,22.468348828125L3.9794753125,22.532648828125C4.102755312499999,22.723548828125,4.1643953125,22.787148828125,4.287675312499999,22.850748828125C4.3583353124999995,22.915048828125,4.4642653125,22.915048828125,4.5349253125,22.850748828125C4.6582053125,22.787148828125,4.6582053125,22.723548828125,4.7198453125,22.659848828125C4.7293753125,22.549748828125,4.7079753125,22.439048828125,4.6582053125,22.341148828125C4.5965653125,22.277448828125,4.5349253125,22.213848828125,4.4732853125,22.213848828125C4.4078353125,22.221648828125,4.3446553125000005,22.243348828125,4.287675312499999,22.277448828125L3.9171553125,22.468348828125ZM4.102755312499999,20.809348828125L4.102755312499999,20.554948828125C4.102755312499999,20.490548828125,4.041115312500001,20.426948828125,4.041115312500001,20.363348828125C3.9171553125,20.044548828125,3.7322353125,19.917348828125,3.4849853125,19.790148828125C3.2377453125,19.662848828125,2.9911853125,19.725748828125,2.6822953125,19.790148828125C2.3734153124999997,19.917348828125,2.1268503125000002,20.108148828125,2.0028853125,20.363348828125C1.8586043125,20.567448828125,1.8349123125,20.836948828125,1.9412453125,21.064548828125C1.9430933124999998,21.164248828125,1.9883843125,21.257648828125,2.0645253125,21.319048828125C2.1268503125000002,21.383348828125,2.2501353125000003,21.446948828125,2.3117753125,21.510548828125L2.1884903125,21.637748828125L2.3117753125,21.956548828125L2.8055753125000003,21.701448828125L3.0528253125,21.701448828125C3.1144653125,21.701448828125,3.1144653125,21.765748828125,3.1761053125,21.829348828125L3.4233453125,21.701448828125L3.1144653125,20.872948828125L2.8699553125,21.003048828125C2.9314453125,21.050848828125,2.9314453125,21.146148828125,2.8699553125,21.193848828125C2.8364353125,21.228448828125,2.7929153125,21.250748828125,2.7459953125,21.257548828125C2.6522753125,21.321248828125,2.5308153124999997,21.321248828125,2.4371053125,21.257548828125C2.3754653125000003,21.257548828125,2.3138253124999997,21.130248828125,2.2521853125,21.066648828125C2.1905453125,20.875148828125,2.2521853125,20.747848828125,2.3138253124999997,20.620648828125C2.4371053125,20.492748828125,2.6227053125,20.429048828125,2.8699553125,20.301848828125C3.1165153125,20.238248828125,3.3021253125,20.174648828125,3.4863553125,20.238248828125C3.6160253125,20.236348828125,3.7355953125,20.310248828125,3.7952453125,20.429048828125L3.7952453125,20.809348828125C3.7116553125,20.952848828125,3.6075153125,21.082548828125,3.4863553125,21.193848828125L3.6719653125,21.385448828125L4.2274053125,20.939448828125L4.1643953125,20.809348828125L4.102755312499999,20.809348828125ZM22.6899953125,27.312348828125C22.7393953125,27.263448828125,22.8075953125,27.240048828125,22.8755953125,27.248748828125L23.1220953125,27.503148828125L23.5549953125,28.204348828125C23.6165953125,28.395948828125,23.6782953125,28.459548828125,23.6782953125,28.523148828125C23.6782953125,28.586748828125,23.6165953125,28.650348828125,23.5549953125,28.714748828125L23.6782953125,28.905548828125L24.4809953125,28.395948828125L24.3576953125,28.140748828125C24.3081953125,28.189548828125,24.2399953125,28.212948828125,24.1720953125,28.204348828125C24.1103953125,28.204348828125,24.0487953125,28.077148828125,23.9871953125,27.949948828125L23.5535953125,27.248748828125C23.4296953125,27.120748828125,23.3679953125,26.993548828125,23.3679953125,26.929948828125C23.4296953125,26.866348828125,23.4296953125,26.802748828125,23.4912953125,26.802748828125L23.3679953125,26.547548828125L22.5652953125,27.057148828125L22.6899953125,27.312348828125ZM26.7725953125,16.159048828125C26.7725953125,21.421548828125,23.1501953125,25.803248828125,18.3641953125,26.921448828125C16.7457953125,26.336848828125,15.3218953125,24.989648828125,14.2698953125,23.144048828125Q14.7705953125,23.169548828125,15.2821953125,23.169548828125C20.0982953125,23.169548828125,24.1740953125,21.512648828125,25.7178953125,19.218248828125C23.5569953125,21.003048828125,20.0982953125,22.213848828125,16.2081953125,22.213848828125C15.3742953125,22.214148828125,14.5413953125,22.158648828125,13.7144953125,22.047748828125C13.4631953125,21.485248828125,13.2481953125,20.906248828125,13.0706953125,20.314548828125C14.2516953125,20.482948828125,15.4449953125,20.542548828125,16.6361953125,20.492748828125C21.3995953125,20.292648828125,25.3575953125,18.476748828125,26.7725953125,16.094748828125L26.7725953125,16.159048828125ZM16.362295312500002,27.189348828125Q16.161595312499998,27.197848828125,15.9595953125,27.197848828125C11.5977953125,27.217648828125,7.6527553125,24.527148828125,5.9601753125,20.378248828125C6.9279253125,21.198848828125,8.253185312500001,21.888748828125,9.8181553125,22.377148828125C10.5434553125,24.064348828125,11.5365953125,25.372748828125,12.6843953125,26.101548828125C11.8419953125,25.176248828125,11.1317753125,23.980948828125,10.6003053125,22.599848828125C11.2761953125,22.772148828125,11.9609953125,22.904548828125,12.6514953125,22.996348828125C13.5487953125,25.094248828125,14.8575953125,26.617548828125,16.3594953125,27.189348828125L16.362295312500002,27.189348828125ZM5.2396753125,17.603148828125C5.1785553125,17.124448828125,5.1478953125,16.642048828125,5.1478953125,16.159048828125C5.1478953125,11.534148828125,7.9141653125,7.588578828125,11.8501953125,5.942338828125C9.8729453125,7.814758828125,8.5490553125,11.490348828125,8.5490553125,15.713048828125C8.5483553125,16.624048828124998,8.6126853125,17.533848828125,8.741515312499999,18.435048828125C7.8102553125,18.058348828125,6.9343253125,17.549748828125,6.1389353125,16.923848828125C6.7471153125,17.760748828125,7.6765053125,18.487348828125,8.8421853125,19.063448828125C8.947915312500001,19.647948828125,9.0851053125,20.225848828125,9.2531253125,20.794548828125C7.4819953125,19.987348828125,6.0820853125,18.881848828125,5.2410453125,17.603148828125L5.2396753125,17.603148828125ZM15.5602953125,5.128758828125C15.6930953125,5.123808828125,15.8252953125,5.120278828125,15.9588953125,5.120278828125C21.1927953125,5.120278828125,25.6157953125,8.966208828125,26.5746953125,14.078848828125C25.1363953125,17.047548828125,20.8489953125,19.369548828125,15.7102953125,19.537048828125C14.7507953125,19.585448828125,13.7891953125,19.558048828125,12.8336953125,19.455048828125C12.5245953125,18.146748828125,12.3697953125,16.804548828125,12.3727953125,15.457848828125C12.3727953125,11.570248828125,13.6055953125,8.064988828125,15.5232953125,5.962128828125C13.1151953125,7.491738828125,11.3858953125,11.570248828125,11.3858953125,16.352748828125C11.3849953125,17.331848828125,11.4595953125,18.309348828125,11.6090953125,19.276248828125C10.9509653125,19.155548828125,10.3011953125,18.990248828125,9.6640553125,18.781448828125C9.5769353125,18.062448828125,9.5332453125,17.336548828125,9.5332453125,16.607848828125C9.5332453125,11.023848828125,12.1090953125,6.347358828125,15.5567953125,5.131588828125L15.5602953125,5.128758828125ZM12.1994953125,21.775648828125C12.0210953125,21.217048828125,11.8731953125,20.648548828125,11.7563953125,20.072848828125C11.0795453125,19.920048828125,10.4141853125,19.717348828125,9.7654153125,19.466348828125C9.8573653125,20.038148828125,9.9789953125,20.604448828125,10.1297853125,21.162748828125C10.8050253125,21.415048828125,11.4957953125,21.620748828125,12.1974953125,21.778448828125L12.1994953125,21.775648828125Z" fill="#015C5F" fill-opacity="1"/></g></g></g></svg>