<svg xmlns="http://www.w3.org/2000/svg" xmlns:xlink="http://www.w3.org/1999/xlink" fill="none" version="1.1" width="36" height="36" viewBox="0 0 36 36"><defs><clipPath id="master_svg0_34_51786"><rect x="0" y="0" width="36" height="36" rx="0"/></clipPath></defs><g clip-path="url(#master_svg0_34_51786)"><g><rect x="0" y="0" width="36" height="36" rx="0" fill="#FFFFFF" fill-opacity="0.009999999776482582"/></g><g><path d="M16.999969482421875,3L16.999969482421875,6Q16.999969482421875,6.09849,17.019184482421874,6.19509Q17.038399482421873,6.29169,17.076090482421876,6.382680000000001Q17.113781482421874,6.47368,17.168499482421876,6.5555699999999995Q17.223218482421874,6.63746,17.292862482421874,6.70711Q17.362506482421875,6.77675,17.444399482421876,6.8314699999999995Q17.526291482421875,6.88619,17.617286482421875,6.9238800000000005Q17.708280482421873,6.96157,17.804879482421875,6.98078Q17.901478082421875,7,17.999969482421875,7Q18.098460882421875,7,18.195059482421875,6.98078Q18.291658482421877,6.96157,18.382652482421875,6.9238800000000005Q18.473647482421875,6.88619,18.555539482421874,6.8314699999999995Q18.637432482421875,6.77675,18.707076482421876,6.70711Q18.776720482421876,6.63746,18.831439482421874,6.5555699999999995Q18.886157482421876,6.47368,18.923848482421874,6.382680000000001Q18.961539482421877,6.29169,18.980754482421876,6.19509Q18.999969482421875,6.09849,18.999969482421875,6L18.999969482421875,3Q18.999969482421875,2.9015086,18.980754482421876,2.80491Q18.961539482421877,2.708311,18.923848482421874,2.617317Q18.886157482421876,2.526322,18.831439482421874,2.44443Q18.776720482421876,2.362537,18.707076482421876,2.292893Q18.637432482421875,2.223249,18.555539482421874,2.16853Q18.473647482421875,2.1138120000000002,18.382652482421875,2.076121Q18.291658482421877,2.03843,18.195059482421875,2.019215Q18.098460882421875,2,17.999969482421875,2Q17.901478082421875,2,17.804879482421875,2.019215Q17.708280482421873,2.03843,17.617286482421875,2.076121Q17.526291482421875,2.1138120000000002,17.444399482421876,2.16853Q17.362506482421875,2.223249,17.292862482421874,2.292893Q17.223218482421874,2.362537,17.168499482421876,2.44443Q17.113781482421874,2.526322,17.076090482421876,2.617317Q17.038399482421873,2.708311,17.019184482421874,2.80491Q16.999969482421875,2.9015086,16.999969482421875,3Z" fill-rule="evenodd" fill="#FFFFFF" fill-opacity="1"/></g><g><path d="M24.633946482421877,4.509761625L23.133946482421877,7.107805625Q22.999969482421875,7.339855625,22.999969482421875,7.607815625000001Q22.999969482421875,7.616815625,23.000131482421875,7.6258156249999995Q23.002336482421875,7.748295625,23.034042482421874,7.866625625Q23.085523482421873,8.058755625,23.206613482421876,8.216565625Q23.327702482421873,8.374375624999999,23.499965482421874,8.473835625Q23.732017482421874,8.607815625,23.999969482421875,8.607815625Q24.008971312421874,8.607815625,24.017972182421875,8.607645625Q24.140454482421877,8.605445625,24.258783482421876,8.573735625Q24.450918482421876,8.522255625,24.608726482421876,8.401165625Q24.766535482421876,8.280075625,24.865992482421873,8.107815625L26.365989482421874,5.509769625Q26.499969482421875,5.277717625,26.499969482421875,5.009765970361Q26.499969482421875,5.000763515,26.499809482421874,4.991762825Q26.497599482421876,4.869279625,26.465899482421875,4.750951625Q26.414419482421874,4.558816625,26.293329482421875,4.401008625Q26.172239482421876,4.243199625,25.999969482421875,4.143742625Q25.767919482421874,4.009765625,25.499969482421875,4.009765625Q25.490969482421875,4.009765625,25.481969482421874,4.0099276249999996Q25.359479482421875,4.012132625,25.241159482421875,4.043838625Q25.049019482421876,4.095319625,24.891212482421874,4.216408625Q24.733403482421874,4.337498625,24.633946482421877,4.509761625Z" fill-rule="evenodd" fill="#FFFFFF" fill-opacity="1"/></g><g><path d="M27.892557501953124,11.133863L27.892364501953125,11.133975Q27.778349501953127,11.199801,27.685257501953124,11.292893Q27.592165501953126,11.385986,27.526338501953123,11.5Q27.460512501953126,11.61401,27.426438501953125,11.74118Q27.392364501953125,11.86835,27.392364501953125,12Q27.392364501953125,12.0232,27.393440501953126,12.04638Q27.404722501953124,12.28935,27.526339501953125,12.5Q27.625795501953125,12.67226,27.783603501953124,12.79335Q27.941411501953127,12.914439999999999,28.133545501953126,12.96593Q28.260712501953126,13,28.392364501953125,13Q28.408127901953126,13,28.423884901953127,12.9995Q28.674884501953127,12.99159,28.892364501953125,12.86603L28.892703501953125,12.865829999999999L31.490444501953125,11.366025Q31.662704501953126,11.266569,31.783794501953125,11.108761Q31.904884501953124,10.950953,31.956364501953125,10.758819Q31.990434501953125,10.631653,31.990434501953125,10.50000147749Q31.990434501953125,10.4842359,31.989944501953126,10.4684796Q31.982024501953124,10.21748,31.856464501953127,10Q31.790634501953125,9.885985,31.697544501953125,9.792893Q31.604454501953125,9.699801,31.490434501953125,9.633975Q31.376424501953124,9.568148,31.249254501953125,9.534074Q31.122094501953125,9.5,30.990434501953125,9.5Q30.967234501953126,9.5,30.944054501953126,9.501076Q30.701084501953126,9.512358,30.490434501953125,9.633975L27.892557501953124,11.133863Z" fill-rule="evenodd" fill="#FFFFFF" fill-opacity="1"/></g><g><path d="M32.999969482421875,17L29.999969482421875,17Q29.901478082421875,17,29.804879482421875,17.019215Q29.708280482421873,17.038429999999998,29.617286482421875,17.076121Q29.526291482421875,17.113812,29.444399482421876,17.16853Q29.362506482421875,17.223249,29.292862482421874,17.292893Q29.223218482421874,17.362537,29.168499482421876,17.44443Q29.113781482421874,17.526322,29.076090482421876,17.617317Q29.038399482421873,17.708311,29.019184482421874,17.80491Q28.999969482421875,17.9015086,28.999969482421875,18Q28.999969482421875,18.0984914,29.019184482421874,18.19509Q29.038399482421873,18.291689,29.076090482421876,18.382683Q29.113781482421874,18.473678,29.168499482421876,18.55557Q29.223218482421874,18.637463,29.292862482421874,18.707107Q29.362506482421875,18.776751,29.444399482421876,18.83147Q29.526291482421875,18.886188,29.617286482421875,18.923879Q29.708280482421873,18.961570000000002,29.804879482421875,18.980785Q29.901478082421875,19,29.999969482421875,19L32.999969482421875,19Q33.09845948242187,19,33.195059482421875,18.980785Q33.29165948242188,18.961570000000002,33.382649482421876,18.923879Q33.47364948242188,18.886188,33.55553948242188,18.83147Q33.63742948242187,18.776751,33.707079482421875,18.707107Q33.776719482421875,18.637463,33.83143948242188,18.55557Q33.886159482421874,18.473678,33.92384948242187,18.382683Q33.96153948242188,18.291689,33.98074948242188,18.19509Q33.999969482421875,18.0984914,33.999969482421875,18Q33.999969482421875,17.9015086,33.98074948242188,17.80491Q33.96153948242188,17.708311,33.92384948242187,17.617317Q33.886159482421874,17.526322,33.83143948242188,17.44443Q33.776719482421875,17.362537,33.707079482421875,17.292893Q33.63742948242187,17.223249,33.55553948242188,17.16853Q33.47364948242188,17.113812,33.382649482421876,17.076121Q33.29165948242188,17.038429999999998,33.195059482421875,17.019215Q33.09845948242187,17,32.999969482421875,17Z" fill-rule="evenodd" fill="#FFFFFF" fill-opacity="1"/></g><g><path d="M28.892558501953125,23.134087L28.892364501953125,23.133975Q28.660313501953127,23,28.392364501953125,23Q28.364643401953124,23,28.336964901953124,23.001536Q28.212546501953124,23.008439,28.093626501953125,23.045665Q27.974706501953126,23.082891,27.868558501953125,23.148162Q27.762411501953125,23.213434,27.675527501953127,23.302759000000002Q27.588644501953127,23.392084,27.526339501953125,23.5Q27.392364501953125,23.732051,27.392364501953125,24Q27.392364501953125,24.0277211,27.393900501953127,24.0553996Q27.400803501953124,24.179818,27.438029501953125,24.298738Q27.475255501953125,24.417658,27.540526501953124,24.523806Q27.605798501953124,24.629953,27.695123501953127,24.716836999999998Q27.784448501953126,24.80372,27.892364501953125,24.866025L27.892557501953124,24.866137L30.490174501953124,26.36587L30.490434501953125,26.36603Q30.722494501953125,26.5,30.990434501953125,26.5Q31.018164501953123,26.5,31.045834501953124,26.49846Q31.170254501953124,26.49156,31.289174501953124,26.454340000000002Q31.408094501953126,26.41711,31.514244501953126,26.35184Q31.620394501953125,26.28657,31.707274501953126,26.19724Q31.794164501953126,26.10792,31.856464501953127,26Q31.990434501953125,25.76795,31.990434501953125,25.5Q31.990434501953125,25.47228,31.988904501953126,25.4446Q31.982004501953124,25.32018,31.944774501953127,25.20126Q31.907544501953126,25.08234,31.842274501953124,24.976194Q31.777004501953126,24.870047,31.687684501953125,24.783163000000002Q31.598354501953125,24.69628,31.490444501953125,24.633975L28.892558501953125,23.134087Z" fill-rule="evenodd" fill="#FFFFFF" fill-opacity="1"/></g><g><path d="M24.866106482421873,27.892526984375L24.865994482421875,27.892333984375Q24.800168482421874,27.778318984375,24.707076482421876,27.685226984375Q24.613983482421876,27.592134984375,24.499969482421875,27.526308984375Q24.385955482421874,27.460481984375,24.258788482421874,27.426407984375Q24.131622482421875,27.392333984375,23.999969651795876,27.392333984375Q23.976766282421874,27.392333984375,23.953588082421874,27.393409984375Q23.710615482421876,27.404691984375,23.499969482421875,27.526308984375Q23.385954482421877,27.592134984375,23.292862482421874,27.685226984375Q23.199770482421876,27.778319984375,23.133943482421873,27.892333984375Q23.068117482421876,28.006347984375,23.034043482421875,28.133514984375Q22.999969482421875,28.260681984375,22.999969482421875,28.392333984375Q22.999969482421875,28.415537084375,23.001045482421876,28.438715384375Q23.012327482421874,28.681687984375,23.133944482421875,28.892333984375L23.134056482421876,28.892527984375L24.633944482421875,31.490413984375Q24.699770482421876,31.604423984375,24.792862482421874,31.697513984375Q24.885955482421874,31.790603984375,24.999969482421875,31.856433984375002Q25.113979482421875,31.922263984375,25.241149482421875,31.956333984375Q25.368319482421875,31.990403984375,25.499969482421875,31.990403984375Q25.523169482421874,31.990403984375,25.546349482421874,31.989333984375Q25.789319482421874,31.978053984375,25.999969482421875,31.856433984375002Q26.113979482421875,31.790603984375,26.207079482421875,31.697513984375Q26.300169482421875,31.604423984375,26.365999482421874,31.490403984375Q26.431819482421876,31.376393984375,26.465899482421875,31.249223984375Q26.499969482421875,31.122063984375,26.499969482421875,30.990403984375Q26.499969482421875,30.967203984375,26.498889482421873,30.944023984375Q26.487609482421874,30.701053984375,26.365999482421874,30.490403984375L26.365839482421876,30.490143984375L24.866106482421873,27.892526984375Z" fill-rule="evenodd" fill="#FFFFFF" fill-opacity="1"/></g><g><path d="M18.999969482421875,33L18.999969482421875,30Q18.999969482421875,29.9015086,18.980754482421876,29.80491Q18.961539482421877,29.708311,18.923848482421874,29.617317Q18.886157482421876,29.526322,18.831439482421874,29.44443Q18.776720482421876,29.362537,18.707076482421876,29.292893Q18.637432482421875,29.223249,18.555539482421874,29.16853Q18.473647482421875,29.113812,18.382652482421875,29.076121Q18.291658482421877,29.038429999999998,18.195059482421875,29.019215Q18.098460882421875,29,17.999969482421875,29Q17.901478082421875,29,17.804879482421875,29.019215Q17.708280482421873,29.038429999999998,17.617286482421875,29.076121Q17.526291482421875,29.113812,17.444399482421876,29.16853Q17.362506482421875,29.223249,17.292862482421874,29.292893Q17.223218482421874,29.362537,17.168499482421876,29.44443Q17.113781482421874,29.526322,17.076090482421876,29.617317Q17.038399482421873,29.708311,17.019184482421874,29.80491Q16.999969482421875,29.9015086,16.999969482421875,30L16.999969482421875,33Q16.999969482421875,33.09849,17.019184482421874,33.19509Q17.038399482421873,33.29169,17.076090482421876,33.38268Q17.113781482421874,33.47368,17.168499482421876,33.55557Q17.223218482421874,33.63746,17.292862482421874,33.70711Q17.362506482421875,33.77675,17.444399482421876,33.83147Q17.526291482421875,33.88619,17.617286482421875,33.92388Q17.708280482421873,33.96157,17.804879482421875,33.98078Q17.901478082421875,34,17.999969482421875,34Q18.098460882421875,34,18.195059482421875,33.98078Q18.291658482421877,33.96157,18.382652482421875,33.92388Q18.473647482421875,33.88619,18.555539482421874,33.83147Q18.637432482421875,33.77675,18.707076482421876,33.70711Q18.776720482421876,33.63746,18.831439482421874,33.55557Q18.886157482421876,33.47368,18.923848482421874,33.38268Q18.961539482421877,33.29169,18.980754482421876,33.19509Q18.999969482421875,33.09849,18.999969482421875,33Z" fill-rule="evenodd" fill="#FFFFFF" fill-opacity="1"/></g><g><path d="M12.865829999999999,28.892672984375L12.86603,28.892333984375Q13,28.660283984375,13,28.392335472505Q13,28.383329414375,12.999839999999999,28.374326284375Q12.997630000000001,28.251843984375,12.96593,28.133514984375Q12.914439999999999,27.941380984375,12.79335,27.783572984375Q12.67226,27.625764984375,12.5,27.526308984375Q12.267949999999999,27.392333984375,12,27.392333984375Q11.97228,27.392333984375,11.9446,27.393869984375Q11.82018,27.400772984375,11.70126,27.437998984375Q11.58234,27.475224984375,11.476194,27.540495984375Q11.370047,27.605767984375,11.283163,27.695092984375002Q11.19628,27.784417984375,11.133975,27.892333984375L11.133863,27.892526984375L9.633975,30.490403984375Q9.5,30.722463984375,9.5,30.990403984375Q9.5,31.018133984374998,9.501536,31.045803984375Q9.508439,31.170223984375,9.545665,31.289143984375Q9.582891,31.408063984375,9.648162,31.514213984375Q9.713434,31.620363984375,9.802759,31.707243984375Q9.892084,31.794133984375,10,31.856433984375002Q10.232051,31.990403984375,10.5,31.990403984375Q10.50900382,31.990403984375,10.5180077,31.990243984375Q10.64049,31.988043984375,10.758819,31.956333984375Q10.950953,31.904853984375,11.108761,31.783763984375Q11.266569,31.662673984375,11.366025,31.490413984375L12.865829999999999,28.892672984375Z" fill-rule="evenodd" fill="#FFFFFF" fill-opacity="1"/></g><g><path d="M5.50958651953125,26.36602L8.10763251953125,24.866023Q8.27989251953125,24.766566,8.40098251953125,24.608757Q8.52207251953125,24.450949,8.57355251953125,24.258814Q8.60763251953125,24.13165,8.60763251953125,24Q8.60763251953125,23.9842335,8.60713251953125,23.9684748Q8.59921251953125,23.717475,8.47365251953125,23.499996Q8.374192519531249,23.327733,8.21638251953125,23.206644Q8.05857251953125,23.085554,7.86644251953125,23.034073Q7.739282519531249,23,7.607632519531251,23Q7.59186251953125,23,7.576102519531251,23.000497Q7.325102519531249,23.008414,7.10762251953125,23.133977L4.50957851953125,24.633977Q4.33731551953125,24.733434,4.21622651953125,24.891243Q4.09513651953125,25.04905,4.04365551953125,25.24119Q4.00958251953125,25.36835,4.00958251953125,25.5Q4.00958251953125,25.51577,4.01007951953125,25.53153Q4.01799651953125,25.78253,4.14355951953125,26Q4.24301651953125,26.17227,4.40082551953125,26.29336Q4.55863351953125,26.41445,4.75076851953125,26.46593Q4.87793251953125,26.5,5.00958251953125,26.5Q5.02534901953125,26.5,5.04110781953125,26.4995Q5.29210751953125,26.49159,5.50958651953125,26.36602Z" fill-rule="evenodd" fill="#FFFFFF" fill-opacity="1"/></g><g><path d="M3,19L6,19Q6.09849,19,6.19509,18.980785Q6.29169,18.961570000000002,6.382680000000001,18.923879Q6.47368,18.886188,6.5555699999999995,18.83147Q6.63746,18.776751,6.70711,18.707107Q6.77675,18.637463,6.8314699999999995,18.55557Q6.88619,18.473678,6.9238800000000005,18.382683Q6.96157,18.291689,6.98078,18.19509Q7,18.0984914,7,18Q7,17.9015086,6.98078,17.80491Q6.96157,17.708311,6.9238800000000005,17.617317Q6.88619,17.526322,6.8314699999999995,17.44443Q6.77675,17.362537,6.70711,17.292893Q6.63746,17.223249,6.5555699999999995,17.16853Q6.47368,17.113812,6.382680000000001,17.076121Q6.29169,17.038429999999998,6.19509,17.019215Q6.09849,17,6,17L3,17Q2.9015086,17,2.80491,17.019215Q2.708311,17.038429999999998,2.617317,17.076121Q2.526322,17.113812,2.44443,17.16853Q2.362537,17.223249,2.292893,17.292893Q2.223249,17.362537,2.16853,17.44443Q2.1138120000000002,17.526322,2.076121,17.617317Q2.03843,17.708311,2.019215,17.80491Q2,17.9015086,2,18Q2,18.0984914,2.019215,18.19509Q2.03843,18.291689,2.076121,18.382683Q2.1138120000000002,18.473678,2.16853,18.55557Q2.223249,18.637463,2.292893,18.707107Q2.362537,18.776751,2.44443,18.83147Q2.526322,18.886188,2.617317,18.923879Q2.708311,18.961570000000002,2.80491,18.980785Q2.9015086,19,3,19Z" fill-rule="evenodd" fill="#FFFFFF" fill-opacity="1"/></g><g><path d="M4.50957851953125,11.366023L7.10762251953125,12.866019999999999Q7.33967251953125,13,7.607632519531251,13Q7.63534251953125,13,7.66302251953125,12.99846Q7.78744251953125,12.99156,7.90636251953125,12.95434Q8.025282519531249,12.917110000000001,8.13143251953125,12.85184Q8.23758251953125,12.786570000000001,8.32446251953125,12.69724Q8.41134251953125,12.60792,8.47365251953125,12.5Q8.607622519531251,12.267949999999999,8.60763251953125,12Q8.60763251953125,11.97228,8.60609251953125,11.94461Q8.59919251953125,11.82019,8.56196251953125,11.701270000000001Q8.52474251953125,11.58235,8.45947251953125,11.476198Q8.39420251953125,11.370049999999999,8.30487251953125,11.283167Q8.21555251953125,11.196283,8.10763251953125,11.133977L5.50958651953125,9.633977Q5.27753451953125,9.5,5.00958293508025,9.5Q5.00058043953125,9.5,4.99157981953125,9.500162Q4.86909751953125,9.502367,4.75076851953125,9.534073Q4.55863351953125,9.585554,4.40082551953125,9.706643Q4.24301651953125,9.827733,4.14355951953125,9.999996Q4.00958251953125,10.232048,4.00958251953125,10.5Q4.00958251953125,10.50900187,4.0097445195312496,10.5180027Q4.01194951953125,10.640485,4.04365551953125,10.758814Q4.09513651953125,10.950949,4.21622651953125,11.108757Q4.33731551953125,11.266566,4.50957851953125,11.366023Z" fill-rule="evenodd" fill="#FFFFFF" fill-opacity="1"/></g><g><path d="M9.633977,5.509769625L11.133977,8.107815625Q11.199804,8.221825625000001,11.292896,8.314925625Q11.385988,8.408015625,11.5,8.473835625Q11.61402,8.539665625,11.74118,8.573735625Q11.86835,8.607815625,12,8.607815625Q12.02321,8.607815625,12.04639,8.606735624999999Q12.28936,8.595455625,12.5,8.473835625Q12.61402,8.408005625,12.70711,8.314915625Q12.8002,8.221825625000001,12.86603,8.107805625000001Q12.93185,7.993795625000001,12.96593,7.866625625Q13,7.739465624999999,13,7.607815625000001Q13,7.584605625,12.99892,7.561425625Q12.987639999999999,7.318455625,12.866019999999999,7.107805625L11.366023,4.509761625Q11.266566,4.337498625,11.108757,4.216409625Q10.950949,4.095319625,10.758814,4.043838625Q10.63165,4.009765625,10.5,4.009765625Q10.4842335,4.009765625,10.4684747,4.010262625Q10.217475,4.018179625,9.999996,4.143742625Q9.827733,4.243199625,9.706644,4.401008625Q9.585554,4.558816625,9.534073,4.750951625Q9.5,4.878115625,9.5,5.009765625Q9.5,5.025532125,9.500497,5.041290925Q9.508414,5.292290625,9.633977,5.509769625Z" fill-rule="evenodd" fill="#FFFFFF" fill-opacity="1"/></g></g></svg>